<svg width="23" height="22" viewBox="0 0 23 22" fill="none" xmlns="http://www.w3.org/2000/svg">
<g id="Group">
<g id="Group_2">
<path id="Vector" d="M13.9039 10.7774C13.8954 10.9024 13.8232 11.015 13.6914 11.1275C13.6403 11.1692 13.5851 11.2109 13.534 11.2484C13.4873 11.286 13.4448 11.3235 13.398 11.3568C13.2194 11.4944 13.0323 11.582 12.8368 11.6153C12.0842 11.7446 11.5995 11.7612 11.4082 11.6653C11.1871 11.5569 11.1276 11.1442 11.1021 10.99V10.9399C11.0723 10.8107 10.9958 10.5397 10.9916 10.5356C10.9916 10.5272 10.9873 10.523 10.9873 10.5189C10.9958 10.4939 11.0468 10.4605 11.0723 10.4397L11.1021 10.4105C11.3232 10.2145 11.5953 10.0103 11.9609 9.96024C12.0885 9.94357 12.2075 9.89771 12.3223 9.85602C12.3776 9.831 12.4329 9.81433 12.4924 9.79765C12.5859 9.7643 12.6667 9.7643 12.7305 9.78931C13.0791 9.91855 13.466 10.0936 13.7636 10.4188C13.8699 10.5397 13.9209 10.6606 13.9124 10.7815L13.9039 10.7774Z" fill="#FFE888"/>
<path id="Vector_2" d="M12.6323 12.9446C12.5047 13.0447 12.3644 13.1739 12.2454 13.3365C12.1518 13.4657 12.0115 13.5116 11.8712 13.5449C11.8627 13.5449 11.8585 13.5491 11.8542 13.5491L11.4035 13.6783C11.3738 13.6909 11.327 13.7034 11.2632 13.72H11.2462C10.8678 13.8243 10.5532 13.7826 10.2471 13.5908C9.89845 13.374 9.78366 13.053 9.89845 12.6611C10.026 12.2651 10.2641 12.0233 10.6297 11.9274C10.6722 11.9149 10.7105 11.8899 10.736 11.8732C10.7488 11.8607 10.7785 11.8398 10.787 11.8398C10.8211 11.8565 10.8466 11.8982 10.8763 11.9357C10.8933 11.9607 10.9103 11.9774 10.9231 11.9941C11.1059 12.215 11.344 12.3234 11.6289 12.3234H11.6416C11.901 12.3234 12.1518 12.3068 12.3431 12.2859C12.5727 12.2734 12.6833 12.3318 12.7641 12.5194C12.8236 12.6653 12.7768 12.8154 12.628 12.9404L12.6323 12.9446Z" fill="#F4D13D"/>
<path id="Vector_3" d="M9.43489 13.7038C9.43489 13.7038 9.42638 13.7122 9.42213 13.7163C9.31584 13.8664 8.97571 13.9873 8.72486 14.0415C8.72061 14.0415 8.71211 14.0457 8.69935 14.0457C8.61007 14.0832 8.50378 14.0999 8.34647 14.0999C7.84477 14.1749 7.72147 14.1082 7.71722 14.1082C7.70872 14.0957 7.69171 14.0832 7.67471 14.079C7.6492 14.0749 7.61518 14.0623 7.55141 14.0373C7.27505 13.9206 7.00295 13.8039 6.73084 13.6871C6.6118 13.6413 6.58203 13.5913 6.58203 13.5787C6.60754 13.1702 7.01995 12.6449 7.44937 12.6366L7.73423 12.6282C7.90855 12.6199 8.07436 12.6157 8.24443 12.6116C8.34646 12.6074 8.46126 12.6157 8.55479 12.6616C8.62707 12.6949 8.6866 12.7033 8.74187 12.6783C8.80564 12.6532 8.85241 12.6032 8.89068 12.5157L8.90343 12.4781C8.91619 12.4406 8.93319 12.3989 8.9502 12.3614C8.95445 12.3489 8.9587 12.3489 8.96295 12.3531C8.9587 12.449 8.97996 12.524 9.03523 12.574C9.082 12.6282 9.15853 12.6532 9.25632 12.6491C9.18404 12.9492 9.28608 13.2202 9.37536 13.462C9.39237 13.512 9.40937 13.5704 9.41788 13.6288L9.42638 13.6788L9.43064 13.6955L9.43489 13.7038Z" fill="#FFE888"/>
<path id="Vector_4" d="M9.63876 11.3138C9.31138 11.664 8.92448 11.8933 8.49506 11.9975C8.41428 12.0225 8.32925 12.0225 8.23571 12.0267C8.1932 12.0267 8.14644 12.0267 8.10817 12.0308C7.90834 12.0308 7.64049 12.0142 7.38964 11.8766C6.96448 11.6348 6.8837 10.9928 7.10478 10.6051C7.22383 10.3924 7.37263 10.2549 7.56821 10.184C7.78504 10.1048 8.01888 10.0548 8.26548 10.0381H8.30374C8.45255 10.0381 8.5801 10.1006 8.65663 10.2257C8.80969 10.48 9.03503 10.6176 9.3624 10.6593C9.54097 10.6759 9.67702 10.776 9.7323 10.9177C9.78331 11.0553 9.74505 11.2012 9.63451 11.3221L9.63876 11.3138Z" fill="#F4D13D"/>
<path id="Vector_5" d="M11.5349 9.43432C11.2926 9.72198 10.9737 9.90124 10.6336 10.093L10.6038 10.1097C10.3232 10.1722 10.0979 10.1556 10.0894 10.1556C9.77901 10.1639 9.53242 10.1055 9.31133 9.98046C9.12426 9.8804 8.97971 9.61776 8.9542 9.34261C8.94144 9.19252 8.95845 8.90487 9.2178 8.70059C9.3496 8.5922 9.4729 8.52132 9.59194 8.4713L9.67273 8.43378C9.67273 8.43378 9.84704 8.33789 10.1319 8.33789C10.1489 8.33789 10.1702 8.34206 10.1872 8.34206C10.319 8.35874 10.4508 8.36707 10.5741 8.37124C10.6719 8.37541 10.7739 8.37541 10.8759 8.38375C10.9355 8.39209 10.9822 8.39626 11.0077 8.40042C11.012 8.40459 11.0205 8.40876 11.0332 8.40876C11.0715 8.4171 11.1991 8.45879 11.3521 8.59637C11.5307 8.75895 11.5519 8.81732 11.5775 8.87985C11.5775 8.88819 11.5817 8.89653 11.586 8.90487C11.722 9.07163 11.7093 9.22171 11.5349 9.43432Z" fill="#F4D13D"/>
</g>
<path id="Vector_6" d="M22.8406 10.9231C22.7938 10.7605 22.696 10.6563 22.5387 10.6021C22.3899 10.5521 22.2454 10.5062 22.1051 10.4395C21.6119 10.2102 21.0719 9.9851 20.4937 9.88087C20.111 9.81 19.7156 9.74747 19.3372 9.6891C18.9673 9.63074 18.5805 9.57237 18.2063 9.50567C17.6323 9.40144 17.0201 9.35976 16.3951 9.3806C16.7352 9.16382 16.9436 8.84281 17.1009 8.55932C17.1519 8.47177 17.1987 8.38005 17.2454 8.29251C17.2964 8.19662 17.3475 8.10073 17.4027 8.00902C17.6281 7.61297 17.5983 7.26695 17.3007 6.92926C17.1817 6.79169 17.0414 6.74583 16.867 6.78335C16.4546 6.86673 16.038 7.00013 15.5065 7.20441C15.3364 7.27111 15.1621 7.32948 14.9921 7.37951C14.6604 7.4879 14.316 7.59629 13.9972 7.7964C14.0014 7.78806 14.0014 7.77973 14.0057 7.77556L14.0184 7.74637C14.112 7.50457 14.2055 7.26694 14.299 7.02515C14.4819 6.56656 14.6689 6.0913 14.839 5.61604C14.9708 5.24918 15.0941 4.87397 15.2131 4.51127C15.362 4.06519 15.5108 3.60244 15.6766 3.15636C15.8721 2.63108 15.8254 2.15582 15.5363 1.70974C15.464 1.60135 15.3577 1.43459 15.1451 1.41374C14.6944 1.37622 14.3373 1.50963 14.095 1.81813L14.0269 1.90151C13.7888 2.20168 13.5422 2.51018 13.2786 2.79783C13.015 3.08549 12.7259 3.36481 12.4496 3.63579C12.1775 3.89427 11.9011 4.16525 11.6418 4.44457C11.6333 4.45291 11.6248 4.46124 11.6163 4.46958C11.612 4.46958 11.612 4.47375 11.6078 4.47375C11.5482 4.29032 11.4845 4.11105 11.4207 3.93179C11.3654 3.77754 11.3101 3.62329 11.2591 3.46903C11.1528 3.1647 10.9913 2.88538 10.7787 2.64358C10.5236 2.35593 10.2302 2.31424 9.90284 2.51435C9.42241 2.81034 9.06952 3.26476 8.82717 3.90677C8.59758 4.5071 8.59759 5.13244 8.61034 5.72443C8.61459 5.80364 8.61459 5.87869 8.61459 5.9579C8.59333 5.91204 8.57633 5.86618 8.55507 5.82032C8.44452 5.55351 8.32548 5.27419 8.14266 5.03239C8.02786 4.88648 7.91307 4.74473 7.79403 4.59882C7.63246 4.39871 7.46665 4.19443 7.30934 3.98598C6.8289 3.32312 6.25068 2.68527 5.43862 1.91402C5.04747 1.54715 4.6223 1.17195 4.05683 0.696686C3.99306 0.646659 3.93353 0.592462 3.87401 0.542435C3.69969 0.392353 3.52112 0.238102 3.3298 0.104696C3.25752 0.0588373 3.04919 -0.0829068 2.85362 0.0671752C2.56025 0.296467 2.41145 0.550773 2.39444 0.842599C2.37743 1.14693 2.4157 1.45543 2.45396 1.71808C2.50923 2.08078 2.60702 2.4268 2.73457 2.83952C2.84086 3.18138 2.95991 3.54408 3.13848 3.88593C3.28303 4.14857 3.43609 4.43623 3.53813 4.74473C3.63592 5.0449 3.77622 5.35757 3.97605 5.73277C4.2184 6.18719 4.499 6.62493 4.77111 7.05016C4.89015 7.23776 5.0092 7.4212 5.12824 7.61297C5.21753 7.75054 5.30682 7.90479 5.39185 8.07572C5.36209 8.05904 5.33233 8.04237 5.29831 8.02986C4.55428 7.70052 3.8655 7.49207 3.19374 7.39201C3.15123 7.38368 3.10446 7.37951 3.05769 7.37534L2.96841 7.36283C2.25413 7.25444 1.60363 7.27945 0.978641 7.42953C0.876602 7.45455 0.787317 7.50457 0.706536 7.57545C0.481199 7.77556 0.442931 8.23414 0.630003 8.5343C0.82983 8.85948 1.1232 9.10128 1.40381 9.33057L1.45057 9.36809C1.50159 9.41395 1.55686 9.45981 1.60788 9.50567C1.80346 9.67243 2.00754 9.83918 2.22863 9.98927C2.05431 9.95591 1.88424 9.93924 1.70992 9.93924C1.06367 9.93924 0.532218 10.2269 0.128312 10.798C0.0220211 10.9481 -0.0204948 11.1107 0.0092667 11.2608C0.0390282 11.4192 0.14532 11.561 0.315386 11.6735C0.408922 11.7361 0.515213 11.7861 0.621504 11.8361C0.872352 11.9528 1.12745 12.0612 1.37404 12.1488C1.61213 12.2363 1.81622 12.3781 2.0288 12.5282C2.09257 12.574 2.1606 12.6199 2.22437 12.6616C2.50073 12.845 2.78559 12.945 3.09171 12.9659C3.13423 12.9659 3.17674 12.9701 3.21926 12.9742C3.29579 12.9784 3.37232 12.9867 3.4446 12.9867C3.42759 12.9992 3.41483 13.0118 3.39783 13.0243C3.3383 13.0618 3.27878 13.1035 3.22351 13.1452C2.73032 13.5245 2.24988 13.9789 1.66741 14.6251C1.1317 15.2213 0.723542 15.8842 0.45994 16.5929C0.166576 17.385 0.115557 18.0979 0.306881 18.7649C0.45994 19.2985 0.56623 19.557 1.33578 19.6029C1.7907 19.6279 2.06706 19.4778 2.23712 19.1151C2.33491 18.9025 2.49648 18.7149 2.72607 18.5398C2.9514 18.373 3.16398 18.1604 3.35956 17.9103C3.76346 17.385 4.31618 16.7096 4.98369 16.1385C5.01345 16.1134 5.04746 16.0884 5.08148 16.0676C5.09423 16.0593 5.11124 16.0467 5.12399 16.0384L5.09849 16.1301C5.05172 16.2844 5.00495 16.4428 4.96669 16.6012C4.80937 17.2391 4.70733 17.9144 4.66906 18.6148C4.6223 19.4653 4.63506 20.1698 4.70733 20.8369C4.74135 21.1245 4.81362 21.4956 5.06447 21.8124L5.08148 21.8332C5.141 21.9083 5.21753 22 5.34508 22H5.36209C5.61718 21.9792 5.94456 21.925 6.19115 21.654C6.25493 21.5831 6.31871 21.5122 6.37823 21.4414C6.442 21.3705 6.50153 21.2996 6.5653 21.2329L6.70135 21.0828C6.99471 20.7577 7.29658 20.42 7.53468 20.0406C7.54743 20.0198 7.55594 20.0114 7.55594 20.0072C7.56019 20.0114 7.56869 20.0198 7.57719 20.0364C7.60696 20.0865 7.64522 20.1281 7.68349 20.1698L7.70474 20.1948C7.76426 20.2574 7.81954 20.2866 7.88331 20.2907C7.93858 20.2949 7.99811 20.2657 8.05338 20.2157C8.11715 20.1573 8.18092 20.1031 8.2447 20.0489C8.49555 19.828 8.7549 19.6029 8.91646 19.2818C8.94197 19.236 8.97598 19.1901 9.02275 19.1443C9.03551 19.1276 9.31611 18.7566 9.42666 18.5481L9.43516 18.5356C9.43516 18.5356 9.44366 18.5148 9.44792 18.5106C9.60948 18.1646 9.70301 17.8477 9.73702 17.5476C9.74128 17.5059 9.75403 17.4725 9.78805 17.4308C9.81781 17.3975 9.86033 17.3475 9.89434 17.3391C9.94536 17.4475 10.2982 18.1646 10.5278 18.4481C10.5406 18.4647 10.5533 18.4814 10.5661 18.4981L10.5959 18.5314C10.7447 18.7232 10.8977 18.9191 11.0635 19.1026C11.5482 19.632 12.0754 20.1907 12.7089 20.6451C13.2659 21.0453 13.8186 21.2996 14.3968 21.4163C14.7667 21.4956 15.1069 21.2162 15.1791 20.9202C15.2344 20.6868 15.1919 20.47 15.1366 20.249C15.0856 20.0489 15.0388 19.8488 14.9921 19.6445C14.9155 19.3277 14.839 18.9984 14.754 18.6773C14.5754 18.0187 14.3416 17.2557 13.9206 16.5512L13.9589 16.5637C14.0184 16.5887 14.078 16.6096 14.1417 16.6346L14.2905 16.6888C14.5967 16.8055 14.9113 16.9222 15.2344 17.0056C15.8381 17.1557 16.4334 17.1432 17.0966 17.1098C17.5005 17.0932 17.8534 16.9514 18.1468 16.6888C18.2488 16.6012 18.2743 16.5012 18.2233 16.3761C18.185 16.2802 18.1213 16.2093 18.0532 16.1426L18.0192 16.1009C17.9129 15.9884 17.8109 15.8758 17.7046 15.7633C17.492 15.5381 17.2709 15.3088 17.0796 15.0629C17.0243 14.9878 16.9648 14.917 16.9096 14.8419C16.6757 14.5376 16.4334 14.2249 16.1528 13.9456C16.0762 13.8706 16.0125 13.783 15.9444 13.6913L15.8934 13.6246C15.8934 13.6246 15.8892 13.6162 15.8849 13.6162H15.8934C16.2888 13.6579 16.6842 13.6413 17.0966 13.5621C17.7344 13.4453 18.3679 13.3494 18.9844 13.2619C19.1417 13.2369 19.2947 13.216 19.452 13.1952C19.7794 13.1493 20.1195 13.1035 20.4512 13.0368C20.6042 13.0076 20.7445 12.9492 20.8848 12.8867C21.1654 12.7574 21.4035 12.6616 21.6416 12.5907C21.9222 12.499 22.2794 12.3572 22.5345 12.0487C22.8448 11.6777 22.9469 11.3108 22.8406 10.9231ZM15.0899 7.85894L15.1791 7.82975C15.3279 7.77556 15.4725 7.72553 15.6171 7.6755C15.9742 7.5546 16.3483 7.42536 16.7055 7.27528C16.7778 7.24193 16.8458 7.24193 16.8968 7.27528C16.9606 7.31697 16.9988 7.41286 16.9988 7.52959C16.9988 7.62964 16.9223 7.75471 16.8713 7.83809C16.6417 8.2258 16.3696 8.67605 16.0592 9.08877C15.9189 9.28471 15.7233 9.41395 15.4767 9.47649C15.3917 9.5015 15.3067 9.52234 15.2217 9.54319C14.958 9.60572 14.6902 9.66826 14.4393 9.79333C14.0227 10.0059 13.7208 10.2227 13.487 10.4812L13.4657 10.5062L13.4275 10.5437C13.3127 10.6605 13.3127 10.6646 13.1979 10.5646C12.8832 10.3061 12.6111 10.156 12.3263 10.0768C12.3305 10.0726 12.3348 10.0726 12.339 10.0685C12.4283 10.0018 12.5134 9.93507 12.6026 9.86837L12.7727 9.7433C12.93 9.6224 13.0661 9.47649 13.1936 9.33474C13.2744 9.24719 13.3594 9.15965 13.4445 9.07627C13.4955 9.03041 13.5508 8.98872 13.606 8.94703C13.7208 8.85948 13.8356 8.77193 13.9079 8.64687C14.1672 8.18411 14.6179 8.02569 15.0899 7.85894ZM9.0185 11.1983C9.18006 11.2149 9.30336 11.3025 9.35438 11.4317C9.40115 11.5568 9.36714 11.6902 9.2651 11.7986C8.96748 12.1154 8.61885 12.3239 8.2277 12.4198C8.15542 12.4406 8.07889 12.4406 7.99385 12.4448C7.95559 12.4448 7.91307 12.4448 7.87906 12.4489C7.69624 12.4489 7.45389 12.4323 7.22856 12.3072C6.84166 12.0862 6.76938 11.5068 6.96921 11.1524C7.0755 10.9606 7.21155 10.8356 7.39012 10.7689C7.5857 10.698 7.79827 10.6521 8.02361 10.6355H8.05763C8.19368 10.6355 8.30847 10.6938 8.3765 10.8064C8.5168 11.0357 8.72089 11.1607 9.0185 11.1983ZM8.8867 9.42646C9.00574 9.3264 9.11629 9.26387 9.22683 9.21801L9.29911 9.18466C9.29911 9.18466 9.45642 9.09711 9.71577 9.09711C9.73278 9.09711 9.74978 9.10128 9.76679 9.10128C9.88583 9.11796 10.0049 9.12213 10.1197 9.12629C10.209 9.12629 10.3025 9.1263 10.3918 9.1388C10.4471 9.14714 10.4896 9.15131 10.5108 9.15548C10.5108 9.15548 10.5236 9.16382 10.5321 9.16382C10.5661 9.17215 10.6809 9.20967 10.8212 9.33474C10.9828 9.48065 11.004 9.53485 11.0253 9.59322C11.0253 9.60155 11.0295 9.60989 11.0338 9.61406C11.1571 9.76414 11.1443 9.90172 10.987 10.0935C10.7659 10.3561 10.4768 10.5187 10.1707 10.6896L10.1452 10.7063C9.89009 10.7647 9.686 10.748 9.6775 10.748C9.39689 10.7564 9.17156 10.7022 8.97173 10.5896C8.80167 10.4979 8.66986 10.2602 8.6486 10.0101C8.63585 9.87254 8.65285 9.61406 8.8867 9.42646ZM9.62648 11.9237C9.73703 11.7027 9.77104 11.5068 9.73702 11.3067C9.73277 11.2858 9.73278 11.2775 9.72853 11.2733H9.76679C9.7923 11.2733 9.82206 11.2775 9.84757 11.2691C10.0134 11.2691 10.0389 11.2858 10.0857 11.4276C10.1197 11.5234 10.1452 11.6235 10.1664 11.7235L10.1877 11.8153C10.1962 11.8403 10.192 11.8611 10.1537 11.8778L10.1154 11.8945C10.0474 11.9278 9.97937 11.9612 9.91134 11.9779C9.69451 12.0321 9.51169 12.1446 9.34587 12.3155L9.32462 12.3364C9.2736 12.3906 9.22683 12.4406 9.16306 12.4656C9.37139 12.3155 9.5287 12.1321 9.62648 11.9237ZM9.49893 13.0201C9.61373 12.6616 9.83056 12.4406 10.1622 12.3531C10.2005 12.3406 10.2345 12.3197 10.26 12.303C10.2727 12.2905 10.2982 12.2738 10.3067 12.2738C10.3365 12.2905 10.362 12.328 10.3875 12.3614C10.4045 12.3822 10.4173 12.3989 10.43 12.4156C10.5959 12.6157 10.8127 12.7158 11.072 12.7158H11.0848C11.3186 12.7158 11.5482 12.6991 11.7225 12.6824C11.9309 12.6699 12.0329 12.7241 12.1052 12.895C12.1605 13.0284 12.118 13.1618 11.9819 13.2786C11.8671 13.3703 11.7396 13.487 11.629 13.6329C11.544 13.7497 11.4164 13.7913 11.2889 13.8205C11.2804 13.8205 11.2761 13.8247 11.2719 13.8247L10.8637 13.9414C10.8382 13.9539 10.7957 13.9623 10.7362 13.9789H10.7192C10.3748 14.0748 10.0899 14.0373 9.81356 13.8622C9.49894 13.6663 9.39264 13.3745 9.49893 13.0201ZM10.868 12.1154C10.6681 12.0154 10.6129 11.6443 10.5916 11.5026V11.4567C10.5661 11.34 10.4938 11.094 10.4896 11.0899C10.4896 11.0815 10.4896 11.0774 10.4896 11.0732C10.4981 11.0523 10.5448 11.019 10.5661 11.0023L10.5916 10.9773C10.7914 10.798 11.038 10.6146 11.3697 10.5688C11.4845 10.5521 11.595 10.5104 11.697 10.4729C11.7481 10.452 11.7991 10.4353 11.8501 10.4187C11.9351 10.3895 12.0074 10.3895 12.0669 10.4103C12.3816 10.5271 12.7344 10.6855 13.0023 10.9815C13.1001 11.0899 13.1468 11.2024 13.1383 11.3108C13.1298 11.4234 13.0661 11.5276 12.947 11.6277C12.9002 11.6652 12.8492 11.7027 12.8025 11.7361C12.7599 11.7694 12.7217 11.8028 12.6792 11.8361C12.5176 11.9612 12.3475 12.0404 12.169 12.0696C11.4845 12.1863 11.0465 12.203 10.8722 12.1154H10.868ZM12.3603 13.2369C12.373 13.1827 12.3943 13.1243 12.4241 13.0701C12.4751 12.9826 12.5304 12.87 12.5304 12.7324C12.5304 12.6657 12.5176 12.5949 12.4836 12.5198C12.5984 12.4364 12.7089 12.3572 12.8195 12.2697C12.8662 12.2363 12.9173 12.2238 12.9683 12.2405C13.0448 12.2572 13.1001 12.3072 13.1256 12.3864C13.1256 12.3864 13.1681 12.4656 13.1724 12.6074C13.1724 12.7491 13.1341 12.8575 13.0576 12.9242C13.0491 12.9284 13.0448 12.9325 13.0363 12.9367C13.0363 12.9367 13.0235 12.9492 13.015 12.9534C12.9683 12.9867 12.9215 13.0243 12.8747 13.0576C12.7557 13.1535 12.6367 13.241 12.4921 13.2702L12.4028 13.2827C12.3688 13.2911 12.3603 13.2786 12.3603 13.2786C12.3603 13.2786 12.3518 13.2702 12.3603 13.2369ZM11.3612 5.48264C11.3612 5.48264 11.3824 5.46596 11.3867 5.45762L11.8246 4.924L11.9011 4.84896L12.4793 4.30282C12.5984 4.17359 12.7259 4.05269 12.8535 3.93596C12.9938 3.81089 13.1341 3.67748 13.2616 3.53574C13.4232 3.35647 13.589 3.18138 13.7548 3.01045C13.8229 2.93958 13.8909 2.86454 13.9589 2.79367C14.1205 2.62274 14.248 2.43931 14.3458 2.2517C14.4479 2.05159 14.7752 1.86399 15.0091 1.8765C15.0431 1.88067 15.0643 1.89317 15.0899 1.93486C15.2302 2.14748 15.2982 2.35176 15.2982 2.56437C15.2982 2.71029 15.2684 2.84786 15.2089 2.9771C14.9495 3.57326 14.7582 4.20277 14.5754 4.81144C14.5371 4.93233 14.4989 5.05323 14.4649 5.17413C14.18 6.09547 13.8229 7.1794 13.3467 8.20079C13.1596 8.60935 12.9768 8.97204 12.6707 9.26387C12.5601 9.37226 12.4326 9.49316 12.288 9.58071C12.0882 9.69744 11.8884 9.83918 11.697 10.0059C11.6035 10.0852 11.493 10.1018 11.3697 10.1185C11.3824 10.0726 11.3994 10.031 11.4207 9.98927C11.578 9.61406 11.51 9.35559 11.1868 9.10128C10.9828 8.94286 10.7617 8.78027 10.4683 8.74692C10.3833 8.73441 10.3195 8.67188 10.2642 8.54264C10.1282 8.22997 10.0942 7.90896 10.1622 7.59629C10.3067 6.94177 10.6171 6.34561 11.0763 5.82449C11.1443 5.75362 11.2038 5.67441 11.2506 5.5952C11.2804 5.54517 11.3186 5.50348 11.3612 5.48264ZM8.97173 5.65356C8.97173 5.55351 8.98023 5.45345 8.98023 5.3534C8.98874 5.2992 9.027 5.03656 9.06952 4.79893L9.09078 4.66969C9.17156 4.23195 9.25234 3.81923 9.5372 3.4732C9.71577 3.25642 9.9326 3.08549 10.1834 2.96876C10.2642 2.92707 10.3918 2.89789 10.5448 3.07299C10.6511 3.19805 10.7404 3.34397 10.8042 3.51489C10.9147 3.80672 11.021 4.09855 11.1273 4.39454L11.2166 4.64885C11.2719 4.79059 11.2506 4.89065 11.1528 4.99487C10.8595 5.31588 10.4938 5.7161 10.226 6.16217C9.88158 6.74166 9.69026 7.2461 9.62648 7.74637C9.57972 8.1049 9.63073 8.43842 9.78379 8.72608C9.78804 8.73858 9.79655 8.75109 9.79655 8.75943H9.77104C9.71152 8.75526 9.65624 8.7636 9.59247 8.76777C9.56696 8.77193 9.54145 8.77193 9.49893 8.78027C9.46917 8.78444 9.46067 8.78444 9.46067 8.78444C9.46067 8.78444 9.45216 8.76777 9.45216 8.72191C9.45216 8.38005 9.39264 8.04654 9.26935 7.70051C9.09078 7.20441 9.02275 6.67912 8.97598 6.22888C8.95898 6.04127 8.96748 5.84117 8.97598 5.65356H8.97173ZM1.45057 8.64687C1.31877 8.5343 1.19547 8.4009 1.08918 8.25082C1.02966 8.17578 1.0084 8.11324 1.02541 8.06321C1.03816 8.01319 1.09344 7.96733 1.18697 7.92564C1.57387 7.77139 1.99053 7.68384 2.4327 7.6755C2.46246 7.6755 2.48798 7.67133 2.51348 7.67133C2.97691 7.67133 3.46585 7.77139 4.03132 7.9715C4.12485 8.00485 4.21414 8.0382 4.30342 8.06738C4.54577 8.15076 4.79662 8.23414 5.03046 8.35504C5.34508 8.50929 5.62994 8.72191 5.90205 8.92619C5.96157 8.97204 6.01684 9.01373 6.07636 9.05542C6.13164 9.09711 6.19116 9.14297 6.24643 9.18466C6.36547 9.27638 6.48877 9.36809 6.61632 9.45147C6.86291 9.61823 7.12652 9.70578 7.40712 9.71412H7.56869C7.68774 9.72245 7.81103 9.72245 7.93433 9.72245C8.00661 9.72245 8.07038 9.6891 8.10015 9.63491C8.12991 9.58488 8.12565 9.51401 8.08313 9.4473C8.01936 9.34308 7.92158 9.28055 7.80678 9.27638C7.15203 9.23886 6.71836 8.84698 6.34421 8.43008C6.06786 8.12575 5.86378 7.76722 5.66395 7.41703L5.62994 7.35866C5.37484 6.91258 5.08573 6.47068 4.80937 6.04544C4.72434 5.91621 4.63931 5.78697 4.55428 5.65356C4.43948 5.4743 4.35019 5.29503 4.29067 5.11994C4.16312 4.72806 3.9888 4.34868 3.81874 3.98598C3.75496 3.85258 3.69119 3.715 3.63167 3.5816C3.52538 3.34397 3.43609 3.098 3.35106 2.8562L3.27453 2.63108C3.18099 2.37677 3.12147 2.12247 3.05769 1.83481C2.98542 1.52214 2.95566 1.18862 2.96416 0.813417C2.96416 0.738375 2.97691 0.675841 3.00242 0.617476C3.02793 0.554942 3.04919 0.542435 3.06194 0.538266C3.07045 0.538266 3.0917 0.538266 3.14698 0.571618C3.30003 0.667503 3.44885 0.788403 3.58915 0.900964C3.64017 0.942654 3.69119 0.984343 3.73796 1.02603C4.63931 1.74726 5.29831 2.33508 5.86803 2.94375C6.35272 3.45236 6.83315 4.0235 7.39437 4.73639C8.01086 5.52849 8.35949 6.42065 8.6231 7.1919C8.65711 7.29196 8.69112 7.39201 8.72939 7.4879C8.82292 7.73804 8.92071 7.99651 8.95898 8.26332C8.97599 8.39673 8.99299 8.53847 8.98449 8.68439C8.97173 8.91368 8.86544 9.08044 8.67411 9.17632C8.23619 9.40145 8.21069 9.79749 8.23195 10.0726V10.0977C8.2362 10.1393 8.24045 10.181 8.23619 10.1894C8.22769 10.1977 8.17242 10.2102 8.1299 10.2144C7.65372 10.2978 7.27958 10.427 6.95645 10.6271C6.87992 10.6688 6.82891 10.7188 6.78639 10.7772C6.6971 10.9106 6.56105 10.9815 6.37398 10.9898C6.0296 11.0065 5.71922 10.9773 5.43011 10.8939C5.30682 10.8564 5.18777 10.8231 5.06447 10.7897C4.80937 10.7188 4.54577 10.6438 4.29067 10.5604C3.8485 10.4103 3.41058 10.1644 2.9429 9.81L2.6793 9.61406C2.27114 9.30556 1.84598 8.98455 1.45057 8.64687ZM3.12997 12.4698C2.76008 12.4615 2.48372 12.2447 2.25413 12.0446C2.25413 12.0446 2.24563 12.0362 2.24138 12.0362C2.11808 11.9112 1.77795 11.7652 1.50585 11.6568C1.5016 11.6568 1.49309 11.6527 1.48884 11.6527C1.37829 11.6277 1.27201 11.5943 1.16571 11.5443C1.01266 11.4692 0.842589 11.3984 0.647013 11.3275C0.58749 11.3067 0.549226 11.2816 0.540722 11.2566C0.527967 11.2316 0.540719 11.1858 0.57048 11.1274C0.685275 10.9023 0.876602 10.7272 1.19122 10.5604C1.3783 10.4645 1.59088 10.4103 1.77795 10.4103H1.82897C2.05006 10.4103 2.19886 10.4395 2.32641 10.5146C2.57726 10.6563 2.85361 10.7147 3.12147 10.7647L3.20225 10.7814C3.40208 10.8231 3.5934 10.9064 3.77622 10.9856C3.8315 11.0107 3.89102 11.0357 3.94629 11.0565C4.63931 11.3483 5.38759 11.5109 6.1699 11.5443H6.20816C6.20816 11.5443 6.23792 11.5443 6.24643 11.5485C6.28044 11.5568 6.31446 11.5526 6.34847 11.5485C6.40799 11.5443 6.41224 11.5485 6.42075 11.5735C6.46326 11.6819 6.42074 11.8278 6.34421 11.8903C6.25918 11.957 6.15289 11.9695 6.03809 11.982H6.00408C5.77024 12.0154 5.57467 12.0654 5.40035 12.1321C5.16226 12.228 4.92417 12.3197 4.68608 12.4114C4.499 12.4823 4.31618 12.5573 4.12911 12.6282C4.08659 12.6449 4.06533 12.6491 4.04407 12.6407C3.74646 12.5073 3.42759 12.4781 3.12997 12.4698ZM4.78386 15.5923C4.14186 16.1218 3.59765 16.7471 3.14698 17.2849C2.86212 17.6351 2.54325 17.9561 2.24138 18.2479C2.00754 18.4731 1.82472 18.6982 1.68866 18.9317C1.60788 19.0651 1.50584 19.1234 1.36129 19.1068C0.965884 19.0692 0.876601 19.0275 0.791568 18.6607C0.740548 18.4272 0.727791 18.1896 0.72354 17.9061C0.706533 17.5309 0.842589 17.114 0.965887 16.793C1.28901 15.9258 1.85448 15.1254 2.68355 14.3375C3.38082 13.6788 4.07809 13.2035 4.81788 12.8742C5.31107 12.6574 5.73623 12.5448 6.15289 12.5198C6.19541 12.5198 6.24643 12.5198 6.2932 12.4948C6.33571 12.474 6.37397 12.4656 6.41649 12.4656C6.49727 12.4656 6.57806 12.5073 6.68435 12.6032C6.73962 12.6532 6.80339 12.7074 6.80339 12.7283C6.80339 12.7491 6.73537 12.8158 6.68435 12.8617C6.49727 13.0409 6.33997 13.241 6.22092 13.4537C5.97432 13.8956 6.01684 14.2207 6.36547 14.5751C6.38673 14.596 6.39099 14.6043 6.39524 14.6085C6.39099 14.6085 6.38673 14.6168 6.36547 14.6335C6.3102 14.671 6.24643 14.7043 6.16565 14.7335C5.62144 14.9295 5.16651 15.2797 4.78386 15.5923ZM7.05849 19.8572C6.99047 19.9364 6.92669 20.0239 6.86716 20.1073C6.8374 20.149 6.80765 20.1907 6.77363 20.2324C6.47177 20.6284 6.15714 20.9869 5.83402 21.308C5.7915 21.3496 5.74048 21.3913 5.67671 21.4372C5.55766 21.5164 5.5194 21.5122 5.43436 21.3997C5.32382 21.2579 5.2558 21.087 5.22604 20.8786C5.18777 20.6368 5.17926 20.3866 5.16651 20.1448C5.158 19.9697 5.14951 19.7946 5.1325 19.6195C5.10274 19.2068 5.11549 18.7816 5.17076 18.3522C5.18777 18.2063 5.20477 18.0603 5.22178 17.9103C5.26855 17.4642 5.31957 17.0014 5.44712 16.5595C5.57467 16.126 5.73198 15.8008 5.95306 15.5381C6.0551 15.4089 6.16565 15.3297 6.2932 15.288C6.53554 15.213 6.71836 15.0629 6.88842 14.917C6.9607 14.8503 7.02448 14.8211 7.09251 14.8211C7.11377 14.8211 7.13502 14.8252 7.16053 14.8336C7.22856 14.8503 7.23706 14.8794 7.22856 14.9253C7.22431 14.9503 7.22005 14.9753 7.2158 15.0003C7.21155 15.042 7.20305 15.0837 7.19029 15.1254C7.08825 15.4756 7.04999 15.83 7.02448 16.2552C6.99897 16.7221 6.98622 17.1057 6.98622 17.4642C6.99047 18.0145 7.067 18.5356 7.21155 19.015C7.31784 19.3569 7.27108 19.6154 7.05849 19.8572ZM7.37311 14.2749C7.12226 14.1707 6.87567 14.0623 6.62907 13.9581C6.52278 13.9164 6.49302 13.8706 6.49302 13.858C6.51428 13.487 6.88842 13.0118 7.27957 13.0034L7.53893 12.9951C7.69624 12.9867 7.8493 12.9826 8.00236 12.9784C8.0959 12.9742 8.19793 12.9826 8.28296 13.0243C8.34674 13.0534 8.40201 13.0618 8.45303 13.0409C8.51256 13.0201 8.55507 12.9742 8.58908 12.895L8.60184 12.8617C8.61459 12.8283 8.62735 12.7908 8.64435 12.7574C8.64861 12.7449 8.65286 12.7449 8.65711 12.7491C8.65711 12.8367 8.67411 12.9034 8.72088 12.9492C8.7634 12.9992 8.83142 13.0201 8.92071 13.0159C8.85693 13.2869 8.94622 13.5329 9.027 13.7538C9.04401 13.7997 9.05677 13.8539 9.06527 13.9039L9.07377 13.9498L9.07802 13.9664C9.07377 13.9706 9.06952 13.9748 9.06527 13.9789C8.96748 14.1165 8.66136 14.2249 8.43177 14.2749C8.42752 14.2749 8.41902 14.2791 8.41051 14.2791C8.32973 14.3125 8.23194 14.3291 8.09164 14.3291C7.63671 14.3958 7.52617 14.3375 7.52192 14.3375C7.51342 14.325 7.50066 14.3166 7.48366 14.3125C7.4624 14.3083 7.42838 14.2958 7.37311 14.2749ZM9.21833 17.7602C8.95048 18.4314 8.56783 19.0275 8.07464 19.532C8.07038 19.532 8.06188 19.5445 8.06188 19.5445C8.04488 19.557 8.03212 19.5737 8.01511 19.5862C7.99811 19.607 7.95984 19.6404 7.95133 19.6445C7.93008 19.632 7.91733 19.6154 7.90882 19.5945C7.90882 19.582 7.90882 19.5862 7.90032 19.5778C7.81954 19.4111 7.7175 18.9775 7.68349 18.8441C7.54743 18.2855 7.48365 17.7185 7.50066 17.1599C7.50491 17.0223 7.50491 16.8847 7.50491 16.7471C7.50491 16.522 7.50491 16.2927 7.52192 16.0676C7.55168 15.6882 7.65372 15.3172 7.74301 15.0379C7.78552 14.9086 7.83654 14.8794 8.02361 14.8794H8.08313C8.17242 14.8878 8.27021 14.8919 8.28296 14.9045C8.29147 14.917 8.28722 14.9795 8.28722 15.0337C8.28297 15.0629 8.28296 15.0962 8.28296 15.1296C8.26596 15.7341 8.4998 16.2635 8.7464 16.7596C8.75065 16.7721 8.75915 16.7888 8.76765 16.8013C8.78891 16.8305 8.80591 16.8597 8.81442 16.893C8.85693 17.0348 8.95897 17.1223 9.03975 17.1807C9.26509 17.3433 9.31612 17.51 9.21833 17.7602ZM9.92835 16.1802L9.89008 16.2635C9.8008 16.4636 9.70727 16.6679 9.56696 16.843C9.5287 16.893 9.48193 16.9181 9.43941 16.9181H9.43091C9.3884 16.9139 9.35013 16.8847 9.32462 16.8347C9.09078 16.3803 8.84844 15.9092 8.7464 15.3881C8.67412 15.0003 8.7549 14.7335 9.01425 14.5292C9.06101 14.4917 9.10353 14.4542 9.14605 14.4167C9.18431 14.3792 9.21833 14.3458 9.26084 14.3125C9.29486 14.2875 9.32462 14.2749 9.35863 14.2749C9.38839 14.2749 9.4224 14.2874 9.45216 14.3166C9.56696 14.4209 9.69451 14.4834 9.86033 14.5126C10.0219 14.5418 10.1154 14.6501 10.1409 14.8378C10.1494 14.9128 10.1579 14.9962 10.1622 15.0754C10.1664 15.1171 10.1707 15.1629 10.1707 15.2004C10.1877 15.5673 10.0602 15.9008 9.92835 16.1802ZM14.5882 19.9697L14.6052 20.0448C14.6604 20.2782 14.7115 20.495 14.737 20.7076C14.737 20.8077 14.7072 20.8827 14.6519 20.9244C14.6009 20.9578 14.5329 20.9619 14.4521 20.9369C14.2098 20.8577 13.9547 20.7702 13.64 20.6576C13.487 20.6034 13.3467 20.5159 13.1766 20.3741C13.0236 20.2407 12.862 20.1156 12.7047 19.9906C12.3901 19.7446 12.0669 19.4861 11.7948 19.1818C11.2974 18.6148 10.8595 18.0937 10.5193 17.485C10.4343 17.3266 10.3833 17.1557 10.328 16.9764C10.2982 16.8639 10.2642 16.7471 10.2175 16.6387C10.2047 16.5929 10.2302 16.5387 10.2472 16.5137C10.5406 16.0384 10.6511 15.4923 10.6044 14.7502C10.5916 14.5501 10.6171 14.5167 10.8255 14.4709C10.902 14.45 10.9828 14.4375 11.0635 14.4209C11.1231 14.4125 11.1868 14.4 11.2464 14.3875C11.3909 14.3583 11.5142 14.2874 11.6375 14.2166L11.6885 14.1916C11.6885 14.1916 11.7055 14.1791 11.7098 14.1791C11.7098 14.1791 11.7098 14.1818 11.7098 14.1874C11.8033 14.5709 12.0329 14.8794 12.2583 15.1754L12.2923 15.2255C12.4156 15.3839 12.5304 15.534 12.6239 15.7007C12.6579 15.7591 12.6962 15.8175 12.7599 15.855C13.1298 16.0718 13.3084 16.4261 13.4955 16.7972C13.9334 17.6685 14.2693 18.6482 14.5839 19.9697H14.5882ZM15.9614 14.3875C15.9614 14.3875 15.9614 14.3917 15.9699 14.3958C16.191 14.646 16.3951 14.917 16.5864 15.1838L16.7097 15.3464C17.0073 15.7549 17.2752 16.0718 17.543 16.3427C17.5983 16.3969 17.6153 16.4219 17.6153 16.4219C17.6068 16.4386 17.5303 16.472 17.5048 16.4845C17.2539 16.6096 16.9776 16.6387 16.6459 16.6429H16.6204C15.5788 16.6429 14.6732 16.4261 13.8484 15.9884C13.538 15.8216 13.1851 15.634 12.9002 15.363C12.8025 15.2672 12.7387 15.1504 12.6664 15.0295C12.6239 14.9628 12.5856 14.8919 12.5346 14.8252C12.4538 14.7127 12.3816 14.596 12.305 14.4792C12.2625 14.4125 12.22 14.35 12.1775 14.2833C12.1222 14.2041 12.0839 14.1082 12.0627 13.9998C12.0372 13.8539 12.0839 13.7747 12.22 13.7288C12.2923 13.7038 12.3645 13.6913 12.4283 13.6913C12.6792 13.6788 12.9173 13.5912 13.1724 13.4203C13.1851 13.412 13.1979 13.4036 13.2064 13.3953L13.2531 13.3494C13.2744 13.3328 13.3552 13.2911 13.6188 13.2911C13.6911 13.2911 13.7803 13.2952 13.8866 13.3036H13.9036C14.3586 13.3077 14.7327 13.3494 15.0813 13.5245C15.1749 13.5704 15.2599 13.6329 15.3449 13.6955C15.3875 13.7288 15.4342 13.7622 15.4853 13.7997L15.5065 13.8247C15.7701 14.1499 15.9232 14.3416 15.9614 14.3875ZM22.2751 11.5526C22.1306 11.7736 21.9307 11.9445 21.6799 12.0571C20.8721 12.4114 20.1493 12.6532 19.4648 12.795C19.1204 12.8658 18.7633 12.9075 18.4061 12.9159C17.9214 12.9325 17.458 13.0368 17.0286 13.1493C16.6545 13.2452 16.2803 13.2077 15.9614 13.1618C15.6086 13.116 15.2599 13.0243 14.9198 12.9409C14.7242 12.8909 14.5329 12.8408 14.3373 12.7991C14.2565 12.7825 14.1715 12.7658 14.0907 12.7491C13.9972 12.7283 13.8994 12.7074 13.8059 12.6866C13.6826 12.6574 13.623 12.5907 13.6188 12.4781C13.6145 12.2864 13.5805 12.0154 13.3169 11.8278C13.3127 11.8236 13.2999 11.8153 13.2999 11.8069C13.2957 11.7986 13.3042 11.7819 13.3169 11.7694C13.4785 11.5818 13.5082 11.3483 13.5167 11.1482C13.5167 11.0148 13.572 10.9231 13.6868 10.8439C13.7676 10.7897 13.8441 10.7313 13.9249 10.673C14.0354 10.5854 14.1502 10.4979 14.265 10.427C14.7285 10.1477 15.2514 10.0184 15.7063 9.92673C15.9657 9.87254 16.225 9.84752 16.4801 9.84335C16.748 9.87254 17.0201 9.88504 17.2837 9.89338C17.7939 9.91423 18.3211 9.93507 18.8185 10.0935C19.0821 10.1727 19.35 10.1894 19.6093 10.2019C19.7284 10.2102 19.8517 10.2144 19.9707 10.2269C20.2216 10.2561 20.4767 10.3103 20.719 10.3603C20.8168 10.3811 20.9146 10.402 21.0081 10.4187C21.0422 10.427 21.0762 10.4395 21.1017 10.4604C21.395 10.6688 21.7139 10.7772 22.0498 10.8856C22.2156 10.9398 22.3261 11.0232 22.3687 11.1357C22.4112 11.2525 22.3772 11.3942 22.2751 11.5526Z" fill="#282828"/>
</g>
</svg>
