<svg width="16" height="16" viewBox="0 0 16 16" fill="none" xmlns="http://www.w3.org/2000/svg">
<g clip-path="url(#clip0_420_3790)">
<path d="M9.72308 7.84842C9.71714 7.93369 9.66659 8.01044 9.57443 8.08719C9.53875 8.11561 9.50011 8.14403 9.46443 8.16962C9.43173 8.1952 9.402 8.22078 9.36929 8.24352C9.24443 8.33732 9.11362 8.39701 8.97686 8.41975C8.45063 8.50787 8.11171 8.51924 7.97792 8.45386C7.82333 8.37996 7.7817 8.09856 7.76387 7.99338V7.95927C7.74306 7.87116 7.68954 7.6864 7.68657 7.68356C7.68657 7.67787 7.68359 7.67503 7.68359 7.67219C7.68954 7.65513 7.72522 7.63239 7.74306 7.61818L7.76387 7.59828C7.91846 7.46469 8.10874 7.32541 8.36442 7.2913C8.45361 7.27993 8.53685 7.24866 8.61712 7.22023C8.65577 7.20318 8.69442 7.19181 8.73604 7.18044C8.80145 7.1577 8.85794 7.1577 8.90253 7.17475C9.14632 7.26287 9.41686 7.38225 9.62497 7.60397C9.6993 7.6864 9.73498 7.76883 9.72903 7.85126L9.72308 7.84842Z" fill="#FFE888"/>
<path d="M8.83428 9.32601C8.74509 9.39423 8.64698 9.48234 8.56374 9.5932C8.49833 9.68131 8.40022 9.71258 8.30211 9.73532C8.29616 9.73532 8.29319 9.73816 8.29022 9.73816L7.97508 9.82628C7.95427 9.83481 7.92157 9.84333 7.87697 9.8547H7.86508C7.60048 9.92577 7.38048 9.89734 7.16642 9.76659C6.92264 9.61878 6.84236 9.39991 6.92263 9.13272C7.01182 8.86269 7.17831 8.69782 7.43399 8.63245C7.46372 8.62392 7.49048 8.60686 7.50832 8.59549C7.51724 8.58697 7.53805 8.57275 7.54399 8.57275C7.56778 8.58412 7.58562 8.61255 7.60643 8.63813C7.61832 8.65519 7.63021 8.66656 7.63913 8.67793C7.76697 8.82858 7.93346 8.90248 8.13265 8.90248H8.14157C8.32292 8.90248 8.49833 8.89111 8.63212 8.8769C8.79266 8.86837 8.86996 8.90816 8.92645 9.03608C8.96807 9.13556 8.93536 9.23789 8.83131 9.32316L8.83428 9.32601Z" fill="#F4D13D"/>
<path d="M6.59841 9.84356C6.59841 9.84356 6.59246 9.84924 6.58949 9.85208C6.51517 9.95441 6.27732 10.0368 6.10192 10.0738C6.09894 10.0738 6.093 10.0766 6.08408 10.0766C6.02165 10.1022 5.94732 10.1136 5.83732 10.1136C5.4865 10.1648 5.40028 10.1193 5.39731 10.1193C5.39136 10.1107 5.37947 10.1022 5.36758 10.0994C5.34974 10.0965 5.32596 10.088 5.28136 10.071C5.08812 9.99136 4.89785 9.91178 4.70757 9.83219C4.62433 9.80092 4.60352 9.76681 4.60352 9.75828C4.62135 9.47972 4.90974 9.12157 5.21001 9.11589L5.4092 9.1102C5.5311 9.10452 5.64704 9.10167 5.76596 9.09883C5.83732 9.09599 5.91759 9.10167 5.98299 9.13294C6.03353 9.15568 6.07516 9.16137 6.11381 9.14431C6.1584 9.12726 6.19111 9.09315 6.21786 9.03345L6.22678 9.00787C6.2357 8.98229 6.24759 8.95387 6.25949 8.92828C6.26246 8.91976 6.26543 8.91976 6.2684 8.9226C6.26543 8.98798 6.2803 9.03914 6.31895 9.07325C6.35165 9.1102 6.40516 9.12726 6.47354 9.12441C6.423 9.32907 6.49435 9.51383 6.55679 9.67869C6.56868 9.7128 6.58057 9.7526 6.58651 9.79239L6.59246 9.8265L6.59544 9.83787L6.59841 9.84356Z" fill="#FFE888"/>
<path d="M6.74019 8.21452C6.51127 8.45329 6.24073 8.60962 5.94045 8.68068C5.88396 8.69774 5.8245 8.69774 5.7591 8.70058C5.72937 8.70058 5.69667 8.70058 5.66991 8.70342C5.53018 8.70342 5.34288 8.69205 5.16747 8.59825C4.87017 8.43339 4.81368 7.99565 4.96828 7.7313C5.05152 7.58634 5.15558 7.49253 5.29234 7.44421C5.44396 7.39021 5.60748 7.3561 5.77991 7.34473H5.80667C5.91072 7.34473 5.99991 7.38736 6.05343 7.47264C6.16046 7.64603 6.31803 7.73983 6.54695 7.76825C6.67181 7.77962 6.76695 7.84784 6.8056 7.94449C6.84127 8.03829 6.81452 8.13777 6.73722 8.22021L6.74019 8.21452Z" fill="#F4D13D"/>
<path d="M8.0665 6.93263C7.89704 7.12876 7.67406 7.25098 7.43622 7.38174L7.41541 7.39311C7.21919 7.43574 7.06162 7.42437 7.05567 7.42437C6.83864 7.43006 6.66621 7.39026 6.51161 7.30499C6.3808 7.23677 6.27972 7.05769 6.26188 6.87009C6.25296 6.76776 6.26486 6.57163 6.44621 6.43235C6.53837 6.35845 6.62459 6.31013 6.70783 6.27602L6.76432 6.25044C6.76432 6.25044 6.88621 6.18506 7.08541 6.18506C7.0973 6.18506 7.11217 6.1879 7.12406 6.1879C7.21622 6.19927 7.30838 6.20496 7.3946 6.2078C7.46298 6.21064 7.53433 6.21064 7.60568 6.21633C7.64731 6.22201 7.68001 6.22485 7.69785 6.2277C7.70082 6.23054 7.70677 6.23338 7.71568 6.23338C7.74244 6.23907 7.83163 6.26749 7.93866 6.36129C8.06353 6.47215 8.07839 6.51194 8.09623 6.55458C8.09623 6.56026 8.0992 6.56595 8.10218 6.57163C8.19731 6.68533 8.1884 6.78766 8.0665 6.93263Z" fill="#F4D13D"/>
<path d="M15.9716 7.94758C15.9389 7.83672 15.8705 7.76566 15.7605 7.72871C15.6564 7.6946 15.5553 7.66333 15.4572 7.61785C15.1124 7.46151 14.7348 7.30802 14.3305 7.23696C14.0629 7.18864 13.7864 7.146 13.5218 7.10621C13.2631 7.06641 12.9926 7.02662 12.731 6.98114C12.3296 6.91008 11.9015 6.88165 11.4645 6.89586C11.7023 6.74806 11.848 6.52919 11.958 6.3359C11.9937 6.27621 12.0264 6.21367 12.0591 6.15398C12.0948 6.0886 12.1304 6.02323 12.1691 5.96069C12.3266 5.69066 12.3058 5.45474 12.0977 5.2245C12.0145 5.13069 11.9164 5.09943 11.7945 5.12501C11.5061 5.18186 11.2147 5.27282 10.8431 5.4121C10.7242 5.45758 10.6023 5.49737 10.4834 5.53148C10.2515 5.60539 10.0107 5.67929 9.78769 5.81573C9.79066 5.81004 9.79067 5.80436 9.79364 5.80152L9.80256 5.78162C9.86796 5.61676 9.93337 5.45474 9.99878 5.28987C10.1266 4.9772 10.2574 4.65316 10.3763 4.32912C10.4685 4.07898 10.5547 3.82316 10.638 3.57587C10.742 3.27172 10.8461 2.95621 10.962 2.65207C11.0988 2.29392 11.0661 1.96988 10.8639 1.66573C10.8134 1.59183 10.7391 1.47813 10.5904 1.46392C10.2753 1.43833 10.0255 1.52929 9.85607 1.73964L9.80851 1.79649C9.64202 2.00114 9.46958 2.21148 9.28525 2.40761C9.10092 2.60374 8.89876 2.79419 8.70551 2.97895C8.51524 3.15518 8.322 3.33994 8.14064 3.53039C8.1347 3.53607 8.12875 3.54176 8.12281 3.54744C8.11983 3.54744 8.11983 3.55028 8.11686 3.55028C8.07524 3.42522 8.03064 3.30299 7.98605 3.18076C7.9474 3.07559 7.90875 2.97042 7.87307 2.86525C7.79874 2.65775 7.68577 2.46731 7.53712 2.30244C7.35874 2.10631 7.1536 2.07789 6.92468 2.21433C6.58873 2.41614 6.34197 2.72597 6.17251 3.16371C6.01196 3.57302 6.01197 3.99939 6.02088 4.40302C6.02386 4.45703 6.02386 4.50819 6.02386 4.5622C6.00899 4.53093 5.9971 4.49967 5.98223 4.4684C5.90494 4.28648 5.82169 4.09604 5.69385 3.93117C5.61358 3.83169 5.53331 3.73504 5.45007 3.63556C5.33709 3.49912 5.22114 3.35984 5.11114 3.21772C4.77519 2.76577 4.37086 2.33087 3.80302 1.80501C3.5295 1.55488 3.2322 1.29905 2.83679 0.975013C2.79219 0.940904 2.75057 0.903952 2.70895 0.869842C2.58705 0.767513 2.46219 0.662342 2.3284 0.571383C2.27786 0.540116 2.13218 0.443473 1.99543 0.545801C1.79029 0.702137 1.68623 0.875527 1.67434 1.0745C1.66245 1.282 1.68921 1.49234 1.71596 1.67142C1.75461 1.91871 1.82299 2.15464 1.91218 2.43604C1.98651 2.66912 2.06975 2.91642 2.19462 3.1495C2.2957 3.32857 2.40273 3.5247 2.47408 3.73504C2.54246 3.9397 2.64057 4.15289 2.7803 4.40871C2.94976 4.71854 3.14598 5.017 3.33625 5.30693C3.4195 5.43484 3.50274 5.55991 3.58599 5.69066C3.64842 5.78446 3.71086 5.88963 3.77032 6.00617C3.7495 5.9948 3.72869 5.98343 3.70491 5.97491C3.18463 5.75035 2.703 5.60823 2.23326 5.54001C2.20353 5.53432 2.17083 5.53148 2.13813 5.52864L2.07569 5.52011C1.57623 5.44621 1.12136 5.46326 0.684326 5.56559C0.612974 5.58265 0.550541 5.61676 0.494054 5.66508C0.336484 5.80152 0.309725 6.11419 0.440537 6.31884C0.580269 6.54056 0.785409 6.70542 0.981628 6.86175L1.01433 6.88734C1.05001 6.9186 1.08865 6.94987 1.12433 6.98114C1.26109 7.09484 1.4038 7.20854 1.55839 7.31086C1.4365 7.28812 1.31758 7.27675 1.19569 7.27675C0.743787 7.27675 0.37216 7.47288 0.0897239 7.8623C0.0153985 7.96463 -0.0143312 8.07549 0.00647985 8.17782C0.0272909 8.28583 0.101617 8.38247 0.220537 8.45922C0.285943 8.50186 0.360269 8.53597 0.434594 8.57008C0.610002 8.64966 0.78838 8.72357 0.960815 8.78326C1.1273 8.84295 1.27001 8.9396 1.41866 9.04192C1.46326 9.07319 1.51082 9.10446 1.55542 9.13288C1.74866 9.25795 1.94786 9.32617 2.16191 9.34038C2.19164 9.34038 2.22138 9.34323 2.25111 9.34607C2.30462 9.34891 2.35813 9.3546 2.40867 9.3546C2.39678 9.36312 2.38786 9.37165 2.37597 9.38018C2.33435 9.40576 2.29273 9.43418 2.25408 9.46261C1.90921 9.72127 1.57326 10.0311 1.16595 10.4717C0.791354 10.8782 0.505945 11.3301 0.321618 11.8133C0.116481 12.3534 0.0808043 12.8395 0.21459 13.2942C0.321618 13.6581 0.395943 13.8343 0.934058 13.8656C1.25217 13.8826 1.44542 13.7803 1.56434 13.533C1.63272 13.3881 1.74569 13.2601 1.90624 13.1408C2.0638 13.0271 2.21245 12.8821 2.34921 12.7115C2.63165 12.3534 3.01814 11.8929 3.4849 11.5035C3.50572 11.4864 3.5295 11.4694 3.55328 11.4552C3.5622 11.4495 3.5741 11.441 3.58301 11.4353L3.56518 11.4978C3.53247 11.603 3.49977 11.711 3.47301 11.819C3.36301 12.2539 3.29166 12.7144 3.2649 13.1919C3.2322 13.7718 3.24112 14.2522 3.29166 14.707C3.31544 14.9031 3.36598 15.1561 3.54139 15.3721L3.55328 15.3863C3.5949 15.4375 3.64842 15.5 3.73761 15.5H3.7495C3.92788 15.4858 4.1568 15.4488 4.32924 15.2641C4.37383 15.2158 4.41843 15.1674 4.46005 15.1191C4.50465 15.0708 4.54627 15.0225 4.59087 14.977L4.686 14.8747C4.89114 14.6529 5.10222 14.4227 5.26871 14.164C5.27763 14.1498 5.28358 14.1441 5.28358 14.1413C5.28655 14.1441 5.2925 14.1498 5.29844 14.1612C5.31926 14.1953 5.34601 14.2237 5.37277 14.2522L5.38763 14.2692C5.42925 14.3119 5.46791 14.3317 5.5125 14.3346C5.55115 14.3374 5.59277 14.3175 5.63142 14.2834C5.67602 14.2436 5.72061 14.2067 5.7652 14.1697C5.94061 14.0191 6.12197 13.8656 6.23494 13.6467C6.25278 13.6154 6.27656 13.5842 6.30927 13.5529C6.31819 13.5415 6.5144 13.2886 6.5917 13.1464L6.59765 13.1379C6.59765 13.1379 6.6036 13.1237 6.60657 13.1209C6.71954 12.8849 6.78495 12.6689 6.80873 12.4642C6.8117 12.4358 6.82063 12.4131 6.84441 12.3847C6.86522 12.3619 6.89495 12.3278 6.91874 12.3221C6.95441 12.396 7.20117 12.8849 7.36171 13.0782C7.37063 13.0896 7.37955 13.101 7.38847 13.1123L7.40928 13.1351C7.51334 13.2658 7.62037 13.3994 7.73631 13.5245C8.07524 13.8855 8.44389 14.2664 8.88687 14.5762C9.27633 14.8491 9.66283 15.0225 10.0672 15.1021C10.3258 15.1561 10.5636 14.9656 10.6142 14.7638C10.6528 14.6046 10.6231 14.4568 10.5845 14.3062C10.5488 14.1697 10.5161 14.0333 10.4834 13.894C10.4299 13.678 10.3763 13.4534 10.3169 13.2346C10.192 12.7854 10.0285 12.2653 9.73418 11.7849L9.76094 11.7934C9.80256 11.8105 9.84418 11.8247 9.88877 11.8418L9.99283 11.8787C10.2069 11.9583 10.4269 12.0379 10.6528 12.0947C11.075 12.1971 11.4912 12.1885 11.955 12.1658C12.2375 12.1544 12.4842 12.0578 12.6894 11.8787C12.7607 11.819 12.7785 11.7508 12.7429 11.6655C12.7161 11.6001 12.6715 11.5518 12.6239 11.5063L12.6002 11.4779C12.5258 11.4012 12.4545 11.3244 12.3802 11.2477C12.2315 11.0942 12.0769 10.9378 11.9431 10.7701C11.9045 10.719 11.8629 10.6707 11.8242 10.6195C11.6607 10.412 11.4912 10.1988 11.295 10.0084C11.2415 9.9572 11.1969 9.89751 11.1493 9.83497L11.1137 9.78949C11.1137 9.78949 11.1107 9.78381 11.1077 9.78381H11.1137C11.3901 9.81223 11.6666 9.80086 11.955 9.74685C12.401 9.66727 12.8439 9.60189 13.275 9.5422C13.385 9.52514 13.4921 9.51093 13.6021 9.49672C13.831 9.46545 14.0688 9.43418 14.3007 9.3887C14.4078 9.36881 14.5059 9.32901 14.604 9.28638C14.8002 9.19826 14.9667 9.13288 15.1332 9.08456C15.3294 9.02203 15.5791 8.92538 15.7575 8.71504C15.9745 8.46206 16.0459 8.21193 15.9716 7.94758ZM10.5518 5.85837L10.6142 5.83847C10.7182 5.80152 10.8193 5.76741 10.9204 5.7333C11.1701 5.65087 11.4318 5.56275 11.6815 5.46042C11.732 5.43768 11.7796 5.43768 11.8153 5.46042C11.8599 5.48885 11.8866 5.55422 11.8866 5.63381C11.8866 5.70203 11.8331 5.7873 11.7975 5.84415C11.6369 6.1085 11.4466 6.41549 11.2296 6.69689C11.1315 6.83049 10.9947 6.9186 10.8223 6.96124C10.7628 6.9783 10.7034 6.99251 10.6439 7.00672C10.4596 7.04936 10.2723 7.09199 10.0969 7.17727C9.80553 7.32223 9.59445 7.47004 9.43093 7.64627L9.41607 7.66333L9.38931 7.68891C9.30904 7.7685 9.30904 7.77134 9.22877 7.70312C9.00877 7.52689 8.81849 7.42456 8.6193 7.37056C8.62227 7.36771 8.62525 7.36771 8.62822 7.36487C8.69065 7.31939 8.75011 7.27391 8.81254 7.22843L8.93147 7.14316C9.04147 7.06073 9.1366 6.96124 9.22579 6.8646C9.28228 6.80491 9.34174 6.74521 9.4012 6.68836C9.43688 6.6571 9.47553 6.62867 9.51418 6.60025C9.59445 6.54056 9.67472 6.48086 9.72526 6.39559C9.90662 6.08008 10.2218 5.97206 10.5518 5.85837ZM6.3063 8.13518C6.41927 8.14655 6.50549 8.20624 6.54116 8.29436C6.57386 8.37963 6.55008 8.47059 6.47873 8.54449C6.27062 8.76052 6.02683 8.90264 5.75331 8.96802C5.70277 8.98223 5.64926 8.98223 5.5898 8.98507C5.56304 8.98507 5.53331 8.98507 5.50953 8.98792C5.38169 8.98792 5.21222 8.97655 5.05466 8.89127C4.78411 8.74062 4.73357 8.34552 4.8733 8.10391C4.94763 7.97316 5.04276 7.88788 5.16763 7.8424C5.30439 7.79408 5.45304 7.76282 5.61061 7.75145H5.63439C5.72953 7.75145 5.8098 7.79124 5.85737 7.86799C5.95548 8.02432 6.09818 8.1096 6.3063 8.13518ZM6.21413 6.92713C6.29737 6.85891 6.37467 6.81628 6.45197 6.78501L6.50251 6.76227C6.50251 6.76227 6.61252 6.70258 6.79387 6.70258C6.80576 6.70258 6.81765 6.70542 6.82954 6.70542C6.91279 6.71679 6.99603 6.71963 7.0763 6.72247C7.13874 6.72247 7.20414 6.72247 7.26658 6.731C7.30523 6.73669 7.33496 6.73953 7.34982 6.74237C7.34982 6.74237 7.35874 6.74806 7.36469 6.74806C7.38847 6.75374 7.46874 6.77932 7.56685 6.8646C7.67982 6.96408 7.69469 7.00104 7.70956 7.04083C7.70956 7.04651 7.71253 7.0522 7.7155 7.05504C7.80172 7.15737 7.7928 7.25117 7.6828 7.38193C7.5282 7.561 7.32604 7.67186 7.11198 7.7884L7.09414 7.79977C6.91576 7.83956 6.77306 7.82819 6.76711 7.82819C6.57089 7.83388 6.41332 7.79693 6.27359 7.72018C6.15467 7.65764 6.06251 7.49562 6.04764 7.32508C6.03872 7.23128 6.05061 7.05504 6.21413 6.92713ZM6.73143 8.62977C6.80873 8.47912 6.83252 8.34552 6.80873 8.20908C6.80576 8.19487 6.80576 8.18919 6.80279 8.18634H6.82954C6.84738 8.18634 6.86819 8.18919 6.88603 8.1835C7.00198 8.1835 7.01982 8.19487 7.05252 8.29151C7.0763 8.35689 7.09414 8.42511 7.10901 8.49333L7.12387 8.55586C7.12982 8.57292 7.12685 8.58713 7.10009 8.5985L7.07333 8.60987C7.02577 8.63261 6.97819 8.65535 6.93063 8.66672C6.779 8.70367 6.65116 8.78042 6.53521 8.89696L6.52035 8.91117C6.48468 8.94812 6.45197 8.98223 6.40738 8.99929C6.55305 8.89696 6.66305 8.77189 6.73143 8.62977ZM6.64224 9.37733C6.72251 9.13288 6.87414 8.98223 7.10603 8.92254C7.13279 8.91401 7.15658 8.8998 7.17441 8.88843C7.18333 8.8799 7.20117 8.86853 7.20712 8.86853C7.22793 8.8799 7.24577 8.90549 7.26361 8.92823C7.2755 8.94244 7.28441 8.95381 7.29333 8.96518C7.40928 9.10162 7.56091 9.16984 7.74226 9.16984H7.75118C7.9147 9.16984 8.07524 9.15847 8.19713 9.1471C8.34281 9.13857 8.41416 9.17552 8.4647 9.29206C8.50335 9.38302 8.47362 9.47398 8.37849 9.55357C8.29821 9.6161 8.20902 9.69569 8.13173 9.79518C8.07227 9.87477 7.98307 9.90319 7.89388 9.92309C7.88794 9.92309 7.88496 9.92593 7.88199 9.92593L7.59658 10.0055C7.57874 10.014 7.54901 10.0197 7.50739 10.0311H7.4955C7.25469 10.0965 7.05549 10.0709 6.86225 9.95151C6.64224 9.81792 6.56792 9.61894 6.64224 9.37733ZM7.59955 8.76052C7.45982 8.6923 7.42117 8.43932 7.40631 8.34268V8.31141C7.38847 8.23182 7.33793 8.06412 7.33496 8.06127C7.33496 8.05559 7.33496 8.05275 7.33496 8.0499C7.3409 8.03569 7.37361 8.01295 7.38847 8.00158L7.40631 7.98453C7.54604 7.8623 7.71848 7.73723 7.95037 7.70597C8.03064 7.6946 8.10794 7.66617 8.17929 7.64059C8.21497 7.62638 8.25064 7.61501 8.28632 7.60364C8.34578 7.58374 8.39632 7.58374 8.43795 7.59795C8.65795 7.67754 8.90471 7.78556 9.09201 7.98737C9.16039 8.06127 9.19309 8.13802 9.18714 8.21192C9.1812 8.28867 9.1366 8.35973 9.05336 8.42795C9.02065 8.45353 8.98498 8.47912 8.95228 8.50186C8.92255 8.5246 8.89579 8.54734 8.86606 8.57008C8.75309 8.65535 8.63416 8.70936 8.50929 8.72925C8.03064 8.80884 7.72442 8.82021 7.60253 8.76052H7.59955ZM8.64308 9.52514C8.652 9.48819 8.66687 9.4484 8.68768 9.41144C8.72335 9.35175 8.762 9.27501 8.762 9.1812C8.762 9.13573 8.75308 9.0874 8.7293 9.03624C8.80957 8.97939 8.88687 8.92538 8.96417 8.86569C8.99687 8.84295 9.03255 8.83442 9.06822 8.84579C9.12174 8.85716 9.16039 8.89127 9.17822 8.94528C9.17822 8.94528 9.20795 8.99929 9.21093 9.09593C9.21093 9.19257 9.18417 9.26648 9.13066 9.31196C9.12471 9.3148 9.12174 9.31764 9.11579 9.32049C9.11579 9.32049 9.10687 9.32901 9.10093 9.33185C9.06822 9.3546 9.03552 9.38018 9.00282 9.40292C8.91957 9.46829 8.83633 9.52799 8.73525 9.54788L8.67281 9.55641C8.64903 9.56209 8.64308 9.55357 8.64308 9.55357C8.64308 9.55357 8.63714 9.54788 8.64308 9.52514ZM7.94442 4.23816C7.94442 4.23816 7.95929 4.22679 7.96226 4.22111L8.26848 3.85727L8.322 3.80611L8.72633 3.43374C8.80957 3.34563 8.89876 3.2632 8.98795 3.18361C9.08606 3.09833 9.18417 3.00737 9.27336 2.91073C9.38634 2.7885 9.50229 2.66912 9.61823 2.55258C9.6658 2.50426 9.71337 2.45309 9.76094 2.40477C9.87391 2.28823 9.9631 2.16316 10.0315 2.03525C10.1028 1.89881 10.3318 1.7709 10.4953 1.77943C10.5191 1.78227 10.5339 1.7908 10.5518 1.81922C10.6499 1.96419 10.6974 2.10347 10.6974 2.24844C10.6974 2.34792 10.6766 2.44172 10.635 2.52984C10.4536 2.93631 10.3199 3.36552 10.192 3.78052C10.1653 3.86296 10.1385 3.94539 10.1147 4.02782C9.91553 4.656 9.6658 5.39504 9.33282 6.09145C9.20201 6.37001 9.07417 6.6173 8.86011 6.81628C8.78281 6.89018 8.69362 6.97261 8.59254 7.0323C8.45281 7.11189 8.31308 7.20854 8.17929 7.32223C8.11388 7.37624 8.03659 7.38761 7.95037 7.39898C7.95929 7.36771 7.97118 7.33929 7.98605 7.31086C8.09605 7.05504 8.04848 6.87881 7.82253 6.70542C7.67982 6.59741 7.52523 6.48655 7.32009 6.46381C7.26063 6.45528 7.21604 6.41265 7.17739 6.32453C7.08225 6.11134 7.05846 5.89247 7.10603 5.67929C7.20711 5.23302 7.42415 4.82655 7.74523 4.47124C7.7928 4.42292 7.83442 4.36891 7.86713 4.31491C7.88794 4.2808 7.91469 4.25237 7.94442 4.23816ZM6.27359 4.3547C6.27359 4.28648 6.27953 4.21826 6.27953 4.15004C6.28548 4.11309 6.31224 3.93402 6.34197 3.772L6.35684 3.68388C6.41332 3.38542 6.46981 3.10402 6.669 2.86809C6.79387 2.72029 6.94549 2.60374 7.1209 2.52416C7.17739 2.49573 7.26658 2.47583 7.37361 2.59522C7.44793 2.68049 7.51037 2.77998 7.55496 2.89652C7.63226 3.09549 7.70658 3.29446 7.78091 3.49628L7.84334 3.66967C7.88199 3.76631 7.86712 3.83453 7.79874 3.90559C7.59361 4.12446 7.33793 4.39734 7.15063 4.70148C6.90982 5.09658 6.77603 5.44052 6.73143 5.78162C6.69873 6.02607 6.73441 6.25347 6.84143 6.4496C6.84441 6.45813 6.85036 6.46665 6.85036 6.47234H6.83252C6.79089 6.46949 6.75224 6.47518 6.70765 6.47802C6.68981 6.48087 6.67197 6.48086 6.64224 6.48655C6.62143 6.48939 6.61549 6.48939 6.61549 6.48939C6.61549 6.48939 6.60954 6.47802 6.60954 6.44676C6.60954 6.21367 6.56792 5.98628 6.4817 5.75035C6.35684 5.4121 6.30927 5.05395 6.27656 4.74696C6.26467 4.61905 6.27062 4.48261 6.27656 4.3547H6.27359ZM1.01433 6.39559C0.922168 6.31884 0.835949 6.22789 0.761623 6.12556C0.720001 6.07439 0.705138 6.03176 0.71703 5.99765C0.725949 5.96354 0.7646 5.93227 0.830006 5.90384C1.10055 5.79867 1.3919 5.73898 1.7011 5.7333C1.72191 5.7333 1.73975 5.73045 1.75758 5.73045C2.08164 5.73045 2.42354 5.79867 2.81895 5.93511C2.88435 5.95785 2.94679 5.98059 3.00922 6.00049C3.17868 6.05734 3.35409 6.11419 3.51761 6.19662C3.73761 6.30179 3.9368 6.44675 4.12708 6.58604C4.1687 6.6173 4.20735 6.64573 4.24897 6.67415C4.28762 6.70258 4.32924 6.73384 4.36789 6.76227C4.45113 6.8248 4.53735 6.88734 4.62654 6.94419C4.79897 7.05788 4.9833 7.11758 5.17952 7.12326H5.2925C5.37574 7.12895 5.46196 7.12895 5.54818 7.12895C5.59872 7.12895 5.64331 7.10621 5.66412 7.06925C5.68493 7.03515 5.68196 6.98682 5.65223 6.94134C5.60763 6.87028 5.53926 6.82765 5.45898 6.8248C5.00114 6.79922 4.69789 6.53203 4.43627 6.24778C4.24302 6.04028 4.10032 5.79583 3.96059 5.55706L3.9368 5.51727C3.75842 5.21313 3.55626 4.91182 3.36301 4.62189C3.30355 4.53378 3.24409 4.44566 3.18463 4.3547C3.10436 4.23248 3.04192 4.11025 3.0003 3.99087C2.91111 3.72368 2.78922 3.46501 2.6703 3.21772C2.6257 3.12676 2.58111 3.03296 2.53949 2.942C2.46516 2.77998 2.40273 2.61227 2.34327 2.44741L2.28975 2.29392C2.22435 2.12053 2.18272 1.94714 2.13813 1.75101C2.08759 1.53782 2.06678 1.31042 2.07272 1.0546C2.07272 1.00344 2.08164 0.960801 2.09948 0.921006C2.11732 0.878369 2.13218 0.869842 2.1411 0.867C2.14705 0.867 2.16191 0.867 2.20056 0.889739C2.30759 0.955116 2.41165 1.03755 2.50976 1.11429C2.54543 1.14272 2.58111 1.17114 2.61381 1.19957C3.24409 1.69131 3.70491 2.0921 4.10329 2.5071C4.44221 2.85388 4.77816 3.2433 5.1706 3.72936C5.60169 4.26943 5.84548 4.87772 6.0298 5.40357C6.05359 5.47179 6.07737 5.54001 6.10413 5.60539C6.16953 5.77593 6.23792 5.95217 6.26467 6.13408C6.27657 6.22504 6.28846 6.32169 6.28251 6.42117C6.27359 6.57751 6.19926 6.69121 6.06548 6.75658C5.75926 6.91008 5.74142 7.18011 5.75629 7.36771V7.38477C5.75926 7.41319 5.76223 7.44162 5.75926 7.4473C5.75331 7.45299 5.71466 7.46151 5.68493 7.46436C5.35195 7.52121 5.09033 7.60932 4.86438 7.74576C4.81087 7.77419 4.77519 7.8083 4.74546 7.84809C4.68303 7.93905 4.58789 7.98737 4.45708 7.99306C4.21627 8.00443 3.99924 7.98453 3.79707 7.92768C3.71085 7.9021 3.62761 7.87936 3.54139 7.85662C3.36301 7.80829 3.17868 7.75713 3.0003 7.70028C2.69111 7.59795 2.38489 7.43025 2.05786 7.18864L1.87353 7.05504C1.58812 6.8447 1.29082 6.62583 1.01433 6.39559ZM2.18867 9.00213C1.93002 8.99644 1.73677 8.84864 1.57623 8.7122C1.57623 8.7122 1.57028 8.70651 1.56731 8.70651C1.48109 8.62124 1.24325 8.52175 1.05298 8.44785C1.05001 8.44785 1.04406 8.44501 1.04109 8.44501C0.963789 8.42795 0.889465 8.40521 0.81514 8.3711C0.708111 8.31994 0.58919 8.27162 0.452432 8.22329C0.41081 8.20908 0.384053 8.19203 0.378106 8.17497C0.369187 8.15792 0.378104 8.12665 0.398915 8.08686C0.479187 7.93336 0.612974 7.81398 0.832977 7.70028C0.96379 7.6349 1.11244 7.59795 1.24325 7.59795H1.27893C1.43353 7.59795 1.53758 7.61785 1.62677 7.66901C1.80218 7.76566 1.99542 7.80545 2.18272 7.83956L2.23921 7.85093C2.37894 7.87936 2.51273 7.93621 2.64057 7.99021C2.67922 8.00727 2.72084 8.02432 2.75949 8.03853C3.24409 8.23751 3.76734 8.34836 4.31437 8.3711H4.34113C4.34113 8.3711 4.36194 8.3711 4.36789 8.37395C4.39167 8.37963 4.41546 8.37679 4.43924 8.37395C4.48087 8.3711 4.48384 8.37395 4.48978 8.391C4.51951 8.4649 4.48978 8.56439 4.43627 8.60703C4.37681 8.65251 4.30248 8.66103 4.22221 8.66956H4.19843C4.03491 8.6923 3.89815 8.72641 3.77626 8.77189C3.60977 8.83727 3.44328 8.8998 3.27679 8.96234C3.14598 9.01066 3.01814 9.06182 2.88733 9.11014C2.8576 9.12151 2.84273 9.12436 2.82787 9.11867C2.61976 9.02771 2.39678 9.00781 2.18867 9.00213ZM3.34517 11.1311C2.89625 11.4921 2.5157 11.9185 2.20056 12.2852C2.00137 12.5239 1.7784 12.7428 1.56731 12.9418C1.4038 13.0953 1.27596 13.2488 1.18082 13.4079C1.12433 13.4989 1.05298 13.5387 0.951896 13.5273C0.675406 13.5017 0.612973 13.4733 0.553513 13.2232C0.517837 13.064 0.508917 12.902 0.505944 12.7087C0.494052 12.4529 0.58919 12.1686 0.675408 11.9498C0.901357 11.3585 1.29677 10.8128 1.8765 10.2756C2.36408 9.82644 2.85165 9.5024 3.36896 9.27785C3.71383 9.13004 4.01113 9.05329 4.30248 9.03624C4.33221 9.03624 4.36789 9.03624 4.40059 9.01918C4.43032 9.00497 4.45708 8.99929 4.48681 8.99929C4.5433 8.99929 4.59978 9.02771 4.67411 9.09309C4.71276 9.1272 4.75735 9.16415 4.75735 9.17836C4.75735 9.19257 4.70979 9.23805 4.67411 9.26932C4.5433 9.39155 4.4333 9.52799 4.35005 9.67295C4.17762 9.97425 4.20735 10.196 4.45113 10.4376C4.466 10.4518 4.46897 10.4575 4.47195 10.4603C4.46897 10.4603 4.466 10.466 4.45113 10.4774C4.41248 10.5029 4.36789 10.5257 4.3114 10.5456C3.93086 10.6792 3.61274 10.918 3.34517 11.1311ZM4.93574 14.039C4.88817 14.093 4.84357 14.1527 4.80195 14.2095C4.78114 14.2379 4.76033 14.2664 4.73655 14.2948C4.52546 14.5648 4.30546 14.8093 4.07951 15.0282C4.04978 15.0566 4.0141 15.085 3.96951 15.1163C3.88626 15.1703 3.8595 15.1674 3.80004 15.0907C3.72274 14.994 3.67518 14.8775 3.65437 14.7354C3.62761 14.5705 3.62166 14.4 3.61274 14.2351C3.6068 14.1157 3.60085 13.9963 3.58896 13.877C3.56815 13.5956 3.57707 13.3056 3.61572 13.0128C3.62761 12.9134 3.6395 12.8139 3.65139 12.7115C3.6841 12.4074 3.71977 12.0919 3.80896 11.7906C3.89815 11.495 4.00815 11.2733 4.16275 11.0942C4.2341 11.0061 4.3114 10.9521 4.40059 10.9236C4.57005 10.8725 4.69789 10.7701 4.81681 10.6707C4.86735 10.6252 4.91195 10.6053 4.95952 10.6053C4.97439 10.6053 4.98925 10.6081 5.00709 10.6138C5.05465 10.6252 5.0606 10.6451 5.05466 10.6763C5.05168 10.6934 5.04871 10.7105 5.04574 10.7275C5.04276 10.7559 5.03682 10.7844 5.0279 10.8128C4.95655 11.0515 4.92979 11.2932 4.91195 11.5831C4.89411 11.9014 4.8852 12.1629 4.8852 12.4074C4.88817 12.7826 4.94168 13.1379 5.04276 13.4648C5.11709 13.6979 5.08439 13.8741 4.93574 14.039ZM5.15574 10.2329C4.98033 10.1619 4.80789 10.088 4.63546 10.0169C4.56113 9.98846 4.54033 9.9572 4.54033 9.94867C4.55519 9.69569 4.81681 9.37165 5.09033 9.36596L5.27168 9.36028C5.38169 9.3546 5.48872 9.35175 5.59575 9.34891C5.66115 9.34607 5.7325 9.35175 5.79196 9.38018C5.83656 9.40007 5.87521 9.40576 5.91088 9.39155C5.95251 9.37733 5.98223 9.34607 6.00602 9.29206L6.01494 9.26932C6.02386 9.24658 6.03278 9.221 6.04467 9.19826C6.04764 9.18973 6.05061 9.18973 6.05359 9.19257C6.05359 9.25227 6.06548 9.29775 6.09818 9.32901C6.12791 9.36312 6.17548 9.37733 6.23791 9.37449C6.19332 9.55925 6.25575 9.72696 6.31224 9.87761C6.32413 9.90888 6.33305 9.94583 6.339 9.97994L6.34494 10.0112L6.34792 10.0226C6.34494 10.0254 6.34197 10.0283 6.339 10.0311C6.27062 10.1249 6.05656 10.1988 5.89602 10.2329C5.89305 10.2329 5.8871 10.2358 5.88115 10.2358C5.82467 10.2585 5.75629 10.2699 5.65818 10.2699C5.34006 10.3153 5.26277 10.2756 5.25979 10.2756C5.25385 10.267 5.24493 10.2613 5.23304 10.2585C5.21817 10.2557 5.19439 10.2471 5.15574 10.2329ZM6.44603 12.6092C6.25873 13.0669 5.99116 13.4733 5.64629 13.8173C5.64331 13.8173 5.63737 13.8258 5.63737 13.8258C5.62548 13.8343 5.61656 13.8457 5.60466 13.8542C5.59277 13.8684 5.56601 13.8912 5.56007 13.894C5.5452 13.8855 5.53628 13.8741 5.53034 13.8599C5.53034 13.8514 5.53034 13.8542 5.52439 13.8485C5.4679 13.7348 5.39655 13.4392 5.37277 13.3483C5.27763 12.9674 5.23304 12.5808 5.24493 12.1999C5.2479 12.1061 5.2479 12.0123 5.2479 11.9185C5.2479 11.765 5.2479 11.6087 5.25979 11.4552C5.2806 11.1965 5.35196 10.9435 5.41439 10.7531C5.44412 10.665 5.47979 10.6451 5.61061 10.6451H5.65223C5.71466 10.6508 5.78304 10.6536 5.79196 10.6621C5.79791 10.6707 5.79494 10.7133 5.79494 10.7502C5.79196 10.7701 5.79196 10.7929 5.79196 10.8156C5.78007 11.2278 5.94359 11.5888 6.11602 11.927C6.119 11.9356 6.12494 11.9469 6.13088 11.9554C6.14575 11.9753 6.15764 11.9952 6.16359 12.018C6.19332 12.1146 6.26467 12.1743 6.32116 12.2141C6.47873 12.325 6.51441 12.4387 6.44603 12.6092ZM6.94252 11.5319L6.91576 11.5888C6.85333 11.7252 6.78792 11.8645 6.68981 11.9839C6.66305 12.018 6.63035 12.035 6.60062 12.035H6.59468C6.56495 12.0322 6.53819 12.0123 6.52035 11.9782C6.35684 11.6684 6.18738 11.3472 6.11602 10.9919C6.06548 10.7275 6.12197 10.5456 6.30332 10.4063C6.33602 10.3807 6.36575 10.3551 6.39548 10.3296C6.42224 10.304 6.44602 10.2812 6.47575 10.2585C6.49954 10.2414 6.52035 10.2329 6.54413 10.2329C6.56494 10.2329 6.58873 10.2414 6.60954 10.2613C6.68981 10.3324 6.779 10.375 6.89495 10.3949C7.00793 10.4148 7.07333 10.4887 7.09117 10.6166C7.09712 10.6678 7.10306 10.7247 7.10603 10.7787C7.10901 10.8071 7.11198 10.8384 7.11198 10.8639C7.12387 11.1141 7.03468 11.3415 6.94252 11.5319ZM10.2009 14.1157L10.2128 14.1669C10.2515 14.3261 10.2872 14.4739 10.305 14.6188C10.305 14.6871 10.2842 14.7382 10.2455 14.7666C10.2099 14.7894 10.1623 14.7922 10.1058 14.7752C9.93635 14.7212 9.75796 14.6615 9.53796 14.5847C9.43093 14.5478 9.33282 14.4881 9.2139 14.3914C9.10687 14.3005 8.9939 14.2152 8.8839 14.1299C8.66389 13.9622 8.43795 13.786 8.24767 13.5785C7.89983 13.1919 7.59361 12.8366 7.35577 12.4216C7.29631 12.3136 7.26063 12.1971 7.22198 12.0748C7.20117 11.9981 7.17739 11.9185 7.14468 11.8446C7.13576 11.8133 7.1536 11.7764 7.1655 11.7593C7.37063 11.4353 7.44793 11.0629 7.41523 10.557C7.40631 10.4205 7.42415 10.3978 7.56983 10.3665C7.62334 10.3523 7.67983 10.3438 7.73631 10.3324C7.77794 10.3267 7.82253 10.3182 7.86415 10.3097C7.96523 10.2898 8.05145 10.2414 8.13767 10.1931L8.17335 10.1761C8.17335 10.1761 8.18524 10.1675 8.18821 10.1675C8.18821 10.1675 8.18821 10.1694 8.18821 10.1732C8.25362 10.4347 8.41416 10.6451 8.57173 10.8469L8.59552 10.881C8.68173 10.989 8.762 11.0913 8.82741 11.205C8.85119 11.2448 8.87795 11.2846 8.92254 11.3102C9.1812 11.458 9.30607 11.6996 9.43688 11.9526C9.7431 12.5467 9.97797 13.2147 10.198 14.1157H10.2009ZM11.1612 10.3097C11.1612 10.3097 11.1612 10.3125 11.1672 10.3153C11.3218 10.4859 11.4645 10.6707 11.5983 10.8526L11.6845 10.9634C11.8926 11.242 12.0799 11.458 12.2672 11.6428C12.3058 11.6797 12.3177 11.6968 12.3177 11.6968C12.3118 11.7082 12.2583 11.7309 12.2404 11.7394C12.065 11.8247 11.8718 11.8446 11.6399 11.8474H11.622C10.8937 11.8474 10.2604 11.6996 9.68364 11.4012C9.46661 11.2875 9.21985 11.1596 9.02065 10.9748C8.95227 10.9094 8.90768 10.8298 8.85714 10.7474C8.82741 10.7019 8.80065 10.6536 8.76497 10.6081C8.70849 10.5314 8.65795 10.4518 8.60443 10.3722C8.5747 10.3267 8.54497 10.2841 8.51524 10.2386C8.47659 10.1846 8.44983 10.1192 8.43497 10.0453C8.41713 9.94583 8.44984 9.89182 8.54497 9.86055C8.59552 9.8435 8.64605 9.83497 8.69065 9.83497C8.86606 9.82644 9.03255 9.76675 9.21093 9.65021C9.21984 9.64453 9.22876 9.63884 9.23471 9.63316L9.26741 9.60189C9.28228 9.59052 9.33877 9.56209 9.52309 9.56209C9.57364 9.56209 9.63607 9.56494 9.71039 9.57062H9.72229C10.0404 9.57346 10.302 9.60189 10.5458 9.72127C10.6112 9.75254 10.6707 9.79518 10.7301 9.83781C10.7599 9.86055 10.7926 9.88329 10.8282 9.90887L10.8431 9.92593C11.0274 10.1476 11.1345 10.2784 11.1612 10.3097ZM15.5761 8.37679C15.4751 8.52744 15.3353 8.64398 15.1599 8.72073C14.5951 8.96234 14.0896 9.1272 13.611 9.22384C13.3702 9.27216 13.1204 9.30059 12.8707 9.30627C12.5318 9.31764 12.2077 9.38871 11.9075 9.46545C11.6458 9.53083 11.3842 9.50525 11.1612 9.47398C10.9145 9.44271 10.6707 9.38018 10.4328 9.32333C10.2961 9.28922 10.1623 9.25511 10.0255 9.22668C9.96905 9.21531 9.90959 9.20394 9.8531 9.19257C9.78769 9.17836 9.71931 9.16415 9.65391 9.14994C9.56769 9.13004 9.52607 9.08456 9.52309 9.00781C9.52012 8.87706 9.49634 8.6923 9.31201 8.56439C9.30904 8.56155 9.30012 8.55586 9.30012 8.55018C9.29714 8.54449 9.30309 8.53312 9.31201 8.5246C9.42499 8.39668 9.4458 8.23751 9.45174 8.10107C9.45174 8.01011 9.49039 7.94758 9.57066 7.89357C9.62715 7.85662 9.68066 7.81682 9.73715 7.77703C9.81445 7.71734 9.89472 7.65764 9.97499 7.60932C10.2991 7.41888 10.6647 7.33076 10.9828 7.26823C11.1642 7.23128 11.3455 7.21422 11.5239 7.21138C11.7112 7.23128 11.9015 7.2398 12.0858 7.24549C12.4426 7.2597 12.8112 7.27391 13.1591 7.38193C13.3434 7.43593 13.5307 7.4473 13.7121 7.45583C13.7953 7.46151 13.8815 7.46436 13.9648 7.47288C14.1402 7.49278 14.3186 7.52973 14.488 7.56384C14.5564 7.57806 14.6248 7.59227 14.6902 7.60364C14.714 7.60932 14.7378 7.61785 14.7556 7.63206C14.9607 7.77419 15.1837 7.84809 15.4186 7.92199C15.5345 7.95895 15.6118 8.01579 15.6416 8.09254C15.6713 8.17213 15.6475 8.26877 15.5761 8.37679Z" fill="#282828"/>
<path d="M11.8709 5.6255C11.8679 5.69372 11.8203 5.779 11.7846 5.83585C11.6211 6.1002 11.4309 6.40718 11.2138 6.68858C11.1157 6.82218 10.979 6.9103 10.8065 6.95293C10.7471 6.96999 10.6876 6.9842 10.6281 6.99841C10.4468 7.04105 10.2565 7.08369 10.0811 7.16896C9.79272 7.31393 9.57866 7.46174 9.41515 7.63797L9.40028 7.65502C9.40028 7.65502 9.38542 7.67208 9.37353 7.6806C9.29325 7.76019 9.29326 7.76304 9.21298 7.69482C8.99298 7.51858 8.80271 7.41626 8.60352 7.36225C8.60352 7.35941 8.60946 7.35941 8.61243 7.35656C8.67487 7.31108 8.7373 7.2656 8.79676 7.22013L8.91568 7.13485C9.02866 7.05242 9.12082 6.95293 9.21298 6.85629C9.2665 6.7966 9.32596 6.73691 9.38542 6.68006C9.4211 6.64879 9.45974 6.62037 9.49839 6.59194C9.57866 6.53225 9.66191 6.47256 9.70948 6.38728C9.89083 6.07177 10.206 5.96376 10.5389 5.85006L10.6014 5.83016C10.7025 5.79321 10.8035 5.7591 10.9046 5.72499C11.1573 5.64256 11.416 5.55444 11.6657 5.45211C11.7163 5.42937 11.7638 5.42937 11.7995 5.45211C11.8441 5.48054 11.8709 5.54591 11.8709 5.6255Z" fill="#EFEDE4"/>
<path d="M15.5642 8.36756C15.4601 8.51821 15.3204 8.63475 15.145 8.7115C14.5831 8.95311 14.0747 9.11797 13.596 9.21461C13.3552 9.26293 13.1055 9.29136 12.8557 9.29704C12.5168 9.30841 12.1928 9.37948 11.8925 9.45622C11.6309 9.5216 11.3692 9.49602 11.1463 9.46475C10.8995 9.43348 10.6557 9.37095 10.4179 9.3141C10.2811 9.27999 10.1473 9.24588 10.0106 9.21746C9.95409 9.20609 9.8976 9.19472 9.83814 9.18335C9.77273 9.16913 9.70435 9.15492 9.63895 9.14071C9.55273 9.12081 9.51111 9.07533 9.50813 8.99859C9.50516 8.86783 9.48138 8.68307 9.29705 8.55516C9.29705 8.55232 9.28516 8.54663 9.28516 8.54095C9.28516 8.53526 9.28813 8.52389 9.29705 8.51537C9.413 8.38746 9.43084 8.22828 9.43678 8.09184C9.43976 8.00088 9.4784 7.93835 9.5557 7.88434C9.61219 7.84739 9.66868 7.80759 9.72219 7.7678C9.79949 7.70811 9.87976 7.64842 9.963 7.60009C10.2841 7.40965 10.6527 7.32153 10.9679 7.259C11.1492 7.22205 11.3336 7.20499 11.509 7.20215C11.6963 7.22205 11.8865 7.23057 12.0709 7.23626C12.4276 7.25047 12.7963 7.26468 13.1441 7.3727C13.3314 7.4267 13.5158 7.43807 13.6971 7.4466C13.7804 7.45229 13.8666 7.45513 13.9498 7.46366C14.1252 7.48355 14.3036 7.5205 14.4731 7.55461C14.5414 7.56883 14.6098 7.58304 14.6752 7.59441C14.699 7.60009 14.7228 7.60862 14.7406 7.62283C14.9458 7.76496 15.1717 7.83886 15.4036 7.91276C15.5196 7.94972 15.5969 8.00657 15.6266 8.08331C15.6563 8.1629 15.6355 8.25955 15.5642 8.36756Z" fill="white"/>
<path d="M12.3054 11.6884C12.3054 11.6884 12.243 11.7225 12.2251 11.731C12.0497 11.8163 11.8565 11.8362 11.6246 11.8391H11.6067C10.8784 11.8391 10.2451 11.6912 9.66834 11.3928C9.45131 11.2791 9.20455 11.1512 9.00536 10.9664C8.93698 10.901 8.89238 10.8214 8.84184 10.739C8.81508 10.6935 8.78535 10.6452 8.75265 10.5997C8.69616 10.523 8.64264 10.4434 8.58913 10.3638C8.5594 10.3183 8.52967 10.2757 8.49994 10.2302C8.46129 10.1762 8.43453 10.1108 8.42264 10.0369C8.4048 9.93744 8.43751 9.88344 8.52967 9.85217C8.58021 9.83512 8.63076 9.82659 8.67535 9.82659C8.85076 9.81806 9.01725 9.75837 9.19563 9.64183C9.20752 9.63614 9.21346 9.63046 9.21941 9.62477L9.22833 9.61624L9.25211 9.59351C9.25211 9.59351 9.32346 9.55371 9.50779 9.55371C9.55833 9.55371 9.62077 9.55655 9.69509 9.56224H9.70698C10.0251 9.56508 10.2867 9.59351 10.5335 9.71289C10.5989 9.74416 10.6554 9.78679 10.7148 9.82943C10.7475 9.85217 10.7773 9.87491 10.8129 9.90049L10.8278 9.91755C11.0121 10.1393 11.1192 10.27 11.1459 10.3013C11.1489 10.3013 11.1489 10.3041 11.1519 10.307C11.3065 10.4775 11.4492 10.6623 11.583 10.8442L11.6692 10.955C11.8773 11.2336 12.0646 11.4496 12.2519 11.6344C12.2905 11.6713 12.3024 11.6884 12.3054 11.6884Z" fill="#F4F4F4"/>
<path d="M10.2902 14.6105C10.2902 14.6787 10.2694 14.7299 10.2307 14.7583C10.195 14.781 10.1475 14.7839 10.091 14.7668C9.92151 14.7128 9.74313 14.6531 9.52313 14.5764C9.4161 14.5394 9.31799 14.4797 9.19907 14.3831C9.09204 14.2921 8.97907 14.2068 8.87204 14.1216C8.64906 13.9539 8.42312 13.7776 8.23284 13.5701C7.885 13.1836 7.57878 12.8283 7.34094 12.4133C7.28148 12.3052 7.2458 12.1887 7.21012 12.0665C7.18634 11.9897 7.16256 11.9101 7.13283 11.8362C7.12094 11.805 7.13877 11.768 7.15067 11.751C7.35878 11.4269 7.43607 11.0546 7.4004 10.5486C7.39148 10.4122 7.40932 10.3894 7.555 10.3582C7.60851 10.3439 7.665 10.3354 7.72148 10.324C7.76311 10.3184 7.8077 10.3098 7.84932 10.3013C7.9504 10.2814 8.0396 10.2331 8.12284 10.1848L8.15852 10.1677C8.15852 10.1677 8.17041 10.1592 8.17338 10.1592C8.17338 10.162 8.17635 10.162 8.17635 10.1649C8.24176 10.4264 8.40231 10.6367 8.55988 10.8385L8.58366 10.8726C8.66987 10.9807 8.75014 11.083 8.81555 11.1967C8.83933 11.2365 8.86609 11.2763 8.91069 11.3019C9.16934 11.4497 9.29421 11.6913 9.42502 11.9442C9.73421 12.5383 9.96611 13.2063 10.1861 14.1074L10.198 14.1585C10.2367 14.3177 10.2723 14.4655 10.2902 14.6105Z" fill="#F4F4F4"/>
<path d="M7.09926 10.8551C7.10818 11.1053 7.01899 11.3327 6.92683 11.5231L6.90007 11.58C6.83764 11.7164 6.77223 11.8557 6.67412 11.9751C6.65034 12.0092 6.61763 12.0262 6.58493 12.0262H6.57899C6.54925 12.0234 6.5225 12.0035 6.50466 11.9694C6.34114 11.6596 6.17168 11.3384 6.1033 10.9831C6.04979 10.7187 6.10627 10.5368 6.28763 10.3975C6.32033 10.3719 6.35006 10.3463 6.37979 10.3208C6.40655 10.2952 6.4333 10.2724 6.46006 10.2497C6.48385 10.2326 6.50763 10.2241 6.52844 10.2241C6.55223 10.2241 6.57304 10.2326 6.59385 10.2525C6.67412 10.3236 6.76628 10.3662 6.87926 10.3861C6.99521 10.406 7.05764 10.4799 7.07548 10.6079C7.0844 10.659 7.08737 10.7159 7.09034 10.7699C7.09332 10.7983 7.09629 10.8296 7.09926 10.8551Z" fill="#EFEDE4"/>
<path d="M6.4315 12.6004C6.24717 13.058 5.97662 13.4645 5.63176 13.8084C5.62878 13.8084 5.62284 13.8169 5.62284 13.8169C5.61094 13.8255 5.60202 13.8368 5.5931 13.8454C5.57824 13.8596 5.55446 13.8823 5.54851 13.8852C5.53067 13.8766 5.52175 13.8653 5.51878 13.8511C5.51581 13.8425 5.51878 13.8454 5.51284 13.8397C5.45338 13.726 5.38202 13.4304 5.36121 13.3394C5.2631 12.9585 5.2185 12.5719 5.2304 12.1911C5.23337 12.0973 5.23337 12.0035 5.23337 11.9097C5.23337 11.7562 5.23337 11.5998 5.24526 11.4463C5.26607 11.1877 5.3404 10.9347 5.39986 10.7442C5.42959 10.6561 5.46527 10.6362 5.59608 10.6362H5.6377C5.70311 10.6419 5.76852 10.6448 5.77743 10.6533C5.78338 10.6618 5.78041 10.7044 5.78041 10.7414C5.77743 10.7613 5.77743 10.784 5.77743 10.8068C5.76554 11.2189 5.92906 11.5799 6.10149 11.9182C6.10744 11.9267 6.11338 11.9381 6.11933 11.9466C6.13122 11.9665 6.14312 11.9864 6.14906 12.0091C6.17879 12.1058 6.25014 12.1655 6.3096 12.2053C6.46717 12.3161 6.50285 12.4298 6.4315 12.6004Z" fill="white"/>
<path d="M4.92084 14.0304C4.87327 14.0844 4.82867 14.1441 4.78705 14.2009C4.76624 14.2293 4.74543 14.2578 4.72462 14.2862C4.51353 14.5562 4.29056 14.8007 4.06461 15.0196C4.03488 15.048 3.9992 15.0764 3.95461 15.1077C3.87433 15.1617 3.8446 15.1588 3.78514 15.0821C3.70784 14.9854 3.66028 14.8689 3.63947 14.7268C3.61568 14.5619 3.60676 14.3914 3.59785 14.2265C3.5919 14.1071 3.58595 13.9877 3.57406 13.8684C3.55622 13.587 3.56217 13.297 3.60082 13.0042C3.61271 12.9048 3.6246 12.8053 3.63649 12.7029C3.66919 12.3988 3.70487 12.0833 3.79406 11.782C3.88325 11.4864 3.99325 11.2647 4.14785 11.0856C4.2192 10.9975 4.2965 10.9435 4.38569 10.915C4.55515 10.8639 4.68299 10.7615 4.80191 10.6621C4.85245 10.6166 4.89705 10.5967 4.94462 10.5967C4.95949 10.5967 4.97732 10.5995 4.99219 10.6052C5.04273 10.6166 5.0457 10.6365 5.04273 10.6677C5.03678 10.6848 5.03381 10.7019 5.03084 10.7189C5.02786 10.7473 5.02192 10.7758 5.013 10.8042C4.94165 11.0429 4.91489 11.2846 4.89705 11.5745C4.87921 11.8928 4.87029 12.1543 4.87029 12.3988C4.87029 12.774 4.92678 13.1293 5.02786 13.4562C5.10219 13.6893 5.06949 13.8655 4.92084 14.0304Z" fill="#F4F4F4"/>
<path d="M4.33535 9.66439C4.16292 9.96569 4.19265 10.1874 4.43941 10.429C4.4513 10.4432 4.45428 10.4489 4.45725 10.4517C4.45428 10.4517 4.4513 10.4574 4.43644 10.4688C4.39779 10.4944 4.35319 10.5171 4.2967 10.537C3.91616 10.6706 3.59805 10.9094 3.33047 11.1226C2.88155 11.4836 2.501 11.9099 2.18884 12.2766C1.98667 12.5154 1.7637 12.7342 1.55261 12.9332C1.3891 13.0867 1.26423 13.2402 1.16612 13.3994C1.10963 13.4903 1.03828 13.5301 0.937198 13.5188C0.660708 13.4932 0.601249 13.4648 0.538815 13.2146C0.503139 13.0554 0.494219 12.8934 0.491246 12.7001C0.479354 12.4443 0.574493 12.1601 0.66071 11.9412C0.889632 11.35 1.28207 10.8042 1.86181 10.267C2.34938 9.81788 2.83695 9.49384 3.35426 9.26928C3.69913 9.12148 3.99643 9.04473 4.28778 9.02767C4.32049 9.02767 4.35319 9.02767 4.38589 9.01062C4.41562 8.99641 4.44238 8.99072 4.47211 8.99072C4.5286 8.99072 4.58509 9.01915 4.65941 9.08452C4.69806 9.11863 4.74266 9.15559 4.74563 9.1698C4.74563 9.18117 4.69509 9.22949 4.66239 9.26076C4.5286 9.38298 4.4186 9.51942 4.33535 9.66439Z" fill="white"/>
<path d="M4.42098 8.59843C4.36152 8.64391 4.28719 8.65244 4.20692 8.66096H4.18314C4.01963 8.6837 3.88286 8.71781 3.76097 8.76329C3.59448 8.82867 3.42799 8.8912 3.26151 8.95374C3.13367 9.00206 3.00285 9.05322 2.87204 9.10155C2.84528 9.11292 2.82745 9.11576 2.81258 9.11007C2.60744 9.01911 2.38447 8.99922 2.17338 8.99353C1.91473 8.98785 1.72148 8.84004 1.56391 8.7036C1.56094 8.7036 1.555 8.69792 1.55202 8.69792C1.46581 8.61264 1.22797 8.51316 1.03769 8.43925C1.03472 8.43925 1.02877 8.43641 1.0258 8.43641C0.951474 8.41935 0.874175 8.39661 0.802823 8.36251C0.692822 8.31134 0.573902 8.26302 0.437144 8.2147C0.395522 8.20048 0.368765 8.18343 0.362819 8.16638C0.353899 8.14932 0.362821 8.11805 0.383632 8.07826C0.463903 7.92477 0.597686 7.80538 0.817689 7.69168C0.948502 7.62631 1.09715 7.58936 1.22797 7.58936H1.26364C1.42121 7.58936 1.52229 7.60925 1.61148 7.66042C1.78689 7.75706 1.98014 7.79686 2.16744 7.83096L2.22392 7.84233C2.36365 7.87076 2.49744 7.92761 2.62528 7.98162C2.66393 7.99867 2.70555 8.01572 2.7442 8.02994C3.2288 8.22891 3.75205 8.33977 4.29909 8.36251H4.32584C4.32584 8.36251 4.34665 8.36251 4.3526 8.36535C4.37638 8.37103 4.40314 8.36819 4.42395 8.36535C4.46558 8.36251 4.46855 8.36535 4.47747 8.3824C4.50422 8.45631 4.47747 8.55579 4.42098 8.59843Z" fill="#EFEDE4"/>
<path d="M10.6816 2.23943C10.6816 2.33892 10.6608 2.43272 10.6221 2.52083C10.4378 2.92731 10.304 3.35652 10.1762 3.77152C10.1494 3.85395 10.1256 3.93638 10.0989 4.01881C9.89969 4.647 9.64996 5.38604 9.31995 6.08244C9.18617 6.361 9.05832 6.6083 8.84427 6.80727C8.76697 6.88117 8.67778 6.9636 8.5767 7.0233C8.43697 7.10288 8.29723 7.19953 8.16345 7.31323C8.09804 7.36723 8.02074 7.3786 7.93453 7.38997C7.94344 7.35871 7.95831 7.33028 7.9702 7.30186C8.0802 7.04603 8.03561 6.8698 7.80668 6.69641C7.66695 6.5884 7.50939 6.47754 7.30425 6.4548C7.24479 6.44628 7.20019 6.40364 7.16154 6.31552C7.0664 6.10234 7.04262 5.88347 7.09019 5.67028C7.19127 5.22402 7.4083 4.81754 7.73236 4.46224C7.77993 4.41391 7.81858 4.35991 7.85128 4.3059C7.87507 4.27179 7.90182 4.24337 7.93155 4.22915C7.9375 4.22347 7.94344 4.21778 7.94642 4.2121L8.25561 3.84826C8.27048 3.83121 8.28831 3.81415 8.30615 3.7971L8.71048 3.42474C8.79373 3.33662 8.88292 3.25419 8.97211 3.1746C9.07022 3.08933 9.16833 2.99837 9.25752 2.90172C9.37049 2.7795 9.48644 2.66011 9.60239 2.54357C9.64995 2.49525 9.69752 2.44409 9.74509 2.39577C9.85806 2.27922 9.94726 2.15416 10.0156 2.02624C10.087 1.88981 10.3159 1.7619 10.4824 1.77042C10.5062 1.77327 10.5181 1.78179 10.5359 1.81022C10.634 1.95518 10.6816 2.09446 10.6816 2.23943Z" fill="white"/>
<path d="M7.78325 3.89723C7.57811 4.1161 7.32243 4.38898 7.13513 4.69312C6.89431 5.08822 6.76053 5.43216 6.71593 5.77326C6.68323 6.01771 6.71891 6.24511 6.82594 6.44124C6.83188 6.44976 6.83485 6.45829 6.83485 6.46398H6.81702C6.7754 6.46113 6.73674 6.46682 6.69512 6.46966C6.67431 6.4725 6.65647 6.4725 6.62674 6.47819C6.60891 6.48103 6.59998 6.48103 6.59998 6.48103C6.59998 6.48103 6.59404 6.46966 6.59404 6.43839C6.59404 6.20531 6.55242 5.97792 6.4662 5.74199C6.34133 5.40374 6.29377 5.04559 6.26404 4.7386C6.25214 4.61069 6.25511 4.47425 6.26106 4.34634C6.26106 4.27812 6.26404 4.2099 6.26404 4.14168C6.26998 4.10473 6.29674 3.92566 6.32647 3.76364L6.34133 3.67552C6.40079 3.37706 6.45431 3.09566 6.6535 2.85973C6.77837 2.71192 6.92999 2.59538 7.1054 2.51579C7.16188 2.48737 7.25107 2.46747 7.3581 2.58686C7.43243 2.67213 7.49486 2.77162 7.53946 2.88816C7.61676 3.08713 7.69108 3.2861 7.7654 3.48792L7.82784 3.66131C7.86649 3.75795 7.8546 3.82617 7.78325 3.89723Z" fill="#F4F4F4"/>
<path d="M6.26671 6.41257C6.25779 6.56891 6.18347 6.6826 6.04968 6.74798C5.74346 6.90147 5.72562 7.17151 5.74049 7.35911V7.37617C5.74346 7.40459 5.74643 7.43302 5.74643 7.4387C5.73751 7.44439 5.69887 7.45291 5.66914 7.45575C5.33616 7.5126 5.07751 7.60072 4.84858 7.73716C4.79804 7.76558 4.75939 7.79969 4.72966 7.83949C4.66723 7.93045 4.57209 7.97877 4.44128 7.98445C4.20047 7.99582 3.98344 7.97593 3.78127 7.91908C3.69505 7.89349 3.61181 7.87075 3.52559 7.84801C3.34721 7.79969 3.16289 7.74853 2.98451 7.69168C2.67829 7.58935 2.36909 7.42165 2.04206 7.18004L1.85773 7.04644C1.57232 6.8361 1.27502 6.61723 0.998531 6.38699C0.906368 6.31024 0.823122 6.21928 0.745823 6.11695C0.704201 6.06579 0.689338 6.02315 0.70123 5.98904C0.710149 5.95493 0.7488 5.92367 0.814206 5.89524C1.08475 5.79007 1.3761 5.73038 1.6853 5.72469C1.70611 5.72469 1.72394 5.72185 1.74476 5.72185C2.06881 5.72185 2.40774 5.79007 2.80612 5.92651C2.86856 5.94925 2.93099 5.97199 2.99343 5.99189C3.16289 6.04874 3.33829 6.10559 3.50181 6.18802C3.72181 6.29319 3.921 6.43815 4.11128 6.57743C4.1529 6.6087 4.19155 6.63713 4.23317 6.66555C4.27182 6.69397 4.31344 6.72524 4.35506 6.75367C4.43533 6.8162 4.52155 6.87873 4.61074 6.93558C4.78318 7.04928 4.97048 7.10897 5.1667 7.11466H5.2767C5.35994 7.12034 5.44616 7.12034 5.53238 7.12034C5.58589 7.12034 5.62751 7.0976 5.64832 7.06065C5.66914 7.02654 5.66616 6.97822 5.63643 6.93274C5.59481 6.86168 5.52346 6.81904 5.44319 6.8162C4.98534 6.79062 4.68209 6.52343 4.42047 6.23918C4.2302 6.03168 4.08452 5.78723 3.94776 5.54846L3.921 5.50867C3.74262 5.20452 3.54046 4.90322 3.34721 4.61329C3.28775 4.52518 3.22829 4.43706 3.16883 4.3461C3.08856 4.22387 3.02613 4.10165 2.98451 3.98227C2.89532 3.71507 2.77342 3.45641 2.6545 3.20912C2.60991 3.11816 2.56531 3.02436 2.52369 2.9334C2.44936 2.77138 2.38693 2.60367 2.32747 2.43881L2.27395 2.28531C2.20855 2.11192 2.16693 1.93853 2.12233 1.7424C2.07476 1.52922 2.05098 1.30182 2.05692 1.046C2.0599 0.994837 2.06881 0.9522 2.08368 0.912405C2.10449 0.869768 2.11638 0.861241 2.1253 0.858398C2.13125 0.858398 2.14612 0.858398 2.18477 0.881138C2.29477 0.946515 2.39585 1.02895 2.49396 1.10569C2.52963 1.13412 2.56531 1.16254 2.60099 1.19097C3.22829 1.68271 3.68911 2.0835 4.08749 2.4985C4.42642 2.84528 4.76534 3.2347 5.1548 3.72076C5.58589 4.26083 5.82968 4.86911 6.014 5.39497C6.03779 5.46319 6.06157 5.53141 6.08833 5.59678C6.15374 5.76733 6.22212 5.94356 6.24887 6.12548C6.26077 6.21644 6.27266 6.31308 6.26671 6.41257Z" fill="white"/>
</g>
<defs>
<clipPath id="clip0_420_3790">
<rect width="16" height="16" fill="white"/>
</clipPath>
</defs>
</svg>
