<svg width="188" height="52" viewBox="0 0 188 52" fill="none" xmlns="http://www.w3.org/2000/svg">
<rect x="0.5" y="0.5" width="186.881" height="51" rx="5.5" fill="#FAFAFA"/>
<rect x="0.5" y="0.5" width="186.881" height="51" rx="5.5" stroke="#282828"/>
<path d="M53.903 25.7778C53.8945 25.9029 53.8222 26.0155 53.6904 26.128C53.6394 26.1697 53.5841 26.2114 53.5331 26.2489C53.4863 26.2865 53.4438 26.324 53.397 26.3573C53.2184 26.4949 53.0314 26.5824 52.8358 26.6158C52.0833 26.745 51.5986 26.7617 51.4072 26.6658C51.1862 26.5574 51.1266 26.1447 51.1011 25.9905V25.9404C51.0714 25.8112 50.9948 25.5402 50.9906 25.536C50.9906 25.5277 50.9863 25.5235 50.9863 25.5194C50.9948 25.4944 51.0459 25.461 51.0714 25.4402L51.1011 25.411C51.3222 25.215 51.5943 25.0108 51.96 24.9607C52.0875 24.9441 52.2066 24.8982 52.3213 24.8565C52.3766 24.8315 52.4319 24.8148 52.4914 24.7981C52.585 24.7648 52.6657 24.7648 52.7295 24.7898C53.0781 24.919 53.465 25.0941 53.7627 25.4193C53.8689 25.5402 53.92 25.6611 53.9115 25.782L53.903 25.7778Z" fill="#FFE888"/>
<path d="M52.6323 27.9451C52.5047 28.0452 52.3644 28.1744 52.2454 28.337C52.1518 28.4662 52.0115 28.5121 51.8712 28.5454C51.8627 28.5454 51.8585 28.5496 51.8542 28.5496L51.4035 28.6788C51.3738 28.6913 51.327 28.7039 51.2632 28.7205H51.2462C50.8678 28.8248 50.5532 28.7831 50.2471 28.5913C49.8985 28.3745 49.7837 28.0535 49.8984 27.6616C50.026 27.2656 50.2641 27.0238 50.6297 26.9279C50.6722 26.9154 50.7105 26.8904 50.736 26.8737C50.7488 26.8612 50.7785 26.8403 50.787 26.8403C50.8211 26.857 50.8466 26.8987 50.8763 26.9362C50.8933 26.9612 50.9103 26.9779 50.9231 26.9946C51.1059 27.2155 51.344 27.3239 51.6289 27.3239H51.6416C51.901 27.3239 52.1518 27.3073 52.3431 27.2864C52.5727 27.2739 52.6833 27.3323 52.7641 27.5199C52.8236 27.6658 52.7768 27.8159 52.628 27.9409L52.6323 27.9451Z" fill="#F4D13D"/>
<path d="M49.4349 28.7038C49.4349 28.7038 49.4264 28.7122 49.4221 28.7163C49.3158 28.8664 48.9757 28.9873 48.7249 29.0415C48.7206 29.0415 48.7121 29.0457 48.6994 29.0457C48.6101 29.0832 48.5038 29.0999 48.3465 29.0999C47.8448 29.1749 47.7215 29.1082 47.7172 29.1082C47.7087 29.0957 47.6917 29.0832 47.6747 29.079C47.6492 29.0749 47.6152 29.0623 47.5514 29.0373C47.275 28.9206 47.0029 28.8039 46.7308 28.6871C46.6118 28.6413 46.582 28.5913 46.582 28.5787C46.6075 28.1702 47.02 27.6449 47.4494 27.6366L47.7342 27.6282C47.9085 27.6199 48.0744 27.6157 48.2444 27.6116C48.3465 27.6074 48.4613 27.6157 48.5548 27.6616C48.6271 27.6949 48.6866 27.7033 48.7419 27.6783C48.8056 27.6532 48.8524 27.6032 48.8907 27.5157L48.9034 27.4781C48.9162 27.4406 48.9332 27.3989 48.9502 27.3614C48.9545 27.3489 48.9587 27.3489 48.963 27.3531C48.9587 27.449 48.98 27.524 49.0352 27.574C49.082 27.6282 49.1585 27.6532 49.2563 27.6491C49.184 27.9492 49.2861 28.2202 49.3754 28.462C49.3924 28.512 49.4094 28.5704 49.4179 28.6288L49.4264 28.6788L49.4306 28.6955L49.4349 28.7038Z" fill="#FFE888"/>
<path d="M49.6397 26.3148C49.3124 26.665 48.9255 26.8942 48.496 26.9985C48.4153 27.0235 48.3302 27.0235 48.2367 27.0276C48.1942 27.0276 48.1474 27.0277 48.1091 27.0318C47.9093 27.0318 47.6415 27.0151 47.3906 26.8776C46.9655 26.6358 46.8847 25.9938 47.1058 25.606C47.2248 25.3934 47.3736 25.2558 47.5692 25.185C47.786 25.1058 48.0199 25.0557 48.2665 25.0391H48.3047C48.4535 25.0391 48.5811 25.1016 48.6576 25.2267C48.8107 25.481 49.036 25.6185 49.3634 25.6602C49.5419 25.6769 49.678 25.777 49.7333 25.9187C49.7843 26.0563 49.746 26.2022 49.6355 26.3231L49.6397 26.3148Z" fill="#F4D13D"/>
<path d="M51.5349 24.4348C51.2926 24.7225 50.9737 24.9017 50.6336 25.0935L50.6038 25.1102C50.3232 25.1727 50.0979 25.156 50.0894 25.156C49.779 25.1644 49.5324 25.106 49.3113 24.9809C49.1243 24.8809 48.9797 24.6182 48.9542 24.3431C48.9414 24.193 48.9585 23.9054 49.2178 23.7011C49.3496 23.5927 49.4729 23.5218 49.5919 23.4718L49.6727 23.4343C49.6727 23.4343 49.847 23.3384 50.1319 23.3384C50.1489 23.3384 50.1702 23.3425 50.1872 23.3425C50.319 23.3592 50.4508 23.3676 50.5741 23.3717C50.6719 23.3759 50.7739 23.3759 50.8759 23.3842C50.9355 23.3926 50.9822 23.3967 51.0077 23.4009C51.012 23.4051 51.0205 23.4093 51.0332 23.4093C51.0715 23.4176 51.1991 23.4593 51.3521 23.5969C51.5307 23.7594 51.5519 23.8178 51.5775 23.8803C51.5775 23.8887 51.5817 23.897 51.586 23.9054C51.722 24.0721 51.7093 24.2222 51.5349 24.4348Z" fill="#F4D13D"/>
<path d="M62.8406 25.9231C62.7938 25.7605 62.696 25.6563 62.5387 25.6021C62.3899 25.5521 62.2454 25.5062 62.1051 25.4395C61.6119 25.2102 61.0719 24.9851 60.4937 24.8809C60.111 24.81 59.7156 24.7475 59.3372 24.6891C58.9673 24.6307 58.5805 24.5724 58.2063 24.5057C57.6323 24.4014 57.0201 24.3598 56.3951 24.3806C56.7352 24.1638 56.9436 23.8428 57.1009 23.5593C57.1519 23.4718 57.1987 23.3801 57.2454 23.2925C57.2964 23.1966 57.3475 23.1007 57.4027 23.009C57.6281 22.613 57.5983 22.2669 57.3007 21.9293C57.1817 21.7917 57.0414 21.7458 56.867 21.7833C56.4546 21.8667 56.038 22.0001 55.5065 22.2044C55.3364 22.2711 55.1621 22.3295 54.9921 22.3795C54.6604 22.4879 54.316 22.5963 53.9972 22.7964C54.0014 22.7881 54.0014 22.7797 54.0057 22.7756L54.0184 22.7464C54.112 22.5046 54.2055 22.2669 54.299 22.0251C54.4819 21.5666 54.6689 21.0913 54.839 20.616C54.9708 20.2492 55.0941 19.874 55.2131 19.5113C55.362 19.0652 55.5108 18.6024 55.6766 18.1564C55.8721 17.6311 55.8254 17.1558 55.5363 16.7097C55.464 16.6013 55.3577 16.4346 55.1451 16.4137C54.6944 16.3762 54.3373 16.5096 54.095 16.8181L54.0269 16.9015C53.7888 17.2017 53.5422 17.5102 53.2786 17.7978C53.015 18.0855 52.7259 18.3648 52.4496 18.6358C52.1775 18.8943 51.9011 19.1652 51.6418 19.4446C51.6333 19.4529 51.6248 19.4612 51.6163 19.4696C51.612 19.4696 51.612 19.4738 51.6078 19.4738C51.5482 19.2903 51.4845 19.1111 51.4207 18.9318C51.3654 18.7775 51.3101 18.6233 51.2591 18.469C51.1528 18.1647 50.9913 17.8854 50.7787 17.6436C50.5236 17.3559 50.2302 17.3142 49.9028 17.5143C49.4224 17.8103 49.0695 18.2648 48.8272 18.9068C48.5976 19.5071 48.5976 20.1324 48.6103 20.7244C48.6146 20.8036 48.6146 20.8787 48.6146 20.9579C48.5933 20.912 48.5763 20.8662 48.5551 20.8203C48.4445 20.5535 48.3255 20.2742 48.1427 20.0324C48.0279 19.8865 47.9131 19.7447 47.794 19.5988C47.6325 19.3987 47.4667 19.1944 47.3093 18.986C46.8289 18.3231 46.2507 17.6853 45.4386 16.914C45.0475 16.5472 44.6223 16.1719 44.0568 15.6967C43.9931 15.6467 43.9335 15.5925 43.874 15.5424C43.6997 15.3924 43.5211 15.2381 43.3298 15.1047C43.2575 15.0588 43.0492 14.9171 42.8536 15.0672C42.5603 15.2965 42.4114 15.5508 42.3944 15.8426C42.3774 16.1469 42.4157 16.4554 42.454 16.7181C42.5092 17.0808 42.607 17.4268 42.7346 17.8395C42.8409 18.1814 42.9599 18.5441 43.1385 18.8859C43.283 19.1486 43.4361 19.4362 43.5381 19.7447C43.6359 20.0449 43.7762 20.3576 43.9761 20.7328C44.2184 21.1872 44.499 21.6249 44.7711 22.0502C44.8902 22.2378 45.0092 22.4212 45.1282 22.613C45.2175 22.7505 45.3068 22.9048 45.3918 23.0757C45.3621 23.059 45.3323 23.0424 45.2983 23.0299C44.5543 22.7005 43.8655 22.4921 43.1937 22.392C43.1512 22.3837 43.1045 22.3795 43.0577 22.3753L42.9684 22.3628C42.2541 22.2544 41.6036 22.2795 40.9786 22.4295C40.8766 22.4545 40.7873 22.5046 40.7065 22.5754C40.4812 22.7756 40.4429 23.2341 40.63 23.5343C40.8298 23.8595 41.1232 24.1013 41.4038 24.3306L41.4506 24.3681C41.5016 24.414 41.5569 24.4598 41.6079 24.5057C41.8035 24.6724 42.0075 24.8392 42.2286 24.9893C42.0543 24.9559 41.8842 24.9392 41.7099 24.9392C41.0637 24.9392 40.5322 25.2269 40.1283 25.798C40.022 25.9481 39.9795 26.1107 40.0093 26.2608C40.039 26.4192 40.1453 26.561 40.3154 26.6735C40.4089 26.7361 40.5152 26.7861 40.6215 26.8361C40.8724 26.9528 41.1274 27.0612 41.374 27.1488C41.6121 27.2363 41.8162 27.3781 42.0288 27.5282C42.0926 27.574 42.1606 27.6199 42.2244 27.6616C42.5007 27.845 42.7856 27.945 43.0917 27.9659C43.1342 27.9659 43.1767 27.9701 43.2193 27.9742C43.2958 27.9784 43.3723 27.9867 43.4446 27.9867C43.4276 27.9992 43.4148 28.0118 43.3978 28.0243C43.3383 28.0618 43.2788 28.1035 43.2235 28.1452C42.7303 28.5245 42.2499 28.9789 41.6674 29.6251C41.1317 30.2213 40.7235 30.8842 40.4599 31.5929C40.1666 32.385 40.1156 33.0979 40.3069 33.7649C40.4599 34.2985 40.5662 34.557 41.3358 34.6029C41.7907 34.6279 42.0671 34.4778 42.2371 34.1151C42.3349 33.9025 42.4965 33.7149 42.7261 33.5398C42.9514 33.373 43.164 33.1604 43.3596 32.9103C43.7635 32.385 44.3162 31.7096 44.9837 31.1385C45.0135 31.1134 45.0475 31.0884 45.0815 31.0676C45.0942 31.0593 45.1112 31.0467 45.124 31.0384L45.0985 31.1301C45.0517 31.2844 45.005 31.4428 44.9667 31.6012C44.8094 32.2391 44.7073 32.9144 44.6691 33.6148C44.6223 34.4653 44.6351 35.1698 44.7073 35.8369C44.7413 36.1245 44.8136 36.4956 45.0645 36.8124L45.0815 36.8332C45.141 36.9083 45.2175 37 45.3451 37H45.3621C45.6172 36.9792 45.9446 36.925 46.1912 36.654C46.2549 36.5831 46.3187 36.5122 46.3782 36.4414C46.442 36.3705 46.5015 36.2996 46.5653 36.2329L46.7014 36.0828C46.9947 35.7577 47.2966 35.42 47.5347 35.0406C47.5474 35.0198 47.5559 35.0114 47.5559 35.0072C47.5602 35.0114 47.5687 35.0198 47.5772 35.0364C47.607 35.0865 47.6452 35.1281 47.6835 35.1698L47.7047 35.1948C47.7643 35.2574 47.8195 35.2866 47.8833 35.2907C47.9386 35.2949 47.9981 35.2657 48.0534 35.2157C48.1172 35.1573 48.1809 35.1031 48.2447 35.0489C48.4955 34.828 48.7549 34.6029 48.9165 34.2818C48.942 34.236 48.976 34.1901 49.0228 34.1443C49.0355 34.1276 49.3161 33.7566 49.4267 33.5481L49.4352 33.5356C49.4352 33.5356 49.4437 33.5148 49.4479 33.5106C49.6095 33.1646 49.703 32.8477 49.737 32.5476C49.7413 32.5059 49.754 32.4725 49.788 32.4308C49.8178 32.3975 49.8603 32.3475 49.8943 32.3391C49.9454 32.4475 50.2982 33.1646 50.5278 33.4481C50.5406 33.4647 50.5533 33.4814 50.5661 33.4981L50.5959 33.5314C50.7447 33.7232 50.8977 33.9191 51.0635 34.1026C51.5482 34.632 52.0754 35.1907 52.7089 35.6451C53.2659 36.0453 53.8186 36.2996 54.3968 36.4163C54.7667 36.4956 55.1069 36.2162 55.1791 35.9202C55.2344 35.6868 55.1919 35.47 55.1366 35.249C55.0856 35.0489 55.0388 34.8488 54.9921 34.6445C54.9155 34.3277 54.839 33.9984 54.754 33.6773C54.5754 33.0187 54.3416 32.2557 53.9206 31.5512L53.9589 31.5637C54.0184 31.5887 54.078 31.6096 54.1417 31.6346L54.2905 31.6888C54.5967 31.8055 54.9113 31.9222 55.2344 32.0056C55.8381 32.1557 56.4334 32.1432 57.0966 32.1098C57.5005 32.0932 57.8534 31.9514 58.1468 31.6888C58.2488 31.6012 58.2743 31.5012 58.2233 31.3761C58.185 31.2802 58.1213 31.2093 58.0532 31.1426L58.0192 31.1009C57.9129 30.9884 57.8109 30.8758 57.7046 30.7633C57.492 30.5381 57.2709 30.3088 57.0796 30.0629C57.0243 29.9878 56.9648 29.917 56.9096 29.8419C56.6757 29.5376 56.4334 29.2249 56.1528 28.9456C56.0762 28.8706 56.0125 28.783 55.9444 28.6913L55.8934 28.6246C55.8934 28.6246 55.8892 28.6162 55.8849 28.6162H55.8934C56.2888 28.6579 56.6842 28.6413 57.0966 28.5621C57.7344 28.4453 58.3679 28.3494 58.9844 28.2619C59.1417 28.2369 59.2947 28.216 59.452 28.1952C59.7794 28.1493 60.1195 28.1035 60.4512 28.0368C60.6042 28.0076 60.7445 27.9492 60.8848 27.8867C61.1654 27.7574 61.4035 27.6616 61.6416 27.5907C61.9222 27.499 62.2794 27.3572 62.5345 27.0487C62.8448 26.6777 62.9469 26.3108 62.8406 25.9231ZM55.0899 22.8589L55.1791 22.8298C55.3279 22.7756 55.4725 22.7255 55.6171 22.6755C55.9742 22.5546 56.3483 22.4254 56.7055 22.2753C56.7778 22.2419 56.8458 22.2419 56.8968 22.2753C56.9606 22.317 56.9988 22.4129 56.9988 22.5296C56.9988 22.6296 56.9223 22.7547 56.8713 22.8381C56.6417 23.2258 56.3696 23.676 56.0592 24.0888C55.9189 24.2847 55.7233 24.414 55.4767 24.4765C55.3917 24.5015 55.3067 24.5223 55.2217 24.5432C54.958 24.6057 54.6902 24.6683 54.4393 24.7933C54.0227 25.0059 53.7208 25.2227 53.487 25.4812L53.4657 25.5062L53.4275 25.5437C53.3127 25.6605 53.3127 25.6646 53.1979 25.5646C52.8832 25.3061 52.6111 25.156 52.3263 25.0768C52.3305 25.0726 52.3348 25.0726 52.339 25.0685C52.4283 25.0018 52.5134 24.9351 52.6026 24.8684L52.7727 24.7433C52.93 24.6224 53.0661 24.4765 53.1936 24.3347C53.2744 24.2472 53.3594 24.1596 53.4445 24.0763C53.4955 24.0304 53.5508 23.9887 53.606 23.947C53.7208 23.8595 53.8356 23.7719 53.9079 23.6469C54.1672 23.1841 54.6179 23.0257 55.0899 22.8589ZM49.0185 26.1983C49.1801 26.2149 49.3034 26.3025 49.3544 26.4317C49.4011 26.5568 49.3671 26.6902 49.2651 26.7986C48.9675 27.1154 48.6188 27.3239 48.2277 27.4198C48.1554 27.4406 48.0789 27.4406 47.9939 27.4448C47.9556 27.4448 47.9131 27.4448 47.8791 27.4489C47.6962 27.4489 47.4539 27.4323 47.2286 27.3072C46.8417 27.0862 46.7694 26.5068 46.9692 26.1524C47.0755 25.9606 47.2116 25.8356 47.3901 25.7689C47.5857 25.698 47.7983 25.6521 48.0236 25.6355H48.0576C48.1937 25.6355 48.3085 25.6938 48.3765 25.8064C48.5168 26.0357 48.7209 26.1607 49.0185 26.1983ZM48.8867 24.4265C49.0057 24.3264 49.1163 24.2639 49.2268 24.218L49.2991 24.1847C49.2991 24.1847 49.4564 24.0971 49.7158 24.0971C49.7328 24.0971 49.7498 24.1013 49.7668 24.1013C49.8858 24.118 50.0049 24.1221 50.1197 24.1263C50.209 24.1263 50.3025 24.1263 50.3918 24.1388C50.4471 24.1471 50.4896 24.1513 50.5108 24.1555C50.5108 24.1555 50.5236 24.1638 50.5321 24.1638C50.5661 24.1722 50.6809 24.2097 50.8212 24.3347C50.9828 24.4807 51.004 24.5349 51.0253 24.5932C51.0253 24.6016 51.0295 24.6099 51.0338 24.6141C51.1571 24.7641 51.1443 24.9017 50.987 25.0935C50.7659 25.3561 50.4768 25.5187 50.1707 25.6896L50.1452 25.7063C49.8901 25.7647 49.686 25.748 49.6775 25.748C49.3969 25.7564 49.1716 25.7022 48.9717 25.5896C48.8017 25.4979 48.6699 25.2602 48.6486 25.0101C48.6358 24.8725 48.6529 24.6141 48.8867 24.4265ZM49.6265 26.9237C49.737 26.7027 49.771 26.5068 49.737 26.3067C49.7328 26.2858 49.7328 26.2775 49.7285 26.2733H49.7668C49.7923 26.2733 49.8221 26.2775 49.8476 26.2691C50.0134 26.2691 50.0389 26.2858 50.0857 26.4276C50.1197 26.5234 50.1452 26.6235 50.1664 26.7235L50.1877 26.8153C50.1962 26.8403 50.192 26.8611 50.1537 26.8778L50.1154 26.8945C50.0474 26.9278 49.9794 26.9612 49.9113 26.9779C49.6945 27.0321 49.5117 27.1446 49.3459 27.3155L49.3246 27.3364C49.2736 27.3906 49.2268 27.4406 49.1631 27.4656C49.3714 27.3155 49.5287 27.1321 49.6265 26.9237ZM49.4989 28.0201C49.6137 27.6616 49.8306 27.4406 50.1622 27.3531C50.2005 27.3406 50.2345 27.3197 50.26 27.303C50.2727 27.2905 50.2982 27.2738 50.3067 27.2738C50.3365 27.2905 50.362 27.328 50.3875 27.3614C50.4045 27.3822 50.4173 27.3989 50.43 27.4156C50.5959 27.6157 50.8127 27.7158 51.072 27.7158H51.0848C51.3186 27.7158 51.5482 27.6991 51.7225 27.6824C51.9309 27.6699 52.0329 27.7241 52.1052 27.895C52.1605 28.0284 52.118 28.1618 51.9819 28.2786C51.8671 28.3703 51.7396 28.487 51.629 28.6329C51.544 28.7497 51.4164 28.7913 51.2889 28.8205C51.2804 28.8205 51.2761 28.8247 51.2719 28.8247L50.8637 28.9414C50.8382 28.9539 50.7957 28.9623 50.7362 28.9789H50.7192C50.3748 29.0748 50.0899 29.0373 49.8136 28.8622C49.4989 28.6663 49.3926 28.3745 49.4989 28.0201ZM50.868 27.1154C50.6681 27.0154 50.6129 26.6443 50.5916 26.5026V26.4567C50.5661 26.34 50.4938 26.094 50.4896 26.0899C50.4896 26.0815 50.4896 26.0774 50.4896 26.0732C50.4981 26.0523 50.5448 26.019 50.5661 26.0023L50.5916 25.9773C50.7914 25.798 51.038 25.6146 51.3697 25.5688C51.4845 25.5521 51.595 25.5104 51.697 25.4729C51.7481 25.452 51.7991 25.4353 51.8501 25.4187C51.9351 25.3895 52.0074 25.3895 52.0669 25.4103C52.3816 25.5271 52.7344 25.6855 53.0023 25.9815C53.1001 26.0899 53.1468 26.2024 53.1383 26.3108C53.1298 26.4234 53.0661 26.5276 52.947 26.6277C52.9002 26.6652 52.8492 26.7027 52.8025 26.7361C52.7599 26.7694 52.7217 26.8028 52.6792 26.8361C52.5176 26.9612 52.3475 27.0404 52.169 27.0696C51.4845 27.1863 51.0465 27.203 50.8722 27.1154H50.868ZM52.3603 28.2369C52.373 28.1827 52.3943 28.1243 52.4241 28.0701C52.4751 27.9826 52.5304 27.87 52.5304 27.7324C52.5304 27.6657 52.5176 27.5949 52.4836 27.5198C52.5984 27.4364 52.7089 27.3572 52.8195 27.2697C52.8662 27.2363 52.9173 27.2238 52.9683 27.2405C53.0448 27.2572 53.1001 27.3072 53.1256 27.3864C53.1256 27.3864 53.1681 27.4656 53.1724 27.6074C53.1724 27.7491 53.1341 27.8575 53.0576 27.9242C53.0491 27.9284 53.0448 27.9325 53.0363 27.9367C53.0363 27.9367 53.0235 27.9492 53.015 27.9534C52.9683 27.9867 52.9215 28.0243 52.8747 28.0576C52.7557 28.1535 52.6367 28.241 52.4921 28.2702L52.4028 28.2827C52.3688 28.2911 52.3603 28.2786 52.3603 28.2786C52.3603 28.2786 52.3518 28.2702 52.3603 28.2369ZM51.3612 20.4826C51.3612 20.4826 51.3824 20.466 51.3867 20.4576L51.8246 19.924L51.9011 19.849L52.4793 19.3028C52.5984 19.1736 52.7259 19.0527 52.8535 18.936C52.9938 18.8109 53.1341 18.6775 53.2616 18.5357C53.4232 18.3565 53.589 18.1814 53.7548 18.0105C53.8229 17.9396 53.8909 17.8645 53.9589 17.7937C54.1205 17.6227 54.248 17.4393 54.3458 17.2517C54.4479 17.0516 54.7752 16.864 55.0091 16.8765C55.0431 16.8807 55.0643 16.8932 55.0899 16.9349C55.2302 17.1475 55.2982 17.3518 55.2982 17.5644C55.2982 17.7103 55.2684 17.8479 55.2089 17.9771C54.9495 18.5733 54.7582 19.2028 54.5754 19.8114C54.5371 19.9323 54.4989 20.0532 54.4649 20.1741C54.18 21.0955 53.8229 22.1794 53.3467 23.2008C53.1596 23.6093 52.9768 23.972 52.6707 24.2639C52.5601 24.3723 52.4326 24.4932 52.288 24.5807C52.0882 24.6974 51.8884 24.8392 51.697 25.0059C51.6035 25.0852 51.493 25.1018 51.3697 25.1185C51.3824 25.0726 51.3994 25.031 51.4207 24.9893C51.578 24.6141 51.51 24.3556 51.1868 24.1013C50.9828 23.9429 50.7617 23.7803 50.4683 23.7469C50.3833 23.7344 50.3195 23.6719 50.2642 23.5426C50.1282 23.23 50.0942 22.909 50.1622 22.5963C50.3067 21.9418 50.6171 21.3456 51.0763 20.8245C51.1443 20.7536 51.2038 20.6744 51.2506 20.5952C51.2804 20.5452 51.3186 20.5035 51.3612 20.4826ZM48.9717 20.6536C48.9717 20.5535 48.9802 20.4535 48.9802 20.3534C48.9887 20.2992 49.027 20.0366 49.0695 19.7989L49.0908 19.6697C49.1716 19.232 49.2523 18.8192 49.5372 18.4732C49.7158 18.2564 49.9326 18.0855 50.1834 17.9688C50.2642 17.9271 50.3918 17.8979 50.5448 18.073C50.6511 18.1981 50.7404 18.344 50.8042 18.5149C50.9147 18.8067 51.021 19.0985 51.1273 19.3945L51.2166 19.6488C51.2719 19.7906 51.2506 19.8906 51.1528 19.9949C50.8595 20.3159 50.4938 20.7161 50.226 21.1622C49.8816 21.7417 49.6903 22.2461 49.6265 22.7464C49.5797 23.1049 49.6307 23.4384 49.7838 23.7261C49.788 23.7386 49.7966 23.7511 49.7966 23.7594H49.771C49.7115 23.7553 49.6562 23.7636 49.5925 23.7678C49.567 23.7719 49.5414 23.7719 49.4989 23.7803C49.4692 23.7844 49.4607 23.7844 49.4607 23.7844C49.4607 23.7844 49.4522 23.7678 49.4522 23.7219C49.4522 23.3801 49.3926 23.0465 49.2693 22.7005C49.0908 22.2044 49.0228 21.6791 48.976 21.2289C48.959 21.0413 48.9675 20.8412 48.976 20.6536H48.9717ZM41.4506 23.6469C41.3188 23.5343 41.1955 23.4009 41.0892 23.2508C41.0297 23.1758 41.0084 23.1132 41.0254 23.0632C41.0382 23.0132 41.0934 22.9673 41.187 22.9256C41.5739 22.7714 41.9905 22.6838 42.4327 22.6755C42.4625 22.6755 42.488 22.6713 42.5135 22.6713C42.9769 22.6713 43.4658 22.7714 44.0313 22.9715C44.1249 23.0048 44.2141 23.0382 44.3034 23.0674C44.5458 23.1508 44.7966 23.2341 45.0305 23.355C45.3451 23.5093 45.6299 23.7219 45.902 23.9262C45.9616 23.972 46.0168 24.0137 46.0764 24.0554C46.1316 24.0971 46.1912 24.143 46.2464 24.1847C46.3655 24.2764 46.4888 24.3681 46.6163 24.4515C46.8629 24.6182 47.1265 24.7058 47.4071 24.7141H47.5687C47.6877 24.7225 47.811 24.7225 47.9343 24.7225C48.0066 24.7225 48.0704 24.6891 48.1001 24.6349C48.1299 24.5849 48.1257 24.514 48.0831 24.4473C48.0194 24.3431 47.9216 24.2805 47.8068 24.2764C47.152 24.2389 46.7184 23.847 46.3442 23.4301C46.0679 23.1257 45.8638 22.7672 45.664 22.417L45.6299 22.3587C45.3748 21.9126 45.0857 21.4707 44.8094 21.0454C44.7243 20.9162 44.6393 20.787 44.5543 20.6536C44.4395 20.4743 44.3502 20.295 44.2907 20.1199C44.1631 19.7281 43.9888 19.3487 43.8187 18.986C43.755 18.8526 43.6912 18.715 43.6317 18.5816C43.5254 18.344 43.4361 18.098 43.3511 17.8562L43.2745 17.6311C43.181 17.3768 43.1215 17.1225 43.0577 16.8348C42.9854 16.5221 42.9557 16.1886 42.9642 15.8134C42.9642 15.7384 42.9769 15.6758 43.0024 15.6175C43.0279 15.5549 43.0492 15.5424 43.0619 15.5383C43.0704 15.5383 43.0917 15.5383 43.147 15.5716C43.3 15.6675 43.4488 15.7884 43.5892 15.901C43.6402 15.9427 43.6912 15.9843 43.738 16.026C44.6393 16.7473 45.2983 17.3351 45.868 17.9437C46.3527 18.4524 46.8332 19.0235 47.3944 19.7364C48.0109 20.5285 48.3595 21.4206 48.6231 22.1919C48.6571 22.292 48.6911 22.392 48.7294 22.4879C48.8229 22.738 48.9207 22.9965 48.959 23.2633C48.976 23.3967 48.993 23.5385 48.9845 23.6844C48.9717 23.9137 48.8654 24.0804 48.6741 24.1763C48.2362 24.4014 48.2107 24.7975 48.2319 25.0726V25.0977C48.2362 25.1393 48.2404 25.181 48.2362 25.1894C48.2277 25.1977 48.1724 25.2102 48.1299 25.2144C47.6537 25.2978 47.2796 25.427 46.9565 25.6271C46.8799 25.6688 46.8289 25.7188 46.7864 25.7772C46.6971 25.9106 46.5611 25.9815 46.374 25.9898C46.0296 26.0065 45.7192 25.9773 45.4301 25.8939C45.3068 25.8564 45.1878 25.8231 45.0645 25.7897C44.8094 25.7188 44.5458 25.6438 44.2907 25.5604C43.8485 25.4103 43.4106 25.1644 42.9429 24.81L42.6793 24.6141C42.2711 24.3056 41.846 23.9846 41.4506 23.6469ZM43.13 27.4698C42.7601 27.4615 42.4837 27.2447 42.2541 27.0446C42.2541 27.0446 42.2456 27.0362 42.2414 27.0362C42.1181 26.9112 41.778 26.7652 41.5058 26.6568C41.5016 26.6568 41.4931 26.6527 41.4888 26.6527C41.3783 26.6277 41.272 26.5943 41.1657 26.5443C41.0127 26.4692 40.8426 26.3984 40.647 26.3275C40.5875 26.3067 40.5492 26.2816 40.5407 26.2566C40.528 26.2316 40.5407 26.1858 40.5705 26.1274C40.6853 25.9023 40.8766 25.7272 41.1912 25.5604C41.3783 25.4645 41.5909 25.4103 41.778 25.4103H41.829C42.0501 25.4103 42.1989 25.4395 42.3264 25.5146C42.5773 25.6563 42.8536 25.7147 43.1215 25.7647L43.2022 25.7814C43.4021 25.8231 43.5934 25.9064 43.7762 25.9856C43.8315 26.0107 43.891 26.0357 43.9463 26.0565C44.6393 26.3483 45.3876 26.5109 46.1699 26.5443H46.2082C46.2082 26.5443 46.2379 26.5443 46.2464 26.5485C46.2804 26.5568 46.3145 26.5526 46.3485 26.5485C46.408 26.5443 46.4122 26.5485 46.4207 26.5735C46.4633 26.6819 46.4207 26.8278 46.3442 26.8903C46.2592 26.957 46.1529 26.9695 46.0381 26.982H46.0041C45.7702 27.0154 45.5747 27.0654 45.4003 27.1321C45.1623 27.228 44.9242 27.3197 44.6861 27.4114C44.499 27.4823 44.3162 27.5573 44.1291 27.6282C44.0866 27.6449 44.0653 27.6491 44.0441 27.6407C43.7465 27.5073 43.4276 27.4781 43.13 27.4698ZM44.7839 30.5923C44.1419 31.1218 43.5977 31.7471 43.147 32.2849C42.8621 32.6351 42.5432 32.9561 42.2414 33.2479C42.0075 33.4731 41.8247 33.6982 41.6887 33.9317C41.6079 34.0651 41.5058 34.1234 41.3613 34.1068C40.9659 34.0692 40.8766 34.0275 40.7916 33.6607C40.7405 33.4272 40.7278 33.1896 40.7235 32.9061C40.7065 32.5309 40.8426 32.114 40.9659 31.793C41.289 30.9258 41.8545 30.1254 42.6835 29.3375C43.3808 28.6788 44.0781 28.2035 44.8179 27.8742C45.3111 27.6574 45.7362 27.5448 46.1529 27.5198C46.1954 27.5198 46.2464 27.5198 46.2932 27.4948C46.3357 27.474 46.374 27.4656 46.4165 27.4656C46.4973 27.4656 46.5781 27.5073 46.6843 27.6032C46.7396 27.6532 46.8034 27.7074 46.8034 27.7283C46.8034 27.7491 46.7354 27.8158 46.6843 27.8617C46.4973 28.0409 46.34 28.241 46.2209 28.4537C45.9743 28.8956 46.0168 29.2207 46.3655 29.5751C46.3867 29.596 46.391 29.6043 46.3952 29.6085C46.391 29.6085 46.3867 29.6168 46.3655 29.6335C46.3102 29.671 46.2464 29.7043 46.1656 29.7335C45.6214 29.9295 45.1665 30.2797 44.7839 30.5923ZM47.0585 34.8572C46.9905 34.9364 46.9267 35.0239 46.8672 35.1073C46.8374 35.149 46.8076 35.1907 46.7736 35.2324C46.4718 35.6284 46.1571 35.9869 45.834 36.308C45.7915 36.3496 45.7405 36.3913 45.6767 36.4372C45.5577 36.5164 45.5194 36.5122 45.4344 36.3997C45.3238 36.2579 45.2558 36.087 45.226 35.8786C45.1878 35.6368 45.1793 35.3866 45.1665 35.1448C45.158 34.9697 45.1495 34.7946 45.1325 34.6195C45.1027 34.2068 45.1155 33.7816 45.1708 33.3522C45.1878 33.2063 45.2048 33.0603 45.2218 32.9103C45.2685 32.4642 45.3196 32.0014 45.4471 31.5595C45.5747 31.126 45.732 30.8008 45.9531 30.5381C46.0551 30.4089 46.1656 30.3297 46.2932 30.288C46.5355 30.213 46.7184 30.0629 46.8884 29.917C46.9607 29.8503 47.0245 29.8211 47.0925 29.8211C47.1138 29.8211 47.135 29.8252 47.1605 29.8336C47.2286 29.8503 47.2371 29.8794 47.2286 29.9253C47.2243 29.9503 47.2201 29.9753 47.2158 30.0003C47.2116 30.042 47.203 30.0837 47.1903 30.1254C47.0883 30.4756 47.05 30.83 47.0245 31.2552C46.999 31.7221 46.9862 32.1057 46.9862 32.4642C46.9905 33.0145 47.067 33.5356 47.2116 34.015C47.3178 34.3569 47.2711 34.6154 47.0585 34.8572ZM47.3731 29.2749C47.1223 29.1707 46.8757 29.0623 46.6291 28.9581C46.5228 28.9164 46.493 28.8706 46.493 28.858C46.5143 28.487 46.8884 28.0118 47.2796 28.0034L47.5389 27.9951C47.6962 27.9867 47.8493 27.9826 48.0024 27.9784C48.0959 27.9742 48.1979 27.9826 48.283 28.0243C48.3467 28.0534 48.402 28.0618 48.453 28.0409C48.5126 28.0201 48.5551 27.9742 48.5891 27.895L48.6018 27.8617C48.6146 27.8283 48.6273 27.7908 48.6444 27.7574C48.6486 27.7449 48.6529 27.7449 48.6571 27.7491C48.6571 27.8367 48.6741 27.9034 48.7209 27.9492C48.7634 27.9992 48.8314 28.0201 48.9207 28.0159C48.8569 28.2869 48.9462 28.5329 49.027 28.7538C49.044 28.7997 49.0568 28.8539 49.0653 28.9039L49.0738 28.9498L49.078 28.9664C49.0738 28.9706 49.0695 28.9748 49.0653 28.9789C48.9675 29.1165 48.6614 29.2249 48.4318 29.2749C48.4275 29.2749 48.419 29.2791 48.4105 29.2791C48.3297 29.3125 48.2319 29.3291 48.0916 29.3291C47.6367 29.3958 47.5262 29.3375 47.5219 29.3375C47.5134 29.325 47.5007 29.3166 47.4837 29.3125C47.4624 29.3083 47.4284 29.2958 47.3731 29.2749ZM49.2183 32.7602C48.9505 33.4314 48.5678 34.0275 48.0746 34.532C48.0704 34.532 48.0619 34.5445 48.0619 34.5445C48.0449 34.557 48.0321 34.5737 48.0151 34.5862C47.9981 34.607 47.9598 34.6404 47.9513 34.6445C47.9301 34.632 47.9173 34.6154 47.9088 34.5945C47.9088 34.582 47.9088 34.5862 47.9003 34.5778C47.8195 34.4111 47.7175 33.9775 47.6835 33.8441C47.5474 33.2855 47.4837 32.7185 47.5007 32.1599C47.5049 32.0223 47.5049 31.8847 47.5049 31.7471C47.5049 31.522 47.5049 31.2927 47.5219 31.0676C47.5517 30.6882 47.6537 30.3172 47.743 30.0379C47.7855 29.9086 47.8365 29.8794 48.0236 29.8794H48.0831C48.1724 29.8878 48.2702 29.8919 48.283 29.9045C48.2915 29.917 48.2872 29.9795 48.2872 30.0337C48.283 30.0629 48.283 30.0962 48.283 30.1296C48.266 30.7341 48.4998 31.2635 48.7464 31.7596C48.7506 31.7721 48.7591 31.7888 48.7676 31.8013C48.7889 31.8305 48.8059 31.8597 48.8144 31.893C48.8569 32.0348 48.959 32.1223 49.0398 32.1807C49.2651 32.3433 49.3161 32.51 49.2183 32.7602ZM49.9284 31.1802L49.8901 31.2635C49.8008 31.4636 49.7073 31.6679 49.567 31.843C49.5287 31.893 49.4819 31.9181 49.4394 31.9181H49.4309C49.3884 31.9139 49.3501 31.8847 49.3246 31.8347C49.0908 31.3803 48.8484 30.9092 48.7464 30.3881C48.6741 30.0003 48.7549 29.7335 49.0142 29.5292C49.061 29.4917 49.1035 29.4542 49.146 29.4167C49.1843 29.3792 49.2183 29.3458 49.2608 29.3125C49.2949 29.2875 49.3246 29.2749 49.3586 29.2749C49.3884 29.2749 49.4224 29.2874 49.4522 29.3166C49.567 29.4209 49.6945 29.4834 49.8603 29.5126C50.0219 29.5418 50.1154 29.6501 50.1409 29.8378C50.1494 29.9128 50.1579 29.9962 50.1622 30.0754C50.1664 30.1171 50.1707 30.1629 50.1707 30.2004C50.1877 30.5673 50.0602 30.9008 49.9284 31.1802ZM54.5882 34.9697L54.6052 35.0448C54.6604 35.2782 54.7115 35.495 54.737 35.7076C54.737 35.8077 54.7072 35.8827 54.6519 35.9244C54.6009 35.9578 54.5329 35.9619 54.4521 35.9369C54.2098 35.8577 53.9547 35.7702 53.64 35.6576C53.487 35.6034 53.3467 35.5159 53.1766 35.3741C53.0236 35.2407 52.862 35.1156 52.7047 34.9906C52.3901 34.7446 52.0669 34.4861 51.7948 34.1818C51.2974 33.6148 50.8595 33.0937 50.5193 32.485C50.4343 32.3266 50.3833 32.1557 50.328 31.9764C50.2982 31.8639 50.2642 31.7471 50.2175 31.6387C50.2047 31.5929 50.2302 31.5387 50.2472 31.5137C50.5406 31.0384 50.6511 30.4923 50.6044 29.7502C50.5916 29.5501 50.6171 29.5167 50.8255 29.4709C50.902 29.45 50.9828 29.4375 51.0635 29.4209C51.1231 29.4125 51.1868 29.4 51.2464 29.3875C51.3909 29.3583 51.5142 29.2874 51.6375 29.2166L51.6885 29.1916C51.6885 29.1916 51.7055 29.1791 51.7098 29.1791C51.7098 29.1791 51.7098 29.1818 51.7098 29.1874C51.8033 29.5709 52.0329 29.8794 52.2583 30.1754L52.2923 30.2255C52.4156 30.3839 52.5304 30.534 52.6239 30.7007C52.6579 30.7591 52.6962 30.8175 52.7599 30.855C53.1298 31.0718 53.3084 31.4261 53.4955 31.7972C53.9334 32.6685 54.2693 33.6482 54.5839 34.9697H54.5882ZM55.9614 29.3875C55.9614 29.3875 55.9614 29.3917 55.9699 29.3958C56.191 29.646 56.3951 29.917 56.5864 30.1838L56.7097 30.3464C57.0073 30.7549 57.2752 31.0718 57.543 31.3427C57.5983 31.3969 57.6153 31.4219 57.6153 31.4219C57.6068 31.4386 57.5303 31.472 57.5048 31.4845C57.2539 31.6096 56.9776 31.6387 56.6459 31.6429H56.6204C55.5788 31.6429 54.6732 31.4261 53.8484 30.9884C53.538 30.8216 53.1851 30.634 52.9002 30.363C52.8025 30.2672 52.7387 30.1504 52.6664 30.0295C52.6239 29.9628 52.5856 29.8919 52.5346 29.8252C52.4538 29.7127 52.3816 29.596 52.305 29.4792C52.2625 29.4125 52.22 29.35 52.1775 29.2833C52.1222 29.2041 52.0839 29.1082 52.0627 28.9998C52.0372 28.8539 52.0839 28.7747 52.22 28.7288C52.2923 28.7038 52.3645 28.6913 52.4283 28.6913C52.6792 28.6788 52.9173 28.5912 53.1724 28.4203C53.1851 28.412 53.1979 28.4036 53.2064 28.3953L53.2531 28.3494C53.2744 28.3328 53.3552 28.2911 53.6188 28.2911C53.6911 28.2911 53.7803 28.2952 53.8866 28.3036H53.9036C54.3586 28.3077 54.7327 28.3494 55.0813 28.5245C55.1749 28.5704 55.2599 28.6329 55.3449 28.6955C55.3875 28.7288 55.4342 28.7622 55.4853 28.7997L55.5065 28.8247C55.7701 29.1499 55.9232 29.3416 55.9614 29.3875ZM62.2751 26.5526C62.1306 26.7736 61.9307 26.9445 61.6799 27.0571C60.8721 27.4114 60.1493 27.6532 59.4648 27.795C59.1204 27.8658 58.7633 27.9075 58.4061 27.9159C57.9214 27.9325 57.458 28.0368 57.0286 28.1493C56.6545 28.2452 56.2803 28.2077 55.9614 28.1618C55.6086 28.116 55.2599 28.0243 54.9198 27.9409C54.7242 27.8909 54.5329 27.8408 54.3373 27.7991C54.2565 27.7825 54.1715 27.7658 54.0907 27.7491C53.9972 27.7283 53.8994 27.7074 53.8059 27.6866C53.6826 27.6574 53.623 27.5907 53.6188 27.4781C53.6145 27.2864 53.5805 27.0154 53.3169 26.8278C53.3127 26.8236 53.2999 26.8153 53.2999 26.8069C53.2957 26.7986 53.3042 26.7819 53.3169 26.7694C53.4785 26.5818 53.5082 26.3483 53.5167 26.1482C53.5167 26.0148 53.572 25.9231 53.6868 25.8439C53.7676 25.7897 53.8441 25.7313 53.9249 25.673C54.0354 25.5854 54.1502 25.4979 54.265 25.427C54.7285 25.1477 55.2514 25.0184 55.7063 24.9267C55.9657 24.8725 56.225 24.8475 56.4801 24.8434C56.748 24.8725 57.0201 24.885 57.2837 24.8934C57.7939 24.9142 58.3211 24.9351 58.8185 25.0935C59.0821 25.1727 59.35 25.1894 59.6093 25.2019C59.7284 25.2102 59.8517 25.2144 59.9707 25.2269C60.2216 25.2561 60.4767 25.3103 60.719 25.3603C60.8168 25.3811 60.9146 25.402 61.0081 25.4187C61.0422 25.427 61.0762 25.4395 61.1017 25.4604C61.395 25.6688 61.7139 25.7772 62.0498 25.8856C62.2156 25.9398 62.3261 26.0232 62.3687 26.1357C62.4112 26.2525 62.3772 26.3942 62.2751 26.5526Z" fill="#282828"/>
<path d="M56.9792 22.5171C56.9749 22.6172 56.9069 22.7422 56.8559 22.8256C56.6221 23.2133 56.35 23.6636 56.0396 24.0763C55.8993 24.2722 55.7037 24.4015 55.4571 24.464C55.3721 24.489 55.287 24.5099 55.202 24.5307C54.9427 24.5932 54.6706 24.6558 54.4197 24.7808C54.0073 24.9935 53.7012 25.2103 53.4673 25.4687L53.4461 25.4937C53.4461 25.4937 53.4248 25.5188 53.4078 25.5313C53.293 25.648 53.293 25.6522 53.1782 25.5521C52.8636 25.2936 52.5915 25.1435 52.3066 25.0643C52.3066 25.0602 52.3151 25.0602 52.3194 25.056C52.4087 24.9893 52.498 24.9226 52.583 24.8559L52.7531 24.7308C52.9146 24.6099 53.0464 24.464 53.1782 24.3223C53.2548 24.2347 53.3398 24.1472 53.4248 24.0638C53.4758 24.0179 53.5311 23.9762 53.5864 23.9346C53.7012 23.847 53.8202 23.7595 53.8883 23.6344C54.1476 23.1716 54.5983 23.0132 55.0745 22.8465L55.1637 22.8173C55.3083 22.7631 55.4529 22.7131 55.5974 22.663C55.9588 22.5421 56.3287 22.4129 56.6858 22.2628C56.7581 22.2295 56.8261 22.2295 56.8772 22.2628C56.9409 22.3045 56.9792 22.4004 56.9792 22.5171Z" fill="#EFEDE4"/>
<path d="M62.2588 26.5389C62.11 26.7598 61.9101 26.9307 61.6593 27.0433C60.8557 27.3977 60.1287 27.6395 59.4442 27.7812C59.0998 27.8521 58.7427 27.8938 58.3855 27.9021C57.9008 27.9188 57.4374 28.023 57.008 28.1356C56.6338 28.2315 56.2597 28.1939 55.9408 28.1481C55.5879 28.1022 55.2393 28.0105 54.8992 27.9271C54.7036 27.8771 54.5123 27.8271 54.3167 27.7854C54.2359 27.7687 54.1551 27.752 54.0701 27.7353C53.9766 27.7145 53.8788 27.6937 53.7852 27.6728C53.6619 27.6436 53.6024 27.5769 53.5982 27.4644C53.5939 27.2726 53.5599 27.0016 53.2963 26.814C53.2963 26.8098 53.2793 26.8015 53.2793 26.7932C53.2793 26.7848 53.2836 26.7682 53.2963 26.7556C53.4621 26.568 53.4876 26.3346 53.4961 26.1345C53.5004 26.0011 53.5557 25.9093 53.6662 25.8301C53.747 25.7759 53.8278 25.7176 53.9043 25.6592C54.0148 25.5717 54.1296 25.4841 54.2487 25.4132C54.7078 25.1339 55.2351 25.0047 55.6857 24.913C55.9451 24.8588 56.2087 24.8338 56.4595 24.8296C56.7274 24.8588 56.9995 24.8713 57.2631 24.8796C57.7733 24.9005 58.3005 24.9213 58.7979 25.0797C59.0658 25.1589 59.3294 25.1756 59.5887 25.1881C59.7078 25.1965 59.8311 25.2006 59.9501 25.2131C60.201 25.2423 60.4561 25.2965 60.6984 25.3465C60.7962 25.3674 60.894 25.3882 60.9875 25.4049C61.0215 25.4132 61.0556 25.4257 61.0811 25.4466C61.3744 25.655 61.6976 25.7634 62.0292 25.8718C62.195 25.926 62.3055 26.0094 62.3481 26.122C62.3906 26.2387 62.3608 26.3804 62.2588 26.5389Z" fill="white"/>
<path d="M57.6003 31.4092C57.6003 31.4092 57.5111 31.4592 57.4856 31.4717C57.2347 31.5968 56.9584 31.626 56.6267 31.6302H56.6012C55.5596 31.6302 54.654 31.4134 53.8291 30.9756C53.5188 30.8089 53.1659 30.6213 52.881 30.3503C52.7832 30.2544 52.7195 30.1377 52.6472 30.0168C52.6089 29.9501 52.5664 29.8792 52.5196 29.8125C52.4389 29.6999 52.3623 29.5832 52.2858 29.4665C52.2433 29.3998 52.2008 29.3372 52.1582 29.2705C52.103 29.1913 52.0647 29.0954 52.0477 28.987C52.0222 28.8411 52.069 28.7619 52.2008 28.7161C52.273 28.691 52.3453 28.6785 52.4091 28.6785C52.6599 28.666 52.898 28.5785 53.1531 28.4076C53.1701 28.3992 53.1786 28.3909 53.1871 28.3825L53.1999 28.37L53.2339 28.3367C53.2339 28.3367 53.3359 28.2783 53.5995 28.2783C53.6718 28.2783 53.7611 28.2825 53.8674 28.2908H53.8844C54.3393 28.295 54.7135 28.3367 55.0664 28.5118C55.1599 28.5576 55.2407 28.6202 55.3257 28.6827C55.3725 28.7161 55.415 28.7494 55.466 28.7869L55.4873 28.8119C55.7509 29.1371 55.9039 29.3289 55.9422 29.3748C55.9465 29.3748 55.9465 29.3789 55.9507 29.3831C56.1718 29.6332 56.3759 29.9042 56.5672 30.171L56.6905 30.3336C56.9881 30.7422 57.256 31.059 57.5238 31.33C57.5791 31.3842 57.5961 31.4092 57.6003 31.4092Z" fill="#F4F4F4"/>
<path d="M54.7162 35.6946C54.7162 35.7946 54.6864 35.8697 54.6311 35.9114C54.5801 35.9447 54.5121 35.9489 54.4313 35.9239C54.189 35.8447 53.9339 35.7571 53.6192 35.6446C53.4662 35.5904 53.3259 35.5028 53.1558 35.3611C53.0028 35.2277 52.8412 35.1026 52.6881 34.9775C52.3693 34.7316 52.0461 34.4731 51.774 34.1688C51.2766 33.6018 50.8387 33.0807 50.4985 32.472C50.4135 32.3136 50.3625 32.1426 50.3115 31.9634C50.2774 31.8508 50.2434 31.7341 50.2009 31.6257C50.1839 31.5798 50.2094 31.5256 50.2264 31.5006C50.524 31.0254 50.6346 30.4792 50.5836 29.7372C50.5708 29.5371 50.5963 29.5037 50.8047 29.4578C50.8812 29.437 50.962 29.4245 51.0427 29.4078C51.1023 29.3995 51.166 29.387 51.2256 29.3745C51.3701 29.3453 51.4977 29.2744 51.6167 29.2035L51.6677 29.1785C51.6677 29.1785 51.6847 29.166 51.689 29.166C51.689 29.1702 51.6932 29.1702 51.6932 29.1744C51.7868 29.5579 52.0164 29.8664 52.2417 30.1624L52.2757 30.2124C52.399 30.3708 52.5138 30.5209 52.6073 30.6877C52.6414 30.746 52.6796 30.8044 52.7434 30.8419C53.1133 31.0587 53.2919 31.4131 53.4789 31.7841C53.9211 32.6554 54.2527 33.6351 54.5674 34.9567L54.5844 35.0317C54.6396 35.2652 54.6907 35.482 54.7162 35.6946Z" fill="#F4F4F4"/>
<path d="M50.1551 30.1872C50.1678 30.5541 50.0403 30.8876 49.9085 31.1669L49.8702 31.2503C49.7809 31.4504 49.6874 31.6547 49.5471 31.8298C49.5131 31.8798 49.4663 31.9048 49.4195 31.9048H49.411C49.3685 31.9007 49.3302 31.8715 49.3047 31.8215C49.0709 31.367 48.8285 30.8959 48.7307 30.3748C48.6542 29.9871 48.735 29.7203 48.9943 29.516C49.0411 29.4785 49.0836 29.441 49.1262 29.4035C49.1644 29.3659 49.2027 29.3326 49.2409 29.2992C49.275 29.2742 49.309 29.2617 49.3387 29.2617C49.3728 29.2617 49.4025 29.2742 49.4323 29.3034C49.5471 29.4076 49.6789 29.4702 49.8404 29.4993C50.0062 29.5285 50.0955 29.6369 50.121 29.8245C50.1338 29.8996 50.138 29.9829 50.1423 30.0622C50.1466 30.1038 50.1508 30.1497 50.1551 30.1872Z" fill="#EFEDE4"/>
<path d="M49.1989 32.7474C48.9353 33.4186 48.5484 34.0148 48.0552 34.5192C48.0509 34.5192 48.0424 34.5317 48.0424 34.5317C48.0254 34.5443 48.0127 34.5609 47.9999 34.5734C47.9786 34.5943 47.9446 34.6276 47.9361 34.6318C47.9106 34.6193 47.8979 34.6026 47.8936 34.5818C47.8894 34.5693 47.8936 34.5734 47.8851 34.5651C47.8001 34.3983 47.698 33.9648 47.6683 33.8314C47.528 33.2727 47.4642 32.7058 47.4812 32.1471C47.4855 32.0095 47.4855 31.872 47.4855 31.7344C47.4855 31.5093 47.4855 31.28 47.5025 31.0548C47.5322 30.6755 47.6385 30.3044 47.7236 30.0251C47.7661 29.8959 47.8171 29.8667 48.0042 29.8667H48.0637C48.1572 29.875 48.2508 29.8792 48.2635 29.8917C48.272 29.9042 48.2678 29.9668 48.2678 30.0209C48.2635 30.0501 48.2635 30.0835 48.2635 30.1168C48.2465 30.7213 48.4803 31.2508 48.7269 31.7469C48.7354 31.7594 48.7439 31.7761 48.7524 31.7886C48.7695 31.8178 48.7865 31.8469 48.795 31.8803C48.8375 32.022 48.9395 32.1096 49.0246 32.168C49.2499 32.3305 49.3009 32.4973 49.1989 32.7474Z" fill="white"/>
<path d="M47.0374 34.8442C46.9694 34.9234 46.9056 35.011 46.8461 35.0943C46.8163 35.136 46.7865 35.1777 46.7568 35.2194C46.4549 35.6154 46.136 35.974 45.8129 36.295C45.7704 36.3367 45.7194 36.3784 45.6556 36.4242C45.5408 36.5034 45.4983 36.4993 45.4133 36.3867C45.3027 36.245 45.2347 36.074 45.2049 35.8656C45.1709 35.6238 45.1582 35.3736 45.1454 35.1318C45.1369 34.9568 45.1284 34.7817 45.1114 34.6066C45.0859 34.1938 45.0944 33.7686 45.1497 33.3392C45.1667 33.1933 45.1837 33.0474 45.2007 32.8973C45.2474 32.4512 45.2985 31.9885 45.426 31.5466C45.5536 31.113 45.7109 30.7878 45.932 30.5252C46.034 30.3959 46.1445 30.3167 46.2721 30.275C46.5144 30.2 46.6973 30.0499 46.8673 29.904C46.9396 29.8373 47.0034 29.8081 47.0714 29.8081C47.0927 29.8081 47.1182 29.8123 47.1394 29.8206C47.2117 29.8373 47.216 29.8665 47.2117 29.9123C47.2032 29.9373 47.199 29.9624 47.1947 29.9874C47.1904 30.0291 47.1819 30.0707 47.1692 30.1124C47.0672 30.4626 47.0289 30.817 47.0034 31.2422C46.9779 31.7091 46.9651 32.0927 46.9651 32.4512C46.9651 33.0015 47.0459 33.5226 47.1904 34.0021C47.2967 34.3439 47.25 34.6024 47.0374 34.8442Z" fill="#F4F4F4"/>
<path d="M46.2 28.4407C45.9534 28.8826 45.9959 29.2078 46.3488 29.5621C46.3658 29.583 46.3701 29.5913 46.3743 29.5955C46.3701 29.5955 46.3658 29.6038 46.3446 29.6205C46.2893 29.658 46.2255 29.6914 46.1447 29.7205C45.6005 29.9165 45.1456 30.2667 44.7629 30.5793C44.1209 31.1088 43.5767 31.7341 43.1303 32.2719C42.8412 32.6221 42.5223 32.9431 42.2205 33.235C41.9866 33.4601 41.808 33.6852 41.6677 33.9187C41.587 34.0521 41.4849 34.1104 41.3404 34.0938C40.945 34.0562 40.8599 34.0146 40.7706 33.6477C40.7196 33.4142 40.7069 33.1766 40.7026 32.8931C40.6856 32.5179 40.8217 32.101 40.945 31.78C41.2723 30.9129 41.8336 30.1124 42.6626 29.3245C43.3599 28.6658 44.0572 28.1905 44.797 27.8612C45.2901 27.6444 45.7153 27.5318 46.132 27.5068C46.1787 27.5068 46.2255 27.5068 46.2723 27.4818C46.3148 27.461 46.3531 27.4526 46.3956 27.4526C46.4764 27.4526 46.5571 27.4943 46.6634 27.5902C46.7187 27.6402 46.7825 27.6944 46.7867 27.7153C46.7867 27.732 46.7144 27.8028 46.6677 27.8487C46.4764 28.028 46.319 28.2281 46.2 28.4407Z" fill="white"/>
<path d="M46.324 26.8774C46.239 26.9441 46.1327 26.9566 46.0179 26.9692H45.9839C45.7501 27.0025 45.5545 27.0525 45.3802 27.1192C45.1421 27.2151 44.904 27.3068 44.6659 27.3986C44.4831 27.4694 44.296 27.5445 44.1089 27.6153C44.0707 27.632 44.0452 27.6362 44.0239 27.6278C43.7305 27.4944 43.4117 27.4653 43.1098 27.4569C42.7399 27.4486 42.4635 27.2318 42.2382 27.0317C42.234 27.0317 42.2255 27.0233 42.2212 27.0233C42.0979 26.8983 41.7578 26.7524 41.4857 26.644C41.4814 26.644 41.4729 26.6398 41.4687 26.6398C41.3624 26.6148 41.2518 26.5814 41.1498 26.5314C40.9925 26.4564 40.8224 26.3855 40.6268 26.3146C40.5673 26.2938 40.5291 26.2688 40.5205 26.2438C40.5078 26.2187 40.5206 26.1729 40.5503 26.1145C40.6651 25.8894 40.8564 25.7143 41.1711 25.5475C41.3581 25.4517 41.5707 25.3975 41.7578 25.3975H41.8088C42.0341 25.3975 42.1787 25.4266 42.3062 25.5017C42.5571 25.6434 42.8334 25.7018 43.1013 25.7518L43.1821 25.7685C43.3819 25.8102 43.5732 25.8936 43.7561 25.9728C43.8113 25.9978 43.8708 26.0228 43.9261 26.0436C44.6191 26.3355 45.3674 26.4981 46.1497 26.5314H46.188C46.188 26.5314 46.2178 26.5314 46.2263 26.5356C46.2603 26.5439 46.2985 26.5398 46.3283 26.5356C46.3878 26.5314 46.3921 26.5356 46.4048 26.5606C46.4431 26.669 46.4048 26.8149 46.324 26.8774Z" fill="#EFEDE4"/>
<path d="M55.2794 17.5513C55.2794 17.6972 55.2496 17.8347 55.1943 17.964C54.9307 18.5601 54.7394 19.1897 54.5566 19.7983C54.5183 19.9192 54.4843 20.0401 54.4461 20.161C54.1612 21.0824 53.8041 22.1663 53.3321 23.1877C53.1408 23.5962 52.958 23.9589 52.6519 24.2508C52.5413 24.3592 52.4138 24.48 52.2692 24.5676C52.0694 24.6843 51.8696 24.8261 51.6782 24.9928C51.5847 25.072 51.4742 25.0887 51.3509 25.1054C51.3636 25.0595 51.3849 25.0178 51.4019 24.9762C51.5592 24.6009 51.4954 24.3425 51.168 24.0882C50.9682 23.9297 50.7429 23.7672 50.4495 23.7338C50.3645 23.7213 50.3007 23.6588 50.2454 23.5295C50.1094 23.2169 50.0754 22.8959 50.1434 22.5832C50.2879 21.9287 50.5983 21.3325 51.0617 20.8114C51.1298 20.7405 51.185 20.6613 51.2318 20.5821C51.2658 20.5321 51.3041 20.4904 51.3466 20.4695C51.3551 20.4612 51.3636 20.4528 51.3679 20.4445L51.81 19.9109C51.8313 19.8859 51.8568 19.8609 51.8823 19.8358L52.4605 19.2897C52.5796 19.1605 52.7071 19.0396 52.8347 18.9228C52.975 18.7978 53.1153 18.6644 53.2428 18.5226C53.4044 18.3434 53.5702 18.1683 53.736 17.9973C53.8041 17.9265 53.8721 17.8514 53.9401 17.7806C54.1017 17.6096 54.2292 17.4262 54.327 17.2386C54.429 17.0385 54.7564 16.8509 54.9945 16.8634C55.0285 16.8676 55.0455 16.8801 55.071 16.9218C55.2113 17.1344 55.2794 17.3386 55.2794 17.5513Z" fill="white"/>
<path d="M51.1316 19.9822C50.8382 20.3032 50.4725 20.7034 50.2047 21.1495C49.8603 21.729 49.669 22.2334 49.6052 22.7337C49.5584 23.0922 49.6095 23.4257 49.7625 23.7134C49.771 23.7259 49.7753 23.7384 49.7753 23.7467H49.7498C49.6902 23.7426 49.635 23.7509 49.5754 23.7551C49.5457 23.7592 49.5202 23.7592 49.4777 23.7676C49.4522 23.7718 49.4394 23.7718 49.4394 23.7718C49.4394 23.7718 49.4309 23.7551 49.4309 23.7092C49.4309 23.3674 49.3714 23.0339 49.2481 22.6878C49.0695 22.1917 49.0015 21.6664 48.959 21.2162C48.942 21.0286 48.9462 20.8285 48.9547 20.6409C48.9547 20.5408 48.959 20.4408 48.959 20.3407C48.9675 20.2865 49.0057 20.0239 49.0482 19.7862L49.0695 19.657C49.1545 19.2193 49.2311 18.8065 49.5159 18.4605C49.6945 18.2437 49.9113 18.0728 50.1622 17.9561C50.243 17.9144 50.3705 17.8852 50.5236 18.0603C50.6299 18.1854 50.7191 18.3313 50.7829 18.5022C50.8935 18.794 50.9997 19.0859 51.106 19.3819L51.1953 19.6362C51.2506 19.7779 51.2336 19.878 51.1316 19.9822Z" fill="#F4F4F4"/>
<path d="M48.9647 23.6715C48.952 23.9008 48.8457 24.0676 48.6544 24.1634C48.2165 24.3886 48.1909 24.7846 48.2122 25.0598V25.0848C48.2165 25.1265 48.2207 25.1682 48.2207 25.1765C48.208 25.1848 48.1527 25.1973 48.1102 25.2015C47.634 25.2849 47.2641 25.4141 46.9367 25.6142C46.8644 25.6559 46.8092 25.706 46.7666 25.7643C46.6774 25.8977 46.5413 25.9686 46.3542 25.9769C46.0099 25.9936 45.6995 25.9644 45.4104 25.8811C45.2871 25.8435 45.168 25.8102 45.0447 25.7768C44.7896 25.706 44.526 25.6309 44.2709 25.5475C43.833 25.3975 43.3908 25.1515 42.9232 24.7971L42.6596 24.6012C42.2514 24.2927 41.8262 23.9717 41.4308 23.634C41.299 23.5214 41.18 23.388 41.0694 23.2379C41.0099 23.1629 40.9887 23.1004 41.0057 23.0503C41.0184 23.0003 41.0737 22.9545 41.1672 22.9128C41.5541 22.7585 41.9708 22.671 42.413 22.6626C42.4427 22.6626 42.4682 22.6585 42.498 22.6585C42.9614 22.6585 43.4461 22.7585 44.0158 22.9586C44.1051 22.992 44.1944 23.0253 44.2837 23.0545C44.526 23.1379 44.7769 23.2213 45.0107 23.3422C45.3253 23.4964 45.6102 23.709 45.8823 23.9133C45.9418 23.9592 45.9971 24.0009 46.0566 24.0425C46.1119 24.0842 46.1714 24.1301 46.2309 24.1718C46.3457 24.2635 46.469 24.3552 46.5966 24.4386C46.8432 24.6054 47.111 24.6929 47.3916 24.7012H47.549C47.668 24.7096 47.7913 24.7096 47.9146 24.7096C47.9911 24.7096 48.0506 24.6762 48.0804 24.622C48.1102 24.572 48.1059 24.5011 48.0634 24.4344C48.0039 24.3302 47.9018 24.2677 47.787 24.2635C47.1323 24.226 46.6986 23.8341 46.3245 23.4172C46.0524 23.1129 45.844 22.7543 45.6485 22.4042L45.6102 22.3458C45.3551 21.8997 45.066 21.4578 44.7896 21.0326C44.7046 20.9033 44.6196 20.7741 44.5345 20.6407C44.4197 20.4614 44.3305 20.2822 44.2709 20.1071C44.1434 19.7152 43.9691 19.3358 43.799 18.9731C43.7352 18.8397 43.6715 18.7021 43.6119 18.5687C43.5056 18.3311 43.4164 18.0851 43.3313 17.8433L43.2548 17.6182C43.1613 17.3639 43.1017 17.1096 43.038 16.8219C42.9699 16.5093 42.9359 16.1757 42.9444 15.8005C42.9487 15.7255 42.9614 15.663 42.9827 15.6046C43.0124 15.5421 43.0294 15.5296 43.0422 15.5254C43.0507 15.5254 43.072 15.5254 43.1272 15.5587C43.2846 15.6546 43.4291 15.7755 43.5694 15.8881C43.6204 15.9298 43.6715 15.9715 43.7225 16.0132C44.6196 16.7344 45.2786 17.3222 45.8483 17.9309C46.333 18.4395 46.8177 19.0106 47.3746 19.7235C47.9911 20.5156 48.3398 21.4078 48.6034 22.179C48.6374 22.2791 48.6714 22.3791 48.7096 22.475C48.8032 22.7252 48.901 22.9836 48.9392 23.2504C48.9562 23.3839 48.9733 23.5256 48.9647 23.6715Z" fill="white"/>
<path d="M83.2349 24.352C83.6029 22.928 83.6189 21.888 83.6189 20.8H75.3309V19.472H85.2509V20.688C85.2509 21.84 85.2509 23.04 84.8509 24.528L83.2349 24.352ZM86.8509 25.392V26.72H73.8269V25.392H78.9469V22.736H80.6109V25.392H86.8509ZM80.2909 27.84C83.3629 27.84 85.3469 28.864 85.3469 30.528C85.3469 32.208 83.3629 33.232 80.2909 33.232C77.1709 33.232 75.2029 32.208 75.2029 30.528C75.2029 28.864 77.1709 27.84 80.2909 27.84ZM80.2909 31.968C82.4189 31.968 83.6989 31.44 83.6989 30.528C83.6989 29.632 82.4189 29.104 80.2909 29.104C78.0989 29.104 76.8349 29.632 76.8349 30.528C76.8349 31.44 78.0989 31.968 80.2909 31.968ZM101.378 23.488H99.3297V26.928H97.6817V18.768H99.3297V22.128H101.378V23.488ZM95.3617 19.648C95.3617 23.408 92.8817 26 88.6097 27.152L87.9697 25.84C91.4257 24.944 93.3137 23.184 93.5857 20.992H88.6257V19.648H95.3617ZM90.0977 27.552H99.3297V33.056H90.0977V27.552ZM91.7297 31.728H97.6977V28.864H91.7297V31.728ZM118.475 30.112V31.472H105.387V30.112H111.083V27.2H106.859V19.744H108.491V22.176H115.339V19.744H116.971V27.2H112.731V30.112H118.475ZM108.491 25.872H115.339V23.504H108.491V25.872ZM131.913 18.784V33.232H130.345V25.888H128.633V32.512H127.081V19.072H128.633V24.528H130.345V18.784H131.913ZM121.913 28.176C123.193 28.128 124.553 28.048 126.153 27.744L126.329 29.152C124.393 29.52 122.761 29.584 121.225 29.584H120.265V20.448H121.913V28.176ZM145.784 18.784V33.232H144.136V18.784H145.784ZM141.528 20.304C141.528 24.608 139.8 28.256 134.84 30.656L133.96 29.344C137.752 27.504 139.56 24.976 139.832 21.648H134.68V20.304H141.528Z" fill="#282828"/>
</svg>
