<svg width="137" height="48" viewBox="0 0 137 48" fill="none" xmlns="http://www.w3.org/2000/svg">
<g clip-path="url(#clip0_2432_7242)">
<path d="M2.1563 43.0293C1.43553 43.0293 0.810864 42.6759 0.282301 41.9692C0.0961024 41.6924 0 41.4332 0 41.1859C0 40.909 0.0961024 40.6322 0.282301 40.3554C0.564602 39.9255 0.876935 39.7135 1.2193 39.7135C1.34543 39.7135 1.45355 39.7311 1.54965 39.7606C1.92205 39.8548 2.28243 39.896 2.6308 39.896C3.0993 39.896 3.58582 39.8195 4.08435 39.6663C7.14762 38.9596 8.77535 38.6062 8.96155 38.6062L14.7818 37.3164C14.5956 36.9807 14.4995 36.6744 14.4995 36.3976C14.4995 35.9677 14.6857 34.6779 15.0641 32.5341C15.1902 31.8921 15.2503 31.2443 15.2503 30.6023C15.2503 30.0192 15.2022 29.4244 15.1121 28.806L15.0641 28.1169C15.0641 27.4455 15.2142 26.8389 15.5085 26.297C15.8028 25.7611 16.1873 25.4901 16.6558 25.4901C17.5927 25.4901 18.0612 26.7152 18.0612 29.1711L17.7789 30.9674C17.2804 34.5542 16.854 36.5508 16.5116 36.9513L21.7672 35.8911C27.4613 34.8781 30.8549 34.1596 31.948 33.7297C32.2003 33.6354 32.4466 33.5942 32.6988 33.5942C33.1373 33.5942 33.5457 33.7297 33.9181 34.0065C34.3866 34.3716 34.6209 34.8487 34.6209 35.4317C34.6209 35.8322 34.4647 36.4447 34.1524 37.2693C33.9962 37.6344 33.7319 37.8229 33.3535 37.8229C33.1313 37.8229 32.9391 37.7405 32.7649 37.5697C32.5907 37.3989 32.4286 37.2045 32.2724 36.9689C32.1162 36.7392 31.882 36.6214 31.5696 36.6214L27.7195 37.2222C27.0288 37.2222 24.0136 37.711 18.6619 38.6946L10.0247 40.5792C8.89548 40.7971 7.77228 41.0386 6.64909 41.3154C5.58595 41.498 4.53483 41.9162 3.50774 42.5581C3.06927 42.8644 2.61879 43.0175 2.14429 43.0175L2.1563 43.0293ZM6.0965 29.9603C5.87426 29.9603 5.628 29.8366 5.3457 29.5952C4.84717 29.1947 4.5949 28.8413 4.5949 28.5351C4.5949 28.1699 4.62493 27.9697 4.691 27.9343C4.75106 27.9049 4.7871 27.8754 4.7871 27.8401C5.2556 27.5338 5.71209 27.2099 6.15055 26.8742C7.18366 25.9554 8.34289 25.2487 9.62226 24.7598C10.5893 24.4241 11.4542 23.9176 12.205 23.2403L19.2445 16.7088H19.2926C19.5448 16.4614 19.701 16.2317 19.7611 16.0197C19.7611 15.9608 19.719 15.8843 19.6409 15.79C19.5628 15.6958 19.4908 15.6546 19.4307 15.6546C18.3676 15.6546 17.3645 15.7311 16.4275 15.8843C14.8658 16.1611 13.2862 16.3319 11.6885 16.3908C11.0338 16.3908 10.4271 16.2317 9.88053 15.9078C9.33395 15.5839 9.04564 15.1186 9.0096 14.5061C9.0096 14.1409 9.14775 13.7993 9.43005 13.4931C9.61625 13.3105 9.82047 13.2163 10.0427 13.2163L10.325 13.2634C11.1359 13.5402 11.9527 13.6757 12.7636 13.6757C13.2922 13.6757 13.8327 13.6227 14.3853 13.5166C14.9319 13.4106 15.5025 13.34 16.0972 13.3105C16.3134 13.3105 16.5296 13.2811 16.7278 13.2163C16.932 13.1574 17.1423 13.122 17.3585 13.122C18.1694 13.0926 18.9202 12.8335 19.6109 12.3387C20.3016 11.8499 21.1606 11.6025 22.1937 11.6025L23.1306 11.6497C24.6923 11.6497 25.4792 12.327 25.4792 13.6757C25.4491 14.2882 25.1368 14.7947 24.5422 15.1952C22.3198 16.6381 20.2896 18.3697 18.4397 20.3957C19.0043 21.2555 19.659 21.8681 20.4098 22.2332C21.8513 23.0636 23.2268 23.8293 24.5422 24.536C25.323 24.9954 25.7314 25.5667 25.7615 26.2381C25.7615 26.6033 25.6593 26.9036 25.4551 27.1333C25.2509 27.363 24.9626 27.4808 24.5842 27.4808C24.0196 27.4808 23.425 27.1746 22.8003 26.562C22.3618 26.0732 20.7041 25.072 17.827 23.5701C16.9801 23.0813 16.4515 22.834 16.2293 22.834C15.977 22.834 15.7308 22.9576 15.4785 23.1991C12.7876 25.5903 11.0998 26.9449 10.4091 27.2511C9.09369 27.8636 7.90442 28.647 6.84129 29.5952C6.55899 29.8425 6.30672 29.9603 6.09049 29.9603H6.0965Z" fill="#282828"/>
<path d="M33.5398 32.3573C32.9752 32.3279 32.6929 32.0982 32.6929 31.6682C32.6929 31.5151 32.7469 31.3855 32.855 31.2795C32.9632 31.1735 33.3656 30.9497 34.0503 30.614C36.3327 29.6305 38.1947 28.3583 39.6363 26.7976C39.9186 26.4913 40.2609 26.244 40.6694 26.0614C41.7325 25.5725 42.7356 24.8187 43.6726 23.8057C44.0149 23.4052 44.3933 23.04 44.8018 22.6984C45.4565 22.0859 46.1292 21.2908 46.8199 20.3073C48.0993 18.7406 48.9162 17.1328 49.2585 15.4778C49.2285 15.4189 49.1204 15.3836 48.9282 15.3836C45.1141 15.6604 42.7836 15.8724 41.9367 16.0255C41.4382 15.9667 40.8856 15.9313 40.297 15.9313C39.8285 15.9313 38.6092 15.9784 36.6391 16.0668L36.591 16.1139C35.9003 16.055 35.5579 15.7311 35.5579 15.148C35.5579 14.4766 37.0295 14.0761 39.9666 13.9524C41.4682 13.8935 42.9398 13.7051 44.3753 13.3988C44.6276 13.3694 44.9219 13.3517 45.2643 13.3517H46.0151C47.6128 13.3517 49.1564 12.9983 50.658 12.2916C50.8442 12.1679 51.0484 12.109 51.2707 12.109C51.8353 12.109 52.2377 12.4152 52.49 13.0278C52.6161 13.3635 52.6762 13.6697 52.6762 13.9465C52.6762 14.0997 52.6581 14.241 52.6281 14.3588C52.502 14.6651 52.4059 15.0008 52.3458 15.3718C52.1596 16.2317 51.8112 17.0268 51.3127 17.763C51.0304 18.0987 50.8442 18.4226 50.7481 18.7289C49.4327 21.7384 47.4146 24.1885 44.6937 26.0908C42.4713 27.8695 39.9546 29.4832 37.1376 30.9203C35.8222 31.7507 34.6209 32.2219 33.5218 32.3455L33.5398 32.3573ZM58.7366 48C58.5504 48 58.3642 47.9706 58.172 47.9058C58.172 47.8763 58.154 47.8587 58.124 47.8587C57.9378 47.8292 57.7636 47.7644 57.6074 47.6761C56.9167 47.2756 56.5743 46.7868 56.5743 46.2037C56.5743 45.8032 56.8146 45.4086 57.3011 45.0081C57.7876 44.6076 58.106 44.1011 58.2621 43.4886C59.073 39.2246 59.4994 36.9276 59.5295 36.586C59.5295 36.2798 59.3733 36.1266 59.061 36.1266H58.8748C57.8116 36.3446 56.7305 36.48 55.6373 36.5389C54.2919 36.6037 52.9765 36.7981 51.6971 37.1397C51.1626 37.2633 50.604 37.3222 50.0093 37.3222C49.0063 37.3222 48.0693 37.5519 47.1923 38.0113C47.0662 38.1055 46.928 38.1468 46.7719 38.1468C46.4595 38.1173 46.1953 37.976 45.973 37.7345C45.6307 37.1809 45.4565 36.7215 45.4565 36.3563C45.4565 35.6849 45.8169 35.3433 46.5376 35.3433H46.8199C47.0722 35.4081 47.4746 35.4376 48.0392 35.4376C48.8501 35.4376 49.715 35.3433 50.622 35.1608C52.0635 34.8251 53.5171 34.6543 54.9886 34.6543H55.319C56.1959 34.6543 56.8026 34.4069 57.1509 33.9181C57.3672 33.706 57.5233 33.5941 57.6194 33.5941H57.8537C58.3222 33.5941 58.8808 33.3939 59.5175 32.9934C60.1601 32.5929 60.6827 32.3927 61.0911 32.3927C61.5596 32.3927 61.9501 32.5752 62.2624 32.9463C62.4786 33.1936 62.5927 33.4822 62.5927 33.8179C62.5927 34.0005 62.5447 34.2184 62.4546 34.4599C61.5777 36.8216 60.983 39.3365 60.6707 42.0044C60.5446 42.8938 60.3884 43.6889 60.2022 44.3956C60.0761 44.7608 60.016 45.1495 60.016 45.5441C60.016 45.8209 60.046 46.1095 60.1121 46.4157L60.1601 46.6925C60.1601 47.093 60.01 47.4052 59.7157 47.6349C59.4153 47.8646 59.097 47.9824 58.7546 47.9824L58.7366 48ZM59.067 31.8037C58.3162 31.8037 57.9378 31.1617 57.9378 29.8719C57.9678 28.9532 58.0159 28.3819 58.0759 28.1698C58.4483 26.5443 58.6405 24.9365 58.6405 23.3404L58.5925 22.2803C58.5925 20.5605 58.6886 18.8584 58.8748 17.174L59.2051 11.2844C59.2051 10.3009 59.079 9.35266 58.8327 8.43389L58.7847 7.83316C58.7847 7.03806 59.1451 6.63757 59.8658 6.63757C60.1481 6.63757 60.4304 6.73181 60.7127 6.91438C61.1812 7.25009 61.4155 7.77426 61.4155 8.48101C61.0731 12.8687 60.8028 16.7794 60.6166 20.213H60.7127C60.7428 20.1836 62.9051 20.0776 67.1876 19.8891C67.9384 19.8891 68.437 20.2248 68.6892 20.9021C68.7853 21.0847 68.8274 21.2673 68.8274 21.4557C68.8274 21.9446 68.5211 22.3156 67.9144 22.563C67.3018 22.8103 66.7311 22.9281 66.2026 22.9281C65.8602 22.9281 65.5118 22.8516 65.1695 22.6984C65.1395 22.669 65.0494 22.6278 64.9112 22.5806C64.7731 22.5335 64.2805 22.51 63.4336 22.51C62.1182 22.5394 61.1812 22.5865 60.6166 22.6454V23.6584H60.6647L60.5686 26.4678C60.5686 27.3571 60.6467 28.2464 60.8028 29.1357C60.8629 29.3831 60.8989 29.6128 60.8989 29.8248C60.8989 30.6847 60.5085 31.2795 59.7277 31.6211C59.5054 31.7448 59.2892 31.8037 59.073 31.8037H59.067Z" fill="#282828"/>
<path d="M86.2278 31.945C86.1017 31.945 85.9756 31.8979 85.8554 31.8096C85.3869 31.5328 85.0446 31.1499 84.8223 30.6611C84.1016 29.2535 83.0384 28.0991 81.6329 27.2098C80.8821 26.6268 80.2695 26.3382 79.801 26.3382C79.6448 26.3382 79.5127 26.3853 79.4046 26.4736C79.2964 26.5679 79.2063 26.6444 79.1463 26.7033C76.083 29.0945 74.221 30.614 73.5603 31.256C73.0918 31.6859 72.6834 31.8979 72.341 31.8979C71.8725 31.8979 71.4941 31.5328 71.2118 30.7907C71.1518 30.667 71.1157 30.5315 71.1157 30.3784C71.1157 29.8248 71.5362 29.2712 72.3831 28.7234C74.6955 27.3158 76.8398 25.6844 78.8099 23.8469C81.3146 21.7031 82.9724 20.0304 83.7832 18.829C84.0655 18.4933 84.2037 18.2753 84.2037 18.187C84.2037 18.1281 84.1796 18.0398 84.1316 17.9337C84.0835 17.8277 82.5099 17.7571 79.4166 17.7276C78.6357 17.7276 77.8849 17.8513 77.1642 18.0928C76.9119 18.1575 76.6777 18.187 76.4614 18.187C76.023 18.187 75.6325 18.0515 75.2902 17.7747C74.7256 17.3448 74.4433 16.7794 74.4433 16.0726C74.5994 15.4896 75.0199 15.201 75.7106 15.201C77.6807 15.4189 79.0742 15.5249 79.8851 15.5249C80.8881 15.5249 81.9032 15.466 82.9363 15.3423C83.9033 15.3423 84.8764 15.0537 85.8434 14.4707C86.0957 14.3175 86.2819 14.241 86.408 14.241C86.6603 14.241 87.1588 14.5944 87.9096 15.3011C88.282 15.6074 88.4742 15.8842 88.4742 16.1315C88.4742 16.3141 88.3961 16.532 88.24 16.7735C86.8345 19.1352 84.8163 21.5735 82.1855 24.0883C81.9032 24.3357 81.7651 24.536 81.7651 24.6891C81.7651 24.9659 82.2636 25.549 83.2667 26.4383C83.6751 26.8034 84.0475 27.1745 84.3959 27.5455C84.5821 27.7281 84.7863 27.8223 85.0085 27.8223C85.1647 27.8223 85.3149 27.787 85.453 27.7045C85.5911 27.628 85.7113 27.5868 85.8074 27.5868C86.1197 27.5868 86.2759 27.7575 86.2759 28.0933C86.3059 29.012 86.5101 29.8896 86.8885 30.7141L86.9366 30.9438C86.9366 31.5858 86.7023 31.9274 86.2338 31.9568L86.2278 31.945ZM86.0416 45.1023C84.8824 45.1023 84.3058 44.2425 84.3058 42.5227C84.3058 40.3789 83.8493 38.3352 82.9423 36.4034C82.8162 36.1266 82.6901 35.6849 82.5699 35.0665C82.5699 34.6366 82.8522 34.4245 83.4168 34.4245C84.0115 34.4245 84.3718 34.6542 84.498 35.1136C84.6842 35.8793 84.9064 36.6155 85.1527 37.3222C85.5911 38.612 85.9035 39.9313 86.0897 41.28C86.1497 41.6805 86.2218 42.0633 86.2999 42.4285C86.378 42.7936 86.6182 43.0115 87.0267 43.0704C87.2789 43.1293 87.4772 43.1941 87.6393 43.253C87.7955 43.3119 87.8736 43.5593 87.8736 43.9892L87.9216 44.3544C86.9486 44.8432 86.3239 45.0906 86.0476 45.0906L86.0416 45.1023ZM89.2791 47.3109C88.9968 47.3109 88.7145 47.252 88.4322 47.1283C87.8375 46.8515 87.5072 46.3745 87.4471 45.7031C87.4471 45.4852 87.6213 45.0434 87.9637 44.3661L88.4802 44.319L89.3271 44.3661C91.1711 44.3661 92.9069 43.7831 94.5347 42.6169C94.9071 42.3107 95.0993 41.8336 95.0993 41.1917L95.1473 41.0091C94.6488 40.7617 94.3485 40.5968 94.2584 40.5026C93.8499 40.0432 93.3334 39.8135 92.7087 39.8135C91.4894 39.9077 90.6606 40.32 90.2221 41.0562C89.8497 41.6098 89.4533 41.8866 89.0508 41.8866C88.8646 41.8866 88.6604 41.8101 88.4382 41.6569C87.9997 41.3212 87.7835 40.9384 87.7835 40.5085C87.7835 40.3553 87.8135 40.1845 87.8796 40.002C88.1619 39.3895 88.5823 38.9124 89.1469 38.5767C90.2401 37.9347 91.3693 37.6108 92.5225 37.6108C93.898 37.6108 94.871 37.8876 95.4296 38.4412L95.76 38.718C95.9762 38.3823 96.1684 37.7993 96.3246 36.9688C96.5769 36.109 96.697 35.2373 96.697 34.348V34.0241C96.697 33.0758 97.0574 32.5988 97.7781 32.5988C98.1866 32.5988 98.5229 32.7578 98.7872 33.0817C99.0515 33.4056 99.1836 33.812 99.1836 34.3009C99.1836 34.9428 98.4509 37.6461 96.9793 42.399C96.727 42.9821 96.6069 43.5063 96.6069 43.9656L96.6549 44.6547C96.6549 45.2083 95.9041 45.5441 94.4025 45.6677C92.8709 45.6972 91.4774 46.1742 90.2281 47.093C89.8857 47.2461 89.5734 47.3227 89.2911 47.3227L89.2791 47.3109ZM96.1744 32.587C96.0483 32.587 95.9222 32.5399 95.802 32.4515C95.0813 31.839 94.7209 31.1971 94.7209 30.5198C94.7209 30.3077 94.7509 30.0898 94.817 29.8778C95.2855 28.158 95.6278 25.3664 95.8501 21.5028C96.1324 18.0044 96.2885 15.6604 96.3186 14.4648C96.3186 13.0866 96.1144 12.1325 95.7059 11.6142C95.1714 10.7249 94.9071 9.78847 94.9071 8.80491V8.48098L94.859 8.34552C94.859 8.09816 94.877 7.86258 94.9071 7.63289C94.9371 7.40319 95.1413 7.2854 95.5197 7.2854C95.802 7.2854 96.1924 7.42086 96.691 7.69767C98.0664 8.71068 98.7572 11.2726 98.7572 15.3836C98.7572 16.6086 98.6791 17.8218 98.5229 19.0174C98.4268 19.6947 98.1625 22.1625 97.7241 26.4265C97.2556 29.9249 96.9913 31.7978 96.9252 32.0393C96.8652 32.4044 96.6129 32.5929 96.1744 32.5929V32.587Z" fill="#282828"/>
<path d="M124.321 15.2246C124.309 15.4013 124.206 15.5603 124.02 15.7193C123.948 15.7782 123.87 15.8371 123.798 15.8901C123.732 15.9431 123.672 15.9961 123.606 16.0433C123.354 16.2376 123.089 16.3613 122.813 16.4084C121.75 16.591 121.065 16.6145 120.795 16.4791C120.482 16.326 120.398 15.7429 120.362 15.525V15.4543C120.32 15.2717 120.212 14.8889 120.206 14.883C120.206 14.8712 120.2 14.8653 120.2 14.8595C120.212 14.8241 120.284 14.777 120.32 14.7476L120.362 14.7063C120.675 14.4295 121.059 14.1409 121.576 14.0703C121.756 14.0467 121.924 13.9819 122.086 13.923C122.164 13.8877 122.242 13.8641 122.326 13.8406C122.459 13.7934 122.573 13.7934 122.663 13.8288C123.155 14.0114 123.702 14.2587 124.122 14.7181C124.273 14.8889 124.345 15.0597 124.333 15.2305L124.321 15.2246Z" fill="#FFE888"/>
<path d="M122.525 18.2872C122.345 18.4285 122.146 18.6111 121.978 18.8408C121.846 19.0234 121.648 19.0882 121.45 19.1353C121.438 19.1353 121.432 19.1412 121.426 19.1412L120.789 19.3237C120.747 19.3414 120.681 19.3591 120.591 19.3826H120.567C120.032 19.5299 119.588 19.471 119.155 19.2001C118.663 18.8938 118.501 18.4403 118.663 17.8867C118.843 17.3272 119.179 16.9856 119.696 16.8501C119.756 16.8325 119.81 16.7971 119.846 16.7736C119.864 16.7559 119.906 16.7264 119.918 16.7264C119.966 16.75 120.002 16.8089 120.044 16.8619C120.068 16.8972 120.092 16.9208 120.11 16.9444C120.369 17.2565 120.705 17.4096 121.107 17.4096H121.125C121.492 17.4096 121.846 17.3861 122.116 17.3566C122.441 17.339 122.597 17.4214 122.711 17.6864C122.795 17.8926 122.729 18.1046 122.519 18.2813L122.525 18.2872Z" fill="#F4D13D"/>
<path d="M118.008 19.359C118.008 19.359 117.996 19.3708 117.99 19.3767C117.84 19.5887 117.359 19.7595 117.005 19.8361C116.999 19.8361 116.987 19.842 116.969 19.842C116.843 19.895 116.692 19.9185 116.47 19.9185C115.761 20.0245 115.587 19.9303 115.581 19.9303C115.569 19.9126 115.545 19.895 115.521 19.8891C115.485 19.8832 115.437 19.8655 115.347 19.8302C114.957 19.6653 114.572 19.5004 114.188 19.3355C114.02 19.2707 113.978 19.2 113.978 19.1823C114.014 18.6051 114.596 17.8631 115.203 17.8513L115.605 17.8395C115.852 17.8277 116.086 17.8218 116.326 17.8159C116.47 17.8101 116.632 17.8218 116.765 17.8866C116.867 17.9337 116.951 17.9455 117.029 17.9102C117.119 17.8748 117.185 17.8042 117.239 17.6805L117.257 17.6275C117.275 17.5745 117.299 17.5156 117.323 17.4626C117.329 17.4449 117.335 17.4449 117.341 17.4508C117.335 17.5862 117.365 17.6923 117.443 17.7629C117.509 17.8395 117.617 17.8748 117.756 17.8689C117.653 18.293 117.798 18.6758 117.924 19.0174C117.948 19.0881 117.972 19.1705 117.984 19.253L117.996 19.3237L118.002 19.3472L118.008 19.359Z" fill="#FFE888"/>
<path d="M118.296 15.9843C117.834 16.4791 117.287 16.803 116.681 16.9502C116.567 16.9856 116.446 16.9856 116.314 16.9915C116.254 16.9915 116.188 16.9915 116.134 16.9973C115.852 16.9973 115.473 16.9738 115.119 16.7794C114.518 16.4378 114.404 15.5308 114.717 14.9831C114.885 14.6827 115.095 14.4884 115.371 14.3883C115.678 14.2764 116.008 14.2057 116.356 14.1821H116.41C116.621 14.1821 116.801 14.2705 116.909 14.4472C117.125 14.8064 117.443 15.0008 117.906 15.0597C118.158 15.0832 118.35 15.2246 118.429 15.4248C118.501 15.6192 118.447 15.8253 118.29 15.9961L118.296 15.9843Z" fill="#F4D13D"/>
<path d="M120.975 13.3281C120.633 13.7345 120.182 13.9878 119.702 14.2587L119.659 14.2822C119.263 14.3706 118.945 14.347 118.933 14.347C118.494 14.3588 118.146 14.2764 117.834 14.0997C117.569 13.9583 117.365 13.5873 117.329 13.1986C117.311 12.9865 117.335 12.5802 117.701 12.2916C117.888 12.1384 118.062 12.0383 118.23 11.9676L118.344 11.9146C118.344 11.9146 118.59 11.7792 118.993 11.7792C119.017 11.7792 119.047 11.7851 119.071 11.7851C119.257 11.8086 119.443 11.8204 119.617 11.8263C119.756 11.8322 119.9 11.8322 120.044 11.844C120.128 11.8557 120.194 11.8616 120.23 11.8675C120.236 11.8734 120.248 11.8793 120.266 11.8793C120.32 11.8911 120.5 11.95 120.717 12.1443C120.969 12.374 120.999 12.4565 121.035 12.5448C121.035 12.5566 121.041 12.5684 121.047 12.5802C121.239 12.8157 121.221 13.0278 120.975 13.3281Z" fill="#F4D13D"/>
<path d="M136.946 15.4307C136.88 15.201 136.742 15.0538 136.52 14.9772C136.309 14.9066 136.105 14.8418 135.907 14.7475C135.21 14.4236 134.448 14.1056 133.631 13.9583C133.09 13.8582 132.531 13.7699 131.997 13.6874C131.474 13.605 130.928 13.5225 130.399 13.4283C129.588 13.281 128.723 13.2221 127.84 13.2516C128.321 12.9453 128.615 12.4918 128.838 12.0913C128.91 11.9677 128.976 11.8381 129.042 11.7144C129.114 11.579 129.186 11.4435 129.264 11.3139C129.582 10.7544 129.54 10.2656 129.12 9.78852C128.952 9.59417 128.753 9.52938 128.507 9.58239C127.925 9.70018 127.336 9.88865 126.585 10.1772C126.345 10.2715 126.099 10.3539 125.858 10.4246C125.39 10.5777 124.903 10.7309 124.453 11.0136C124.459 11.0018 124.459 10.99 124.465 10.9841L124.483 10.9429C124.615 10.6013 124.747 10.2656 124.879 9.92398C125.138 9.27613 125.402 8.60472 125.642 7.93331C125.828 7.41503 126.003 6.88496 126.171 6.37257C126.381 5.74239 126.591 5.08865 126.825 4.45846C127.102 3.71638 127.036 3.04496 126.627 2.41478C126.525 2.26165 126.375 2.02607 126.075 1.99662C125.438 1.94362 124.933 2.13208 124.591 2.56791L124.495 2.6857C124.159 3.10975 123.81 3.54558 123.438 3.95196C123.065 4.35834 122.657 4.75294 122.267 5.13576C121.882 5.50092 121.492 5.88374 121.125 6.27834C121.113 6.29012 121.101 6.3019 121.089 6.31368C121.083 6.31368 121.083 6.31957 121.077 6.31957C120.993 6.06042 120.903 5.80717 120.813 5.55392C120.735 5.33601 120.657 5.11809 120.585 4.90018C120.435 4.47024 120.206 4.07564 119.906 3.73404C119.546 3.32766 119.131 3.26877 118.669 3.55147C117.99 3.96963 117.491 4.61159 117.149 5.51858C116.825 6.36668 116.825 7.25012 116.843 8.08644C116.849 8.19834 116.849 8.30435 116.849 8.41625C116.819 8.35147 116.795 8.28668 116.765 8.2219C116.608 7.84496 116.44 7.45036 116.182 7.10877C116.02 6.90263 115.858 6.70239 115.69 6.49625C115.461 6.21355 115.227 5.92496 115.005 5.63049C114.326 4.69404 113.509 3.79294 112.362 2.70337C111.809 2.18509 111.209 1.65503 110.41 0.983615C110.32 0.91294 110.236 0.836376 110.152 0.765701C109.905 0.553676 109.653 0.335762 109.383 0.147296C109.281 0.0825106 108.986 -0.117735 108.71 0.0942897C108.296 0.418216 108.085 0.77748 108.061 1.18975C108.037 1.61969 108.091 2.05552 108.145 2.42656C108.224 2.93895 108.362 3.42779 108.542 4.01085C108.692 4.4938 108.86 5.00619 109.113 5.48914C109.317 5.86018 109.533 6.26656 109.677 6.70239C109.815 7.12644 110.013 7.56815 110.296 8.09822C110.638 8.74018 111.035 9.35858 111.419 9.95932C111.587 10.2244 111.755 10.4835 111.924 10.7544C112.05 10.9488 112.176 11.1667 112.296 11.4082C112.254 11.3846 112.212 11.361 112.164 11.3434C111.113 10.8781 110.14 10.5836 109.191 10.4423C109.131 10.4305 109.064 10.4246 108.998 10.4187L108.872 10.401C107.863 10.2479 106.944 10.2832 106.061 10.4953C105.917 10.5306 105.791 10.6013 105.677 10.7014C105.359 10.9841 105.304 11.632 105.569 12.056C105.851 12.5154 106.265 12.857 106.662 13.1809L106.728 13.2339C106.8 13.2987 106.878 13.3635 106.95 13.4283C107.227 13.6639 107.515 13.8994 107.827 14.1115C107.581 14.0644 107.341 14.0408 107.094 14.0408C106.181 14.0408 105.431 14.4472 104.86 15.254C104.71 15.4661 104.65 15.6958 104.692 15.9078C104.734 16.1316 104.884 16.3318 105.124 16.4909C105.256 16.5792 105.407 16.6499 105.557 16.7205C105.911 16.8855 106.271 17.0386 106.62 17.1623C106.956 17.2859 107.245 17.4862 107.545 17.6982C107.635 17.763 107.731 17.8278 107.821 17.8867C108.212 18.1458 108.614 18.2872 109.046 18.3166C109.107 18.3166 109.167 18.3225 109.227 18.3284C109.335 18.3343 109.443 18.3461 109.545 18.3461C109.521 18.3637 109.503 18.3814 109.479 18.3991C109.395 18.4521 109.311 18.511 109.233 18.5699C108.536 19.1058 107.857 19.7478 107.034 20.6607C106.277 21.5029 105.701 22.4393 105.328 23.4405C104.914 24.5596 104.842 25.5667 105.112 26.509C105.328 27.2629 105.479 27.628 106.566 27.6928C107.208 27.7282 107.599 27.5161 107.839 27.0037C107.977 26.7034 108.206 26.4383 108.53 26.191C108.848 25.9554 109.149 25.655 109.425 25.3017C109.995 24.5596 110.776 23.6055 111.719 22.7986C111.761 22.7632 111.809 22.7279 111.857 22.6985C111.875 22.6867 111.899 22.669 111.918 22.6572L111.881 22.7868C111.815 23.0047 111.749 23.2285 111.695 23.4523C111.473 24.3534 111.329 25.3075 111.275 26.297C111.209 27.4985 111.227 28.4938 111.329 29.4361C111.377 29.8425 111.479 30.3667 111.833 30.8143L111.857 30.8437C111.942 30.9498 112.05 31.0793 112.23 31.0793H112.254C112.614 31.0499 113.077 30.9733 113.425 30.5905C113.515 30.4904 113.605 30.3902 113.689 30.2901C113.779 30.19 113.864 30.0899 113.954 29.9956L114.146 29.7836C114.56 29.3242 114.987 28.8472 115.323 28.3112C115.341 28.2818 115.353 28.27 115.353 28.2641C115.359 28.27 115.371 28.2818 115.383 28.3053C115.425 28.376 115.479 28.4349 115.533 28.4938L115.563 28.5291C115.647 28.6175 115.726 28.6587 115.816 28.6646C115.894 28.6705 115.978 28.6293 116.056 28.5586C116.146 28.4761 116.236 28.3996 116.326 28.323C116.681 28.0109 117.047 27.6928 117.275 27.2393C117.311 27.1745 117.359 27.1098 117.425 27.045C117.443 27.0214 117.84 26.4972 117.996 26.2028L118.008 26.1851C118.008 26.1851 118.02 26.1556 118.026 26.1498C118.254 25.6609 118.386 25.2133 118.434 24.7893C118.44 24.7304 118.458 24.6832 118.507 24.6244C118.549 24.5772 118.609 24.5066 118.657 24.4948C118.729 24.6479 119.227 25.6609 119.552 26.0614C119.57 26.085 119.588 26.1085 119.606 26.1321L119.648 26.1792C119.858 26.4501 120.074 26.7269 120.308 26.9861C120.993 27.734 121.738 28.5232 122.633 29.1652C123.42 29.7306 124.201 30.0899 125.017 30.2548C125.54 30.3667 126.021 29.9721 126.123 29.5539C126.201 29.2241 126.141 28.9178 126.063 28.6057C125.991 28.323 125.924 28.0403 125.858 27.7517C125.75 27.3041 125.642 26.8388 125.522 26.3853C125.27 25.4548 124.939 24.377 124.345 23.3817L124.399 23.3993C124.483 23.4347 124.567 23.4641 124.657 23.4994L124.867 23.576C125.3 23.7409 125.744 23.9058 126.201 24.0236C127.054 24.2356 127.895 24.218 128.832 24.1709C129.402 24.1473 129.901 23.9471 130.315 23.576C130.459 23.4523 130.495 23.311 130.423 23.1343C130.369 22.9988 130.279 22.8987 130.183 22.8045L130.135 22.7456C129.985 22.5866 129.841 22.4275 129.69 22.2685C129.39 21.9505 129.078 21.6266 128.807 21.2791C128.729 21.1731 128.645 21.0729 128.567 20.9669C128.237 20.537 127.895 20.0953 127.498 19.7007C127.39 19.5947 127.3 19.471 127.204 19.3414L127.132 19.2472C127.132 19.2472 127.126 19.2354 127.12 19.2354H127.132C127.69 19.2943 128.249 19.2707 128.832 19.1588C129.732 18.9939 130.627 18.8585 131.498 18.7348C131.721 18.6994 131.937 18.67 132.159 18.6405C132.622 18.5758 133.102 18.511 133.571 18.4167C133.787 18.3755 133.985 18.2931 134.183 18.2047C134.58 18.0221 134.916 17.8867 135.252 17.7866C135.649 17.657 136.153 17.4567 136.514 17.0209C136.952 16.4967 137.096 15.9785 136.946 15.4307ZM125.997 11.1019L126.123 11.0607C126.333 10.9841 126.537 10.9134 126.741 10.8428C127.246 10.672 127.774 10.4894 128.279 10.2774C128.381 10.2302 128.477 10.2302 128.549 10.2774C128.639 10.3363 128.693 10.4717 128.693 10.6366C128.693 10.778 128.585 10.9547 128.513 11.0724C128.189 11.6202 127.804 12.2563 127.366 12.8393C127.168 13.1161 126.891 13.2987 126.543 13.3871C126.423 13.4224 126.303 13.4518 126.183 13.4813C125.81 13.5696 125.432 13.658 125.078 13.8347C124.489 14.135 124.062 14.4413 123.732 14.8064L123.702 14.8418L123.648 14.8948C123.486 15.0597 123.486 15.0656 123.324 14.9242C122.879 14.5591 122.495 14.3471 122.092 14.2351C122.098 14.2293 122.104 14.2293 122.11 14.2234C122.236 14.1291 122.357 14.0349 122.483 13.9407L122.723 13.764C122.945 13.5932 123.137 13.3871 123.318 13.1868C123.432 13.0631 123.552 12.9394 123.672 12.8217C123.744 12.7569 123.822 12.698 123.9 12.6391C124.062 12.5154 124.225 12.3917 124.327 12.215C124.693 11.5613 125.33 11.3375 125.997 11.1019ZM117.419 15.8194C117.648 15.843 117.822 15.9667 117.894 16.1493C117.96 16.3259 117.912 16.5144 117.768 16.6675C117.347 17.1151 116.855 17.4096 116.302 17.5451C116.2 17.5745 116.092 17.5745 115.972 17.5804C115.918 17.5804 115.858 17.5804 115.81 17.5863C115.551 17.5863 115.209 17.5628 114.891 17.3861C114.344 17.0739 114.242 16.2553 114.524 15.7547C114.674 15.4837 114.867 15.3071 115.119 15.2128C115.395 15.1127 115.696 15.0479 116.014 15.0244H116.062C116.254 15.0244 116.416 15.1068 116.512 15.2658C116.711 15.5898 116.999 15.7664 117.419 15.8194ZM117.233 13.3164C117.401 13.175 117.558 13.0867 117.714 13.0219L117.816 12.9748C117.816 12.9748 118.038 12.8511 118.404 12.8511C118.428 12.8511 118.452 12.857 118.476 12.857C118.645 12.8805 118.813 12.8864 118.975 12.8923C119.101 12.8923 119.233 12.8923 119.359 12.91C119.438 12.9218 119.498 12.9277 119.528 12.9336C119.528 12.9336 119.546 12.9453 119.558 12.9453C119.606 12.9571 119.768 13.0101 119.966 13.1868C120.194 13.3929 120.224 13.4695 120.254 13.552C120.254 13.5637 120.26 13.5755 120.266 13.5814C120.441 13.7934 120.423 13.9878 120.2 14.2587C119.888 14.6298 119.48 14.8594 119.047 15.1009L119.011 15.1245C118.651 15.2069 118.362 15.1834 118.35 15.1834C117.954 15.1951 117.636 15.1186 117.353 14.9596C117.113 14.83 116.927 14.4943 116.897 14.1409C116.879 13.9466 116.903 13.5814 117.233 13.3164ZM118.278 16.8442C118.434 16.5321 118.482 16.2553 118.434 15.9726C118.428 15.9431 118.428 15.9313 118.422 15.9255H118.476C118.513 15.9255 118.555 15.9313 118.591 15.9196C118.825 15.9196 118.861 15.9431 118.927 16.1434C118.975 16.2788 119.011 16.4202 119.041 16.5615L119.071 16.6911C119.083 16.7264 119.077 16.7559 119.023 16.7794L118.969 16.803C118.873 16.8501 118.777 16.8972 118.681 16.9208C118.374 16.9974 118.116 17.1564 117.882 17.3979L117.852 17.4273C117.78 17.5039 117.714 17.5745 117.624 17.6099C117.918 17.3978 118.14 17.1387 118.278 16.8442ZM118.098 18.3932C118.26 17.8867 118.567 17.5745 119.035 17.4509C119.089 17.4332 119.137 17.4037 119.173 17.3802C119.191 17.3625 119.227 17.339 119.239 17.339C119.281 17.3625 119.317 17.4155 119.353 17.4626C119.377 17.4921 119.395 17.5156 119.413 17.5392C119.648 17.8219 119.954 17.9632 120.32 17.9632H120.338C120.669 17.9632 120.993 17.9397 121.239 17.9161C121.534 17.8985 121.678 17.975 121.78 18.2165C121.858 18.405 121.798 18.5934 121.606 18.7583C121.444 18.8879 121.263 19.0528 121.107 19.259C120.987 19.4239 120.807 19.4828 120.627 19.524C120.615 19.524 120.609 19.5299 120.603 19.5299L120.026 19.6948C119.99 19.7125 119.93 19.7242 119.846 19.7478H119.822C119.335 19.8832 118.933 19.8302 118.543 19.5829C118.098 19.3061 117.948 18.8938 118.098 18.3932ZM120.032 17.1151C119.75 16.9738 119.672 16.4496 119.642 16.2494V16.1846C119.606 16.0197 119.504 15.6722 119.498 15.6663C119.498 15.6545 119.498 15.6486 119.498 15.6428C119.51 15.6133 119.576 15.5662 119.606 15.5426L119.642 15.5073C119.924 15.254 120.272 14.9949 120.741 14.9301C120.903 14.9066 121.059 14.8477 121.203 14.7947C121.275 14.7652 121.348 14.7417 121.42 14.7181C121.54 14.6769 121.642 14.6769 121.726 14.7063C122.17 14.8712 122.669 15.095 123.047 15.5132C123.186 15.6663 123.252 15.8253 123.24 15.9785C123.228 16.1375 123.137 16.2847 122.969 16.4261C122.903 16.4791 122.831 16.5321 122.765 16.5792C122.705 16.6263 122.651 16.6734 122.591 16.7205C122.363 16.8972 122.122 17.0091 121.87 17.0504C120.903 17.2153 120.284 17.2388 120.038 17.1151H120.032ZM122.14 18.6994C122.158 18.6229 122.188 18.5404 122.23 18.4639C122.303 18.3402 122.381 18.1812 122.381 17.9868C122.381 17.8926 122.363 17.7924 122.315 17.6864C122.477 17.5686 122.633 17.4567 122.789 17.3331C122.855 17.2859 122.927 17.2683 122.999 17.2918C123.107 17.3154 123.186 17.3861 123.222 17.498C123.222 17.498 123.282 17.6099 123.288 17.8101C123.288 18.0104 123.234 18.1635 123.125 18.2577C123.113 18.2636 123.107 18.2695 123.095 18.2754C123.095 18.2754 123.077 18.2931 123.065 18.299C122.999 18.3461 122.933 18.3991 122.867 18.4462C122.699 18.5817 122.531 18.7053 122.327 18.7466L122.2 18.7642C122.152 18.776 122.14 18.7583 122.14 18.7583C122.14 18.7583 122.128 18.7466 122.14 18.6994ZM120.729 7.74484C120.729 7.74484 120.759 7.72128 120.765 7.7095L121.384 6.95564L121.492 6.84963L122.309 6.07809C122.477 5.89552 122.657 5.72472 122.837 5.55981C123.035 5.38312 123.234 5.19466 123.414 4.99441C123.642 4.74116 123.876 4.4938 124.11 4.25233C124.207 4.1522 124.303 4.04619 124.399 3.94607C124.627 3.7046 124.807 3.44546 124.945 3.18042C125.09 2.89773 125.552 2.63269 125.882 2.65036C125.93 2.65625 125.96 2.67392 125.997 2.73282C126.195 3.03319 126.291 3.32177 126.291 3.62214C126.291 3.82828 126.249 4.02263 126.165 4.20521C125.798 5.04742 125.528 5.93674 125.27 6.79662C125.216 6.96742 125.162 7.13822 125.114 7.30901C124.711 8.61061 124.207 10.1419 123.534 11.5848C123.27 12.162 123.011 12.6744 122.579 13.0867C122.423 13.2398 122.242 13.4106 122.038 13.5343C121.756 13.6992 121.474 13.8994 121.203 14.135C121.071 14.2469 120.915 14.2705 120.741 14.294C120.759 14.2293 120.783 14.1704 120.813 14.1115C121.035 13.5814 120.939 13.2163 120.483 12.857C120.194 12.6332 119.882 12.4035 119.468 12.3564C119.347 12.3387 119.257 12.2504 119.179 12.0678C118.987 11.6261 118.939 11.1726 119.035 10.7309C119.239 9.80619 119.678 8.96398 120.326 8.22779C120.423 8.12766 120.507 8.01576 120.573 7.90386C120.615 7.83319 120.669 7.77429 120.729 7.74484ZM117.353 7.98631C117.353 7.84496 117.365 7.70361 117.365 7.56227C117.377 7.4857 117.431 7.11466 117.491 6.77895L117.521 6.59638C117.636 5.97797 117.75 5.3949 118.152 4.90607C118.404 4.59981 118.711 4.35834 119.065 4.19343C119.179 4.13454 119.359 4.09331 119.576 4.34067C119.726 4.51736 119.852 4.72349 119.942 4.96496C120.098 5.37723 120.248 5.7895 120.399 6.20766L120.525 6.56693C120.603 6.76717 120.573 6.90852 120.435 7.05576C120.02 7.50926 119.504 8.07466 119.125 8.70484C118.639 9.52349 118.368 10.2361 118.278 10.9429C118.212 11.4494 118.284 11.9205 118.501 12.3269C118.507 12.3446 118.519 12.3623 118.519 12.374H118.482C118.398 12.3682 118.32 12.3799 118.23 12.3858C118.194 12.3917 118.158 12.3917 118.098 12.4035C118.056 12.4094 118.044 12.4094 118.044 12.4094C118.044 12.4094 118.032 12.3858 118.032 12.321C118.032 11.8381 117.948 11.3669 117.774 10.8781C117.521 10.1772 117.425 9.43515 117.359 8.79908C117.335 8.53404 117.347 8.25135 117.359 7.98631H117.353ZM106.728 12.215C106.542 12.056 106.368 11.8675 106.217 11.6555C106.133 11.5495 106.103 11.4612 106.127 11.3905C106.145 11.3198 106.223 11.255 106.356 11.1961C106.902 10.9782 107.491 10.8545 108.115 10.8428C108.157 10.8428 108.194 10.8369 108.23 10.8369C108.884 10.8369 109.575 10.9782 110.374 11.2609C110.506 11.308 110.632 11.3551 110.758 11.3964C111.101 11.5142 111.455 11.632 111.785 11.8028C112.23 12.0207 112.632 12.321 113.017 12.6096C113.101 12.6744 113.179 12.7333 113.263 12.7922C113.341 12.8511 113.425 12.9159 113.503 12.9748C113.671 13.1044 113.846 13.2339 114.026 13.3517C114.374 13.5873 114.747 13.711 115.143 13.7228H115.371C115.539 13.7345 115.714 13.7345 115.888 13.7345C115.99 13.7345 116.08 13.6874 116.122 13.6109C116.164 13.5402 116.158 13.4401 116.098 13.3458C116.008 13.1986 115.87 13.1102 115.708 13.1044C114.783 13.0513 114.17 12.4977 113.641 11.9088C113.251 11.4788 112.963 10.9723 112.68 10.4776L112.632 10.3951C112.272 9.76497 111.863 9.14067 111.473 8.53993C111.353 8.35736 111.233 8.17478 111.113 7.98631C110.95 7.73306 110.824 7.47981 110.74 7.23245C110.56 6.67883 110.314 6.14288 110.074 5.63049C109.983 5.44202 109.893 5.24766 109.809 5.0592C109.659 4.72349 109.533 4.37601 109.413 4.03441L109.305 3.71638C109.173 3.35711 109.088 2.99785 108.998 2.59147C108.896 2.14975 108.854 1.67858 108.866 1.14852C108.866 1.04251 108.884 0.954167 108.92 0.871713C108.956 0.783369 108.986 0.765701 109.004 0.759811C109.016 0.759811 109.046 0.759811 109.125 0.806928C109.341 0.942388 109.551 1.11319 109.749 1.2722C109.821 1.3311 109.893 1.39 109.959 1.44889C111.233 2.46779 112.164 3.29822 112.969 4.15809C113.653 4.87662 114.332 5.68349 115.125 6.69061C115.996 7.80963 116.488 9.07 116.861 10.1596C116.909 10.3009 116.957 10.4423 117.011 10.5777C117.143 10.9311 117.281 11.2963 117.335 11.6732C117.359 11.8617 117.383 12.0619 117.371 12.268C117.353 12.592 117.203 12.8275 116.933 12.963C116.314 13.281 116.278 13.8405 116.308 14.2293V14.2646C116.314 14.3235 116.32 14.3824 116.314 14.3942C116.302 14.4059 116.224 14.4236 116.164 14.4295C115.491 14.5473 114.963 14.7299 114.506 15.0126C114.398 15.0715 114.326 15.1421 114.266 15.2246C114.14 15.4131 113.948 15.5132 113.683 15.525C113.197 15.5485 112.758 15.5073 112.35 15.3895C112.176 15.3365 112.008 15.2894 111.833 15.2423C111.473 15.1421 111.101 15.0361 110.74 14.9183C110.116 14.7063 109.497 14.3588 108.836 13.8582L108.464 13.5814C107.887 13.1456 107.287 12.6921 106.728 12.215ZM109.1 17.6158C108.578 17.604 108.188 17.2977 107.863 17.015C107.863 17.015 107.851 17.0032 107.845 17.0032C107.671 16.8266 107.19 16.6204 106.806 16.4673C106.8 16.4673 106.788 16.4614 106.782 16.4614C106.626 16.4261 106.476 16.379 106.326 16.3083C106.109 16.2023 105.869 16.1021 105.593 16.002C105.509 15.9726 105.455 15.9372 105.443 15.9019C105.425 15.8666 105.443 15.8018 105.485 15.7193C105.647 15.4013 105.917 15.1539 106.362 14.9183C106.626 14.7829 106.926 14.7063 107.19 14.7063H107.263C107.575 14.7063 107.785 14.7475 107.965 14.8536C108.32 15.0538 108.71 15.1363 109.088 15.2069L109.203 15.2305C109.485 15.2894 109.755 15.4072 110.013 15.5191C110.092 15.5544 110.176 15.5898 110.254 15.6192C111.233 16.0315 112.29 16.2612 113.395 16.3083H113.449C113.449 16.3083 113.491 16.3083 113.503 16.3142C113.551 16.3259 113.599 16.3201 113.647 16.3142C113.731 16.3083 113.737 16.3142 113.749 16.3495C113.81 16.5026 113.749 16.7088 113.641 16.7971C113.521 16.8913 113.371 16.909 113.209 16.9267H113.161C112.83 16.9738 112.554 17.0445 112.308 17.1387C111.972 17.2742 111.635 17.4037 111.299 17.5333C111.035 17.6334 110.776 17.7394 110.512 17.8396C110.452 17.8631 110.422 17.869 110.392 17.8572C109.971 17.6688 109.521 17.6275 109.1 17.6158ZM111.437 22.0271C110.53 22.775 109.761 23.6585 109.125 24.4182C108.722 24.9129 108.272 25.3664 107.845 25.7787C107.515 26.0967 107.257 26.4148 107.064 26.7446C106.95 26.9331 106.806 27.0155 106.602 26.992C106.043 26.939 105.917 26.8801 105.797 26.3618C105.725 26.032 105.707 25.6963 105.701 25.2958C105.677 24.7657 105.869 24.1767 106.043 23.7232C106.5 22.4982 107.299 21.3674 108.47 20.2543C109.455 19.3237 110.44 18.6523 111.485 18.187C112.182 17.8808 112.782 17.7218 113.371 17.6864C113.431 17.6864 113.503 17.6864 113.569 17.6511C113.629 17.6217 113.683 17.6099 113.743 17.6099C113.858 17.6099 113.972 17.6688 114.122 17.8042C114.2 17.8749 114.29 17.9515 114.29 17.9809C114.29 18.0104 114.194 18.1046 114.122 18.1694C113.858 18.4226 113.635 18.7053 113.467 19.0057C113.119 19.63 113.179 20.0894 113.671 20.59C113.701 20.6194 113.707 20.6312 113.713 20.6371C113.707 20.6371 113.701 20.6489 113.671 20.6724C113.593 20.7255 113.503 20.7726 113.389 20.8138C112.62 21.0906 111.978 21.5853 111.437 22.0271ZM114.65 28.0521C114.554 28.164 114.464 28.2877 114.38 28.4055C114.338 28.4644 114.296 28.5232 114.248 28.5821C113.822 29.1417 113.377 29.6482 112.921 30.1017C112.861 30.1605 112.788 30.2194 112.698 30.2842C112.53 30.3961 112.476 30.3902 112.356 30.2312C112.2 30.031 112.104 29.7895 112.062 29.495C112.008 29.1534 111.996 28.8001 111.978 28.4585C111.966 28.2111 111.954 27.9637 111.93 27.7164C111.887 27.1333 111.905 26.5326 111.984 25.9259C112.008 25.7198 112.032 25.5137 112.056 25.3017C112.122 24.6715 112.194 24.0177 112.374 23.3934C112.554 22.7809 112.776 22.3215 113.089 21.9505C113.233 21.7679 113.389 21.656 113.569 21.5971C113.912 21.4911 114.17 21.2791 114.41 21.0729C114.512 20.9787 114.602 20.9375 114.698 20.9375C114.728 20.9375 114.759 20.9434 114.795 20.9552C114.891 20.9787 114.903 21.0199 114.891 21.0847C114.885 21.1201 114.879 21.1554 114.873 21.1907C114.867 21.2496 114.855 21.3085 114.837 21.3674C114.692 21.8621 114.638 22.3628 114.602 22.9635C114.566 23.6231 114.548 24.165 114.548 24.6715C114.554 25.4489 114.662 26.1851 114.867 26.8624C115.017 27.3453 114.951 27.7105 114.65 28.0521ZM115.095 20.1659C114.741 20.0187 114.392 19.8656 114.044 19.7183C113.894 19.6594 113.852 19.5947 113.852 19.577C113.882 19.0528 114.41 18.3814 114.963 18.3696L115.329 18.3578C115.551 18.3461 115.768 18.3402 115.984 18.3343C116.116 18.3284 116.26 18.3402 116.38 18.3991C116.47 18.4403 116.548 18.4521 116.621 18.4226C116.705 18.3932 116.765 18.3284 116.813 18.2165L116.831 18.1694C116.849 18.1223 116.867 18.0693 116.891 18.0221C116.897 18.0045 116.903 18.0045 116.909 18.0104C116.909 18.134 116.933 18.2283 116.999 18.2931C117.059 18.3637 117.155 18.3932 117.281 18.3873C117.191 18.7701 117.317 19.1176 117.431 19.4298C117.455 19.4945 117.473 19.5711 117.485 19.6418L117.497 19.7066L117.503 19.7301C117.497 19.736 117.491 19.7419 117.485 19.7478C117.347 19.9421 116.915 20.0953 116.59 20.1659C116.584 20.1659 116.572 20.1718 116.56 20.1718C116.446 20.219 116.308 20.2425 116.11 20.2425C115.467 20.3367 115.311 20.2543 115.305 20.2543C115.293 20.2366 115.275 20.2248 115.251 20.219C115.221 20.2131 115.173 20.1954 115.095 20.1659ZM117.702 25.0896C117.323 26.0378 116.783 26.8801 116.086 27.5927C116.08 27.5927 116.068 27.6104 116.068 27.6104C116.044 27.628 116.026 27.6516 116.002 27.6693C115.978 27.6987 115.924 27.7458 115.912 27.7517C115.882 27.734 115.864 27.7105 115.852 27.681C115.852 27.6634 115.852 27.6693 115.84 27.6575C115.726 27.4219 115.581 26.8094 115.533 26.6209C115.341 25.8317 115.251 25.0307 115.275 24.2415C115.281 24.0472 115.281 23.8528 115.281 23.6585C115.281 23.3404 115.281 23.0165 115.305 22.6985C115.347 22.1625 115.491 21.6383 115.617 21.2437C115.678 21.0612 115.75 21.0199 116.014 21.0199H116.098C116.224 21.0317 116.362 21.0376 116.38 21.0553C116.392 21.0729 116.386 21.1613 116.386 21.2379C116.38 21.2791 116.38 21.3262 116.38 21.3733C116.356 22.2273 116.687 22.9753 117.035 23.6761C117.041 23.6938 117.053 23.7174 117.065 23.735C117.095 23.7763 117.119 23.8175 117.131 23.8646C117.191 24.0648 117.335 24.1885 117.449 24.271C117.768 24.5007 117.84 24.7363 117.702 25.0896ZM118.705 22.8575L118.651 22.9753C118.525 23.258 118.392 23.5466 118.194 23.7939C118.14 23.8646 118.074 23.8999 118.014 23.8999H118.002C117.942 23.894 117.888 23.8528 117.852 23.7821C117.521 23.1402 117.179 22.4747 117.035 21.7385C116.933 21.1907 117.047 20.8138 117.413 20.5252C117.479 20.4722 117.539 20.4192 117.6 20.3662C117.654 20.3132 117.702 20.2661 117.762 20.219C117.81 20.1836 117.852 20.1659 117.9 20.1659C117.942 20.1659 117.99 20.1836 118.032 20.2248C118.194 20.3721 118.374 20.4604 118.609 20.5017C118.837 20.5429 118.969 20.696 119.005 20.961C119.017 21.0671 119.029 21.1848 119.035 21.2967C119.041 21.3556 119.047 21.4204 119.047 21.4734C119.071 21.9917 118.891 22.4629 118.705 22.8575ZM125.288 28.2111L125.312 28.3171C125.39 28.6469 125.462 28.9532 125.498 29.2536C125.498 29.3949 125.456 29.5009 125.378 29.5598C125.306 29.6069 125.21 29.6128 125.096 29.5775C124.753 29.4656 124.393 29.3419 123.948 29.1829C123.732 29.1063 123.534 28.9826 123.294 28.7824C123.077 28.5939 122.849 28.4172 122.627 28.2405C122.182 27.8931 121.726 27.5279 121.342 27.098C120.639 26.297 120.02 25.5608 119.54 24.7009C119.419 24.4771 119.347 24.2356 119.269 23.9824C119.227 23.8234 119.179 23.6585 119.113 23.5053C119.095 23.4405 119.131 23.364 119.155 23.3286C119.57 22.6572 119.726 21.8857 119.66 20.8374C119.642 20.5547 119.678 20.5075 119.972 20.4428C120.08 20.4133 120.194 20.3956 120.308 20.3721C120.393 20.3603 120.483 20.3426 120.567 20.325C120.771 20.2837 120.945 20.1836 121.119 20.0835L121.191 20.0482C121.191 20.0482 121.215 20.0305 121.221 20.0305C121.221 20.0305 121.221 20.0344 121.221 20.0423C121.354 20.5841 121.678 21.0199 121.996 21.4381L122.044 21.5088C122.218 21.7326 122.381 21.9446 122.513 22.1802C122.561 22.2626 122.615 22.3451 122.705 22.3981C123.228 22.7044 123.48 23.205 123.744 23.7291C124.363 24.9601 124.837 26.3441 125.282 28.2111H125.288ZM127.228 20.325C127.228 20.325 127.228 20.3309 127.24 20.3367C127.552 20.6901 127.84 21.0729 128.111 21.4499L128.285 21.6796C128.705 22.2567 129.084 22.7044 129.462 23.0872C129.54 23.1637 129.564 23.1991 129.564 23.1991C129.552 23.2226 129.444 23.2698 129.408 23.2874C129.054 23.4641 128.663 23.5053 128.195 23.5112H128.159C126.687 23.5112 125.408 23.205 124.243 22.5866C123.804 22.351 123.306 22.0859 122.903 21.7031C122.765 21.5677 122.675 21.4028 122.573 21.232C122.513 21.1377 122.459 21.0376 122.387 20.9434C122.273 20.7844 122.17 20.6194 122.062 20.4545C122.002 20.3603 121.942 20.272 121.882 20.1777C121.804 20.0658 121.75 19.9304 121.72 19.7772C121.684 19.5711 121.75 19.4592 121.942 19.3944C122.044 19.3591 122.146 19.3414 122.236 19.3414C122.591 19.3237 122.927 19.2001 123.288 18.9586C123.306 18.9468 123.324 18.935 123.336 18.9232L123.402 18.8585C123.432 18.8349 123.546 18.776 123.918 18.776C124.02 18.776 124.147 18.7819 124.297 18.7937H124.321C124.963 18.7996 125.492 18.8585 125.984 19.1058C126.117 19.1706 126.237 19.259 126.357 19.3473C126.417 19.3944 126.483 19.4415 126.555 19.4945L126.585 19.5299C126.958 19.9893 127.174 20.2602 127.228 20.325ZM136.147 16.3201C135.943 16.6322 135.661 16.8737 135.306 17.0327C134.165 17.5333 133.144 17.8749 132.177 18.0751C131.691 18.1753 131.186 18.2342 130.682 18.2459C129.997 18.2695 129.342 18.4167 128.735 18.5758C128.207 18.7112 127.678 18.6582 127.228 18.5934C126.729 18.5286 126.237 18.3991 125.756 18.2813C125.48 18.2106 125.21 18.1399 124.933 18.081C124.819 18.0575 124.699 18.0339 124.585 18.0104C124.453 17.9809 124.315 17.9515 124.183 17.922C124.008 17.8808 123.924 17.7866 123.918 17.6275C123.912 17.3566 123.864 16.9738 123.492 16.7088C123.486 16.7029 123.468 16.6911 123.468 16.6793C123.462 16.6675 123.474 16.644 123.492 16.6263C123.72 16.3613 123.762 16.0315 123.774 15.7488C123.774 15.5603 123.852 15.4307 124.014 15.3188C124.129 15.2423 124.237 15.1598 124.351 15.0774C124.507 14.9537 124.669 14.83 124.831 14.7299C125.486 14.3353 126.225 14.1527 126.867 14.0231C127.234 13.9466 127.6 13.9112 127.961 13.9053C128.339 13.9466 128.723 13.9642 129.096 13.976C129.817 14.0055 130.561 14.0349 131.264 14.2587C131.637 14.3706 132.015 14.3942 132.381 14.4118C132.549 14.4236 132.724 14.4295 132.892 14.4472C133.246 14.4884 133.607 14.565 133.949 14.6356C134.087 14.6651 134.225 14.6945 134.357 14.7181C134.405 14.7299 134.454 14.7475 134.49 14.777C134.904 15.0715 135.354 15.2246 135.829 15.3777C136.063 15.4543 136.219 15.5721 136.279 15.7311C136.34 15.896 136.291 16.0963 136.147 16.3201Z" fill="#282828"/>
<path d="M128.664 10.619C128.658 10.7603 128.561 10.937 128.489 11.0548C128.159 11.6025 127.775 12.2386 127.336 12.8217C127.138 13.0985 126.862 13.2811 126.513 13.3694C126.393 13.4047 126.273 13.4342 126.153 13.4636C125.786 13.552 125.402 13.6403 125.048 13.817C124.465 14.1174 124.033 14.4236 123.702 14.7888L123.672 14.8241C123.672 14.8241 123.642 14.8595 123.618 14.8771C123.456 15.042 123.456 15.0479 123.294 14.9066C122.849 14.5414 122.465 14.3294 122.062 14.2175C122.062 14.2116 122.075 14.2116 122.081 14.2057C122.207 14.1115 122.333 14.0172 122.453 13.923L122.693 13.7463C122.921 13.5755 123.108 13.3694 123.294 13.1692C123.402 13.0455 123.522 12.9218 123.642 12.804C123.714 12.7392 123.792 12.6803 123.87 12.6214C124.033 12.4977 124.201 12.3741 124.297 12.1974C124.663 11.5436 125.3 11.3198 125.973 11.0842L126.099 11.043C126.303 10.9665 126.507 10.8958 126.711 10.8251C127.222 10.6543 127.745 10.4717 128.249 10.2597C128.351 10.2126 128.447 10.2126 128.519 10.2597C128.609 10.3186 128.664 10.4541 128.664 10.619Z" fill="#EFEDE4"/>
<path d="M136.124 16.3024C135.913 16.6146 135.631 16.856 135.277 17.0151C134.141 17.5157 133.114 17.8573 132.147 18.0575C131.661 18.1576 131.156 18.2165 130.652 18.2283C129.967 18.2519 129.312 18.3991 128.706 18.5581C128.177 18.6936 127.648 18.6406 127.198 18.5758C126.699 18.511 126.207 18.3814 125.726 18.2636C125.45 18.193 125.18 18.1223 124.904 18.0634C124.789 18.0398 124.675 18.0163 124.555 17.9927C124.423 17.9633 124.285 17.9338 124.153 17.9044C123.979 17.8632 123.894 17.7689 123.888 17.6099C123.882 17.339 123.834 16.9562 123.462 16.6911C123.462 16.6852 123.438 16.6735 123.438 16.6617C123.438 16.6499 123.444 16.6263 123.462 16.6087C123.696 16.3436 123.732 16.0138 123.744 15.7311C123.75 15.5427 123.828 15.4131 123.985 15.3012C124.099 15.2246 124.213 15.1422 124.321 15.0597C124.477 14.936 124.639 14.8124 124.807 14.7122C125.456 14.3176 126.201 14.1351 126.838 14.0055C127.204 13.9289 127.576 13.8936 127.931 13.8877C128.309 13.9289 128.694 13.9466 129.066 13.9584C129.787 13.9878 130.532 14.0173 131.234 14.2411C131.613 14.353 131.985 14.3765 132.351 14.3942C132.52 14.406 132.694 14.4119 132.862 14.4295C133.216 14.4708 133.577 14.5473 133.919 14.618C134.057 14.6474 134.195 14.6769 134.328 14.7005C134.376 14.7122 134.424 14.7299 134.46 14.7594C134.874 15.0538 135.331 15.207 135.799 15.3601C136.033 15.4367 136.19 15.5544 136.25 15.7135C136.31 15.8784 136.268 16.0786 136.124 16.3024Z" fill="white"/>
<path d="M129.54 23.1815C129.54 23.1815 129.414 23.2522 129.378 23.2698C129.024 23.4465 128.633 23.4877 128.165 23.4936H128.129C126.657 23.4936 125.378 23.1874 124.213 22.569C123.774 22.3334 123.276 22.0684 122.873 21.6855C122.735 21.5501 122.645 21.3852 122.543 21.2144C122.489 21.1201 122.429 21.02 122.363 20.9258C122.249 20.7668 122.14 20.6019 122.032 20.437C121.972 20.3427 121.912 20.2544 121.852 20.1601C121.774 20.0482 121.72 19.9128 121.696 19.7596C121.66 19.5535 121.726 19.4416 121.912 19.3768C122.014 19.3415 122.116 19.3238 122.207 19.3238C122.561 19.3062 122.897 19.1825 123.258 18.941C123.282 18.9292 123.294 18.9174 123.306 18.9057L123.324 18.888L123.372 18.8409C123.372 18.8409 123.516 18.7584 123.888 18.7584C123.99 18.7584 124.117 18.7643 124.267 18.7761H124.291C124.933 18.782 125.462 18.8409 125.961 19.0882C126.093 19.153 126.207 19.2414 126.327 19.3297C126.393 19.3768 126.453 19.4239 126.525 19.477L126.555 19.5123C126.928 19.9717 127.144 20.2426 127.198 20.3074C127.204 20.3074 127.204 20.3133 127.21 20.3192C127.522 20.6725 127.81 21.0554 128.081 21.4323L128.255 21.662C128.675 22.2392 129.054 22.6868 129.432 23.0696C129.51 23.1462 129.534 23.1815 129.54 23.1815Z" fill="#F4F4F4"/>
<path d="M125.468 29.2359C125.468 29.3772 125.426 29.4832 125.348 29.5421C125.276 29.5893 125.18 29.5951 125.066 29.5598C124.723 29.4479 124.363 29.3242 123.919 29.1652C123.702 29.0886 123.504 28.965 123.264 28.7647C123.048 28.5763 122.819 28.3996 122.603 28.2229C122.153 27.8754 121.696 27.5102 121.312 27.0803C120.609 26.2793 119.99 25.5431 119.51 24.6832C119.39 24.4594 119.318 24.218 119.246 23.9647C119.198 23.8057 119.15 23.6408 119.089 23.4877C119.065 23.4229 119.101 23.3463 119.126 23.311C119.546 22.6396 119.702 21.868 119.63 20.8197C119.612 20.537 119.648 20.4899 119.942 20.4251C120.05 20.3956 120.165 20.378 120.279 20.3544C120.363 20.3426 120.453 20.325 120.537 20.3073C120.741 20.2661 120.921 20.1659 121.09 20.0658L121.162 20.0305C121.162 20.0305 121.186 20.0128 121.192 20.0128C121.192 20.0187 121.198 20.0187 121.198 20.0246C121.33 20.5664 121.654 21.0023 121.973 21.4204L122.021 21.4911C122.195 21.7149 122.357 21.9269 122.489 22.1625C122.537 22.245 122.591 22.3274 122.681 22.3804C123.204 22.6867 123.456 23.1873 123.72 23.7115C124.345 24.9424 124.814 26.3264 125.258 28.1934L125.282 28.2994C125.36 28.6293 125.432 28.9355 125.468 29.2359Z" fill="#F4F4F4"/>
<path d="M119.023 21.4558C119.041 21.9741 118.861 22.4452 118.675 22.8398L118.621 22.9576C118.495 23.2403 118.363 23.5289 118.164 23.7763C118.116 23.847 118.05 23.8823 117.984 23.8823H117.972C117.912 23.8764 117.858 23.8352 117.822 23.7645C117.492 23.1225 117.149 22.457 117.011 21.7208C116.903 21.1731 117.017 20.7962 117.384 20.5076C117.45 20.4546 117.51 20.4016 117.57 20.3486C117.624 20.2956 117.678 20.2484 117.732 20.2013C117.78 20.166 117.828 20.1483 117.87 20.1483C117.918 20.1483 117.96 20.166 118.002 20.2072C118.164 20.3545 118.351 20.4428 118.579 20.484C118.813 20.5252 118.939 20.6784 118.975 20.9434C118.993 21.0494 118.999 21.1672 119.005 21.2791C119.011 21.338 119.017 21.4028 119.023 21.4558Z" fill="#EFEDE4"/>
<path d="M117.672 25.072C117.299 26.0202 116.753 26.8624 116.056 27.5751C116.05 27.5751 116.038 27.5927 116.038 27.5927C116.014 27.6104 115.996 27.634 115.978 27.6516C115.948 27.6811 115.9 27.7282 115.888 27.7341C115.852 27.7164 115.834 27.6929 115.828 27.6634C115.822 27.6458 115.828 27.6516 115.816 27.6399C115.695 27.4043 115.551 26.7918 115.509 26.6033C115.311 25.8141 115.221 25.0131 115.245 24.2239C115.251 24.0296 115.251 23.8352 115.251 23.6408C115.251 23.3228 115.251 22.9989 115.275 22.6808C115.317 22.1449 115.467 21.6207 115.587 21.2261C115.647 21.0435 115.72 21.0023 115.984 21.0023H116.068C116.2 21.0141 116.332 21.02 116.35 21.0377C116.362 21.0553 116.356 21.1437 116.356 21.2202C116.35 21.2615 116.35 21.3086 116.35 21.3557C116.326 22.2097 116.657 22.9577 117.005 23.6585C117.017 23.6762 117.029 23.6997 117.041 23.7174C117.065 23.7586 117.089 23.7999 117.101 23.847C117.161 24.0472 117.305 24.1709 117.425 24.2534C117.744 24.4831 117.816 24.7186 117.672 25.072Z" fill="white"/>
<path d="M114.621 28.0344C114.525 28.1463 114.434 28.27 114.35 28.3878C114.308 28.4467 114.266 28.5056 114.224 28.5645C113.798 29.124 113.347 29.6305 112.891 30.084C112.831 30.1429 112.759 30.2018 112.669 30.2665C112.506 30.3784 112.446 30.3726 112.326 30.2135C112.17 30.0133 112.074 29.7718 112.032 29.4773C111.984 29.1357 111.966 28.7824 111.948 28.4408C111.936 28.1934 111.924 27.9461 111.9 27.6987C111.864 27.1156 111.876 26.5149 111.954 25.9083C111.978 25.7021 112.002 25.496 112.026 25.284C112.092 24.6538 112.164 24 112.344 23.3757C112.524 22.7632 112.747 22.3038 113.059 21.9328C113.203 21.7502 113.359 21.6383 113.54 21.5794C113.882 21.4734 114.14 21.2614 114.38 21.0553C114.483 20.961 114.573 20.9198 114.669 20.9198C114.699 20.9198 114.735 20.9257 114.765 20.9375C114.867 20.961 114.873 21.0023 114.867 21.067C114.855 21.1024 114.849 21.1377 114.843 21.1731C114.837 21.2319 114.825 21.2908 114.807 21.3497C114.663 21.8445 114.609 22.3451 114.573 22.9458C114.537 23.6054 114.519 24.1473 114.519 24.6538C114.519 25.4312 114.633 26.1674 114.837 26.8447C114.987 27.3277 114.921 27.6928 114.621 28.0344Z" fill="#F4F4F4"/>
<path d="M113.437 18.9881C113.089 19.6124 113.149 20.0718 113.647 20.5724C113.672 20.6019 113.678 20.6136 113.684 20.6195C113.678 20.6195 113.672 20.6313 113.641 20.6549C113.563 20.7079 113.473 20.755 113.359 20.7962C112.59 21.073 111.948 21.5677 111.407 22.0095C110.5 22.7574 109.731 23.6409 109.101 24.4006C108.692 24.8954 108.242 25.3488 107.815 25.7611C107.485 26.0792 107.233 26.3972 107.034 26.727C106.92 26.9155 106.776 26.9979 106.572 26.9744C106.013 26.9214 105.893 26.8625 105.767 26.3442C105.695 26.0144 105.677 25.6787 105.671 25.2782C105.647 24.7481 105.839 24.1592 106.013 23.7057C106.476 22.4806 107.269 21.3498 108.44 20.2367C109.425 19.3061 110.41 18.6347 111.455 18.1695C112.152 17.8632 112.753 17.7042 113.341 17.6688C113.407 17.6688 113.473 17.6688 113.539 17.6335C113.599 17.6041 113.654 17.5923 113.714 17.5923C113.828 17.5923 113.942 17.6512 114.092 17.7866C114.17 17.8573 114.26 17.9339 114.266 17.9633C114.266 17.9869 114.164 18.087 114.098 18.1518C113.828 18.405 113.605 18.6877 113.437 18.9881Z" fill="white"/>
<path d="M113.611 16.7795C113.491 16.8738 113.341 16.8914 113.179 16.9091H113.131C112.801 16.9562 112.524 17.0269 112.278 17.1211C111.942 17.2566 111.605 17.3861 111.269 17.5157C111.011 17.6158 110.746 17.7218 110.482 17.822C110.428 17.8455 110.392 17.8514 110.362 17.8396C109.948 17.6512 109.497 17.6099 109.071 17.5982C108.548 17.5864 108.158 17.2801 107.839 16.9974C107.833 16.9974 107.821 16.9857 107.815 16.9857C107.641 16.809 107.161 16.6028 106.776 16.4497C106.77 16.4497 106.758 16.4438 106.752 16.4438C106.602 16.4085 106.446 16.3614 106.302 16.2907C106.079 16.1847 105.839 16.0845 105.563 15.9844C105.479 15.955 105.425 15.9196 105.413 15.8843C105.395 15.849 105.413 15.7842 105.455 15.7017C105.617 15.3837 105.887 15.1363 106.332 14.9007C106.596 14.7653 106.896 14.6887 107.161 14.6887H107.233C107.551 14.6887 107.755 14.7299 107.935 14.836C108.29 15.0362 108.68 15.1187 109.059 15.1893L109.173 15.2129C109.455 15.2718 109.725 15.3896 109.984 15.5015C110.062 15.5368 110.146 15.5722 110.224 15.6016C111.203 16.0139 112.26 16.2436 113.365 16.2907H113.419C113.419 16.2907 113.461 16.2907 113.473 16.2966C113.521 16.3084 113.575 16.3025 113.617 16.2966C113.702 16.2907 113.708 16.2966 113.726 16.3319C113.78 16.485 113.726 16.6912 113.611 16.7795Z" fill="#EFEDE4"/>
<path d="M126.261 3.60457C126.261 3.81071 126.219 4.00506 126.141 4.18764C125.768 5.02985 125.498 5.91918 125.24 6.77905C125.186 6.94985 125.138 7.12065 125.084 7.29145C124.681 8.59304 124.177 10.1243 123.51 11.5673C123.24 12.1445 122.981 12.6568 122.549 13.0691C122.393 13.2222 122.213 13.393 122.008 13.5167C121.726 13.6816 121.444 13.8819 121.173 14.1175C121.041 14.2294 120.885 14.2529 120.711 14.2765C120.729 14.2117 120.759 14.1528 120.783 14.0939C121.005 13.5638 120.915 13.1987 120.453 12.8394C120.17 12.6156 119.852 12.3859 119.438 12.3388C119.317 12.3211 119.227 12.2328 119.149 12.0502C118.957 11.6085 118.909 11.155 119.005 10.7133C119.209 9.78862 119.648 8.94641 120.302 8.21022C120.399 8.1101 120.477 7.99819 120.543 7.88629C120.591 7.81562 120.645 7.75672 120.705 7.72727C120.717 7.71549 120.729 7.70372 120.735 7.69194L121.36 6.93807C121.39 6.90273 121.426 6.8674 121.462 6.83206L122.279 6.06052C122.447 5.87795 122.627 5.70715 122.807 5.54224C123.005 5.36556 123.204 5.17709 123.384 4.97684C123.612 4.72359 123.846 4.47623 124.08 4.23476C124.177 4.13464 124.273 4.02862 124.369 3.9285C124.597 3.68703 124.777 3.42789 124.915 3.16286C125.06 2.88016 125.522 2.61513 125.858 2.63279C125.906 2.63868 125.93 2.65635 125.967 2.71525C126.165 3.01562 126.261 3.30421 126.261 3.60457Z" fill="white"/>
<path d="M120.405 7.03818C119.99 7.49168 119.474 8.05708 119.095 8.68726C118.609 9.50591 118.338 10.2185 118.248 10.9253C118.182 11.4318 118.254 11.903 118.471 12.3093C118.483 12.327 118.489 12.3447 118.489 12.3565H118.453C118.368 12.3506 118.29 12.3624 118.206 12.3682C118.164 12.3741 118.128 12.3741 118.068 12.3859C118.032 12.3918 118.014 12.3918 118.014 12.3918C118.014 12.3918 118.002 12.3682 118.002 12.3035C118.002 11.8205 117.918 11.3493 117.744 10.8605C117.492 10.1597 117.395 9.41757 117.335 8.78149C117.311 8.51646 117.317 8.23376 117.329 7.96873C117.329 7.82738 117.335 7.68603 117.335 7.54468C117.347 7.46812 117.401 7.09707 117.461 6.76137L117.492 6.57879C117.612 5.96039 117.72 5.37732 118.122 4.88849C118.374 4.58223 118.681 4.34076 119.035 4.17585C119.149 4.11695 119.329 4.07573 119.546 4.32309C119.696 4.49977 119.822 4.70591 119.912 4.94738C120.068 5.35965 120.218 5.77192 120.369 6.19008L120.495 6.54935C120.573 6.74959 120.549 6.89094 120.405 7.03818Z" fill="#F4F4F4"/>
<path d="M117.341 12.2504C117.323 12.5743 117.173 12.8099 116.903 12.9454C116.284 13.2634 116.248 13.8229 116.278 14.2116V14.247C116.284 14.3059 116.29 14.3648 116.29 14.3765C116.272 14.3883 116.194 14.406 116.134 14.4119C115.461 14.5297 114.939 14.7122 114.476 14.9949C114.374 15.0538 114.296 15.1245 114.236 15.207C114.11 15.3954 113.918 15.4956 113.653 15.5073C113.167 15.5309 112.728 15.4897 112.32 15.3719C112.146 15.3189 111.978 15.2718 111.803 15.2246C111.443 15.1245 111.071 15.0185 110.71 14.9007C110.092 14.6887 109.467 14.3412 108.806 13.8406L108.434 13.5638C107.857 13.128 107.257 12.6745 106.698 12.1974C106.512 12.0384 106.344 11.8499 106.187 11.6379C106.103 11.5319 106.073 11.4435 106.097 11.3729C106.115 11.3022 106.193 11.2374 106.326 11.1785C106.872 10.9606 107.461 10.8369 108.085 10.8251C108.128 10.8251 108.164 10.8192 108.206 10.8192C108.86 10.8192 109.545 10.9606 110.35 11.2433C110.476 11.2904 110.602 11.3375 110.728 11.3788C111.071 11.4965 111.425 11.6143 111.755 11.7851C112.2 12.003 112.602 12.3034 112.987 12.592C113.071 12.6568 113.149 12.7157 113.233 12.7746C113.311 12.8335 113.395 12.8983 113.479 12.9572C113.641 13.0867 113.816 13.2163 113.996 13.3341C114.344 13.5697 114.723 13.6934 115.119 13.7051H115.341C115.509 13.7169 115.684 13.7169 115.858 13.7169C115.966 13.7169 116.05 13.6698 116.092 13.5932C116.134 13.5226 116.128 13.4224 116.068 13.3282C115.984 13.181 115.84 13.0926 115.678 13.0867C114.753 13.0337 114.14 12.4801 113.611 11.8911C113.227 11.4612 112.933 10.9547 112.656 10.46L112.602 10.3775C112.242 9.74734 111.833 9.12305 111.443 8.52231C111.323 8.33973 111.203 8.15716 111.083 7.96869C110.921 7.71544 110.794 7.46219 110.71 7.21483C110.53 6.66121 110.284 6.12525 110.044 5.61286C109.953 5.4244 109.863 5.23004 109.779 5.04157C109.629 4.70587 109.503 4.35838 109.383 4.01679L109.275 3.69875C109.143 3.33949 109.059 2.98022 108.968 2.57384C108.872 2.13213 108.824 1.66096 108.836 1.1309C108.842 1.02489 108.86 0.936543 108.89 0.854089C108.932 0.765746 108.956 0.748077 108.974 0.742188C108.986 0.742188 109.016 0.742188 109.095 0.789304C109.317 0.924764 109.521 1.09556 109.719 1.25458C109.791 1.31348 109.863 1.37237 109.935 1.43127C111.203 2.45016 112.134 3.28059 112.939 4.14047C113.623 4.859 114.308 5.66587 115.095 6.67299C115.966 7.792 116.458 9.05237 116.831 10.1419C116.879 10.2833 116.927 10.4246 116.981 10.5601C117.113 10.9135 117.251 11.2786 117.305 11.6556C117.329 11.844 117.353 12.0443 117.341 12.2504Z" fill="white"/>
</g>
<defs>
<clipPath id="clip0_2432_7242">
<rect width="137" height="48" fill="white"/>
</clipPath>
</defs>
</svg>
