<svg width="400" height="50" viewBox="0 0 400 50" fill="none" xmlns="http://www.w3.org/2000/svg">
<rect width="400" height="50" rx="6" fill="#282828"/>
<path d="M192.546 22.072V23.432H190.498V28.36H188.85V17.768H190.498V22.072H192.546ZM186.482 25.848H179.714V19.016H186.482V25.848ZM184.866 20.344H181.346V24.52H184.866V20.344ZM183.01 30.616H191.074V31.96H181.346V27.336H183.01V30.616ZM204.993 22.632H195.137V18.168H204.849V19.496H196.769V21.304H204.993V22.632ZM206.545 23.624V24.952H193.473V23.624H206.545ZM196.657 30.808H205.297V32.088H195.025V28.392H203.265V27.272H194.993V26.008H204.881V29.592H196.657V30.808ZM219.615 17.784V32.232H217.967V17.784H219.615ZM215.359 19.304C215.359 23.608 213.631 27.256 208.671 29.656L207.791 28.344C211.583 26.504 213.391 23.976 213.663 20.648H208.511V19.304H215.359Z" fill="#FAFAFA"/>
</svg>
