<svg width="200" height="45" viewBox="0 0 200 45" fill="none" xmlns="http://www.w3.org/2000/svg">
<rect width="200" height="45" rx="6" fill="#282828"/>
<path d="M69.0728 18.47V17H78.1028V18.526C78.1028 20.332 78.1168 22.096 77.6268 24.742L75.7928 24.574C76.2408 22.11 76.2548 20.276 76.2548 18.526V18.47H69.0728ZM79.5308 27.024H67.8688V25.512H79.5308V27.024ZM81.7557 17.378V16.006H90.5757V19.324H83.6037V20.038H90.8137V21.41H81.7837V18.036H88.7557V17.378H81.7557ZM92.0037 23.496H87.0617V24.588H85.2137V23.496H80.3277V22.054H92.0037V23.496ZM90.6177 24.056V28.55H81.7837V24.056H83.6037V25.078H88.7837V24.056H90.6177ZM83.6037 26.408V27.178H88.7837V26.408H83.6037ZM107.396 21.046H105.688V25.218H103.84V15.81H105.688V19.534H107.396V21.046ZM95.9165 23.09V16.874H102.062V23.09H95.9165ZM97.7225 18.33V21.634H100.242V18.33H97.7225ZM106.15 27.01V28.48H97.3725V24.294H99.2205V27.01H106.15ZM109.453 20.122V16.062H118.189V17.532H111.287V18.666H118.287V20.122H109.453ZM119.673 22.264H108.011V20.808H119.673V22.264ZM118.567 27.178V28.592H109.341V25.106H116.411V24.378H109.327V22.992H118.231V26.408H111.175V27.178H118.567ZM131.194 28.69H129.332V15.796H131.194V28.69ZM127.358 17.14C127.358 21.074 126.028 24.322 121.45 26.52L120.484 25.064C123.774 23.496 125.202 21.466 125.468 18.61H121.17V17.14H127.358Z" fill="#FAFAFA"/>
</svg>
