<svg width="78" height="45" viewBox="0 0 78 45" fill="none" xmlns="http://www.w3.org/2000/svg">
<rect width="78" height="45" rx="22.5" fill="#282828"/>
<path d="M31.284 28.732H29.436V15.796H31.284V28.732ZM23.066 19.954H25.754V16.832H27.588V25.722H21.232V16.832H23.066V19.954ZM25.754 24.252V21.396H23.066V24.252H25.754ZM41.1389 20.71C41.4329 19.534 41.4749 18.694 41.4749 17.84H34.3909V16.384H43.3229V17.448C43.3229 18.47 43.3089 19.548 42.9589 20.892L41.1389 20.71ZM44.6949 23.034H33.0889V21.578H37.3869V19.324H39.2349V21.578H44.6949V23.034ZM38.8149 23.846C41.6009 23.846 43.3929 24.77 43.3929 26.282C43.3929 27.78 41.6009 28.704 38.8149 28.704C36.0429 28.704 34.2509 27.78 34.2509 26.282C34.2509 24.77 36.0429 23.846 38.8149 23.846ZM38.8149 27.318C40.5649 27.318 41.5589 26.968 41.5589 26.282C41.5589 25.568 40.5649 25.232 38.8149 25.232C37.0649 25.232 36.0849 25.568 36.0849 26.282C36.0849 26.968 37.0649 27.318 38.8149 27.318ZM56.5658 28.704H54.8018V22.152H53.6538V28.158H51.9318V16.146H53.6538V20.668H54.8018V15.81H56.5658V28.704ZM51.0918 17.406C51.0918 21.018 50.0278 23.972 46.4298 26.072L45.3518 24.784C47.9278 23.286 49.0478 21.382 49.2718 18.876H46.0098V17.406H51.0918Z" fill="white"/>
</svg>
