<svg width="66" height="45" viewBox="0 0 66 45" fill="none" xmlns="http://www.w3.org/2000/svg">
<path d="M28.68 20.71C28.974 19.534 29.016 18.694 29.016 17.84H21.932V16.384H30.864V17.448C30.864 18.47 30.85 19.548 30.5 20.892L28.68 20.71ZM32.236 23.034H20.63V21.578H24.928V19.324H26.776V21.578H32.236V23.034ZM26.356 23.846C29.142 23.846 30.934 24.77 30.934 26.282C30.934 27.78 29.142 28.704 26.356 28.704C23.584 28.704 21.792 27.78 21.792 26.282C21.792 24.77 23.584 23.846 26.356 23.846ZM26.356 27.318C28.106 27.318 29.1 26.968 29.1 26.282C29.1 25.568 28.106 25.232 26.356 25.232C24.606 25.232 23.626 25.568 23.626 26.282C23.626 26.968 24.606 27.318 26.356 27.318ZM44.1069 28.704H42.3429V22.152H41.1949V28.158H39.4729V16.146H41.1949V20.668H42.3429V15.81H44.1069V28.704ZM38.6329 17.406C38.6329 21.018 37.5689 23.972 33.9709 26.072L32.8929 24.784C35.4689 23.286 36.5889 21.382 36.8129 18.876H33.5509V17.406H38.6329Z" fill="#282828"/>
</svg>
